<svg width="1737" height="280" viewBox="0 0 1737 280" fill="none" xmlns="http://www.w3.org/2000/svg">
<mask id="path-1-outside-1_1145_135" maskUnits="userSpaceOnUse" x="0" y="0" width="1737" height="280" fill="black">
<rect fill="white" width="1737" height="280"/>
<path d="M246.355 65.3661C246.355 53.0381 248.905 42.0734 254.006 32.4718C259.226 22.7517 266.581 15.2245 276.071 9.89034C285.562 4.4376 296.475 1.71123 308.813 1.71123C324.472 1.71123 337.64 5.91932 348.316 14.3355C358.993 22.6332 365.874 33.9535 368.958 48.2966H331.412C329.158 43.5551 326.014 39.9397 321.981 37.4504C318.066 34.9611 313.499 33.7165 308.279 33.7165C300.212 33.7165 293.747 36.6206 288.883 42.429C284.138 48.1188 281.765 55.7645 281.765 65.3661C281.765 75.0862 284.138 82.8504 288.883 88.6588C293.747 94.3486 300.212 97.1935 308.279 97.1935C313.499 97.1935 318.066 95.9488 321.981 93.4595C326.014 90.9702 329.158 87.3548 331.412 82.6133H368.958C365.874 96.9564 358.993 108.336 348.316 116.752C337.64 125.05 324.472 129.199 308.813 129.199C296.475 129.199 285.562 126.532 276.071 121.197C266.581 115.745 259.226 108.217 254.006 98.6159C248.905 88.8958 246.355 77.8125 246.355 65.3661ZM420.35 30.8715V51.3193H460.388V77.8125H420.35V100.394H465.726V128.31H385.473V2.95587H465.726V30.8715H420.35ZM599.157 128.31H564.28L517.837 58.2538V128.31H482.96V2.95587H517.837L564.28 73.9008V2.95587H599.157V128.31ZM713.513 2.95587V30.6937H680.059V128.31H645.182V30.6937H612.085V2.95587H713.513ZM789.942 128.31L765.03 82.0799H761.293V128.31H726.416V2.95587H781.401C791.484 2.95587 800.026 4.73394 807.025 8.29008C814.024 11.7277 819.303 16.5285 822.862 22.6924C826.421 28.7379 828.2 35.5538 828.2 43.1402C828.2 51.6749 825.828 59.2021 821.082 65.7217C816.456 72.1227 809.635 76.6864 800.619 79.4128L828.912 128.31H789.942ZM761.293 58.2538H778.554C783.299 58.2538 786.858 57.1277 789.231 54.8755C791.603 52.6232 792.789 49.3634 792.789 45.0961C792.789 41.0658 791.544 37.9245 789.053 35.6723C786.68 33.3016 783.18 32.1162 778.554 32.1162H761.293V58.2538ZM904.206 129.554C892.462 129.554 881.666 126.828 871.82 121.375C861.974 115.804 854.144 108.158 848.331 98.4381C842.637 88.5995 839.79 77.5162 839.79 65.1882C839.79 52.8603 842.637 41.8363 848.331 32.1162C854.144 22.2775 861.974 14.6319 871.82 9.17911C881.666 3.72637 892.462 1 904.206 1C916.069 1 926.864 3.72637 936.592 9.17911C946.438 14.6319 954.208 22.2775 959.902 32.1162C965.596 41.8363 968.444 52.8603 968.444 65.1882C968.444 77.5162 965.596 88.5995 959.902 98.4381C954.208 108.158 946.438 115.804 936.592 121.375C926.745 126.828 915.95 129.554 904.206 129.554ZM904.206 97.1935C913.103 97.1935 920.102 94.2893 925.203 88.4809C930.423 82.6726 933.033 74.9084 933.033 65.1882C933.033 55.2311 930.423 47.4076 925.203 41.7178C920.102 35.9094 913.103 33.0052 904.206 33.0052C895.19 33.0052 888.132 35.9094 883.031 41.7178C877.929 47.4076 875.379 55.2311 875.379 65.1882C875.379 75.0269 877.929 82.8504 883.031 88.6588C888.132 94.3486 895.19 97.1935 904.206 97.1935ZM1013.91 65.3661C1013.91 53.0381 1016.46 42.0734 1021.56 32.4718C1026.78 22.7517 1034.14 15.2245 1043.63 9.89034C1053.12 4.4376 1064.03 1.71123 1076.37 1.71123C1092.03 1.71123 1105.2 5.91932 1115.87 14.3355C1126.55 22.6332 1133.43 33.9535 1136.51 48.2966H1098.97C1096.71 43.5551 1093.57 39.9397 1089.54 37.4504C1085.62 34.9611 1081.06 33.7165 1075.84 33.7165C1067.77 33.7165 1061.3 36.6206 1056.44 42.429C1051.69 48.1188 1049.32 55.7645 1049.32 65.3661C1049.32 75.0862 1051.69 82.8504 1056.44 88.6588C1061.3 94.3486 1067.77 97.1935 1075.84 97.1935C1081.06 97.1935 1085.62 95.9488 1089.54 93.4595C1093.57 90.9702 1096.71 87.3548 1098.97 82.6133H1136.51C1133.43 96.9564 1126.55 108.336 1115.87 116.752C1105.2 125.05 1092.03 129.199 1076.37 129.199C1064.03 129.199 1053.12 126.532 1043.63 121.197C1034.14 115.745 1026.78 108.217 1021.56 98.6159C1016.46 88.8958 1013.91 77.8125 1013.91 65.3661ZM1187.91 30.8715V51.3193H1227.94V77.8125H1187.91V100.394H1233.28V128.31H1153.03V2.95587H1233.28V30.8715H1187.91ZM1366.71 128.31H1331.84L1285.39 58.2538V128.31H1250.52V2.95587H1285.39L1331.84 73.9008V2.95587H1366.71V128.31ZM1481.07 2.95587V30.6937H1447.62V128.31H1412.74V30.6937H1379.64V2.95587H1481.07ZM1557.5 128.31L1532.59 82.0799H1528.85V128.31H1493.97V2.95587H1548.96C1559.04 2.95587 1567.58 4.73394 1574.58 8.29008C1581.58 11.7277 1586.86 16.5285 1590.42 22.6924C1593.98 28.7379 1595.76 35.5538 1595.76 43.1402C1595.76 51.6749 1593.38 59.2021 1588.64 65.7217C1584.01 72.1227 1577.19 76.6864 1568.18 79.4128L1596.47 128.31H1557.5ZM1528.85 58.2538H1546.11C1550.86 58.2538 1554.41 57.1277 1556.79 54.8755C1559.16 52.6232 1560.35 49.3634 1560.35 45.0961C1560.35 41.0658 1559.1 37.9245 1556.61 35.6723C1554.24 33.3016 1550.74 32.1162 1546.11 32.1162H1528.85V58.2538ZM1671.76 129.554C1660.02 129.554 1649.22 126.828 1639.38 121.375C1629.53 115.804 1621.7 108.158 1615.89 98.4381C1610.19 88.5995 1607.35 77.5162 1607.35 65.1882C1607.35 52.8603 1610.19 41.8363 1615.89 32.1162C1621.7 22.2775 1629.53 14.6319 1639.38 9.17911C1649.22 3.72637 1660.02 1 1671.76 1C1683.63 1 1694.42 3.72637 1704.15 9.17911C1713.99 14.6319 1721.76 22.2775 1727.46 32.1162C1733.15 41.8363 1736 52.8603 1736 65.1882C1736 77.5162 1733.15 88.5995 1727.46 98.4381C1721.76 108.158 1713.99 115.804 1704.15 121.375C1694.3 126.828 1683.51 129.554 1671.76 129.554ZM1671.76 97.1935C1680.66 97.1935 1687.66 94.2893 1692.76 88.4809C1697.98 82.6726 1700.59 74.9084 1700.59 65.1882C1700.59 55.2311 1697.98 47.4076 1692.76 41.7178C1687.66 35.9094 1680.66 33.0052 1671.76 33.0052C1662.75 33.0052 1655.69 35.9094 1650.59 41.7178C1645.49 47.4076 1642.94 55.2311 1642.94 65.1882C1642.94 75.0269 1645.49 82.8504 1650.59 88.6588C1655.69 94.3486 1662.75 97.1935 1671.76 97.1935Z"/>
<path d="M100.115 194.186C100.115 201.773 98.3353 208.707 94.7764 214.99C91.3361 221.154 86.0571 226.132 78.9394 229.925C71.9403 233.6 63.3396 235.437 53.1375 235.437H35.877V277.755H1V152.402H53.1375C63.221 152.402 71.7623 154.18 78.7614 157.736C85.8792 161.292 91.2175 166.211 94.7764 172.494C98.3353 178.776 100.115 186.007 100.115 194.186ZM49.7566 207.699C59.6028 207.699 64.5259 203.195 64.5259 194.186C64.5259 185.059 59.6028 180.495 49.7566 180.495H35.877V207.699H49.7566ZM177.652 277.755L152.74 231.526H149.003V277.755H114.126V152.402H169.111C179.194 152.402 187.736 154.18 194.735 157.736C201.734 161.173 207.013 165.974 210.572 172.138C214.131 178.184 215.91 184.999 215.91 192.586C215.91 201.121 213.538 208.648 208.792 215.167C204.166 221.568 197.345 226.132 188.329 228.858L216.622 277.755H177.652ZM149.003 207.699H166.264C171.009 207.699 174.568 206.573 176.941 204.321C179.313 202.069 180.499 198.809 180.499 194.542C180.499 190.511 179.254 187.37 176.763 185.118C174.39 182.747 170.89 181.562 166.264 181.562H149.003V207.699ZM266.648 180.317V200.765H306.685V227.258H266.648V249.84H312.024V277.755H231.771V152.402H312.024V180.317H266.648ZM428.372 194.186C428.372 201.773 426.593 208.707 423.034 214.99C419.594 221.154 414.315 226.132 407.197 229.925C400.198 233.6 391.597 235.437 381.395 235.437H364.135V277.755H329.258V152.402H381.395C391.479 152.402 400.02 154.18 407.019 157.736C414.137 161.292 419.475 166.211 423.034 172.494C426.593 178.776 428.372 186.007 428.372 194.186ZM378.014 207.699C387.86 207.699 392.784 203.195 392.784 194.186C392.784 185.059 387.86 180.495 378.014 180.495H364.135V207.699H378.014ZM521.747 257.308H477.261L470.499 277.755H433.843L479.574 152.402H519.79L565.343 277.755H528.509L521.747 257.308ZM513.028 230.637L499.504 190.097L486.158 230.637H513.028ZM640.237 277.755L615.325 231.526H611.588V277.755H576.711V152.402H631.695C641.779 152.402 650.32 154.18 657.319 157.736C664.318 161.173 669.597 165.974 673.156 172.138C676.715 178.184 678.495 184.999 678.495 192.586C678.495 201.121 676.122 208.648 671.377 215.167C666.75 221.568 659.929 226.132 650.913 228.858L679.206 277.755H640.237ZM611.588 207.699H628.848C633.593 207.699 637.152 206.573 639.525 204.321C641.897 202.069 643.084 198.809 643.084 194.542C643.084 190.511 641.838 187.37 639.347 185.118C636.974 182.747 633.475 181.562 628.848 181.562H611.588V207.699ZM773.718 257.308H729.232L722.47 277.755H685.814L731.545 152.402H771.761L817.314 277.755H780.48L773.718 257.308ZM764.999 230.637L751.475 190.097L738.129 230.637H764.999ZM923.17 152.402V180.139H889.717V277.755H854.84V180.139H821.742V152.402H923.17ZM996.219 279C984.474 279 973.679 276.274 963.833 270.821C953.987 265.25 946.157 257.604 940.344 247.884C934.65 238.045 931.803 226.962 931.803 214.634C931.803 202.306 934.65 191.282 940.344 181.562C946.157 171.723 953.987 164.078 963.833 158.625C973.679 153.172 984.474 150.446 996.219 150.446C1008.08 150.446 1018.88 153.172 1028.6 158.625C1038.45 164.078 1046.22 171.723 1051.92 181.562C1057.61 191.282 1060.46 202.306 1060.46 214.634C1060.46 226.962 1057.61 238.045 1051.92 247.884C1046.22 257.604 1038.45 265.25 1028.6 270.821C1018.76 276.274 1007.96 279 996.219 279ZM996.219 246.639C1005.12 246.639 1012.12 243.735 1017.22 237.927C1022.44 232.118 1025.05 224.354 1025.05 214.634C1025.05 204.677 1022.44 196.853 1017.22 191.163C1012.12 185.355 1005.12 182.451 996.219 182.451C987.203 182.451 980.145 185.355 975.043 191.163C969.942 196.853 967.392 204.677 967.392 214.634C967.392 224.473 969.942 232.296 975.043 238.104C980.145 243.794 987.203 246.639 996.219 246.639ZM1017.93 127.686L973.442 145.111V121.463L1017.93 101.371V127.686ZM1139.66 277.755L1114.75 231.526H1111.01V277.755H1076.14V152.402H1131.12C1141.2 152.402 1149.74 154.18 1156.74 157.736C1163.74 161.173 1169.02 165.974 1172.58 172.138C1176.14 178.184 1177.92 184.999 1177.92 192.586C1177.92 201.121 1175.55 208.648 1170.8 215.167C1166.17 221.568 1159.35 226.132 1150.34 228.858L1178.63 277.755H1139.66ZM1111.01 207.699H1128.27C1133.02 207.699 1136.58 206.573 1138.95 204.321C1141.32 202.069 1142.51 198.809 1142.51 194.542C1142.51 190.511 1141.26 187.37 1138.77 185.118C1136.4 182.747 1132.9 181.562 1128.27 181.562H1111.01V207.699ZM1228.66 152.402V277.755H1193.78V152.402H1228.66ZM1308.66 279C1296.92 279 1286.12 276.274 1276.28 270.821C1266.43 265.25 1258.6 257.604 1252.79 247.884C1247.09 238.045 1244.25 226.962 1244.25 214.634C1244.25 202.306 1247.09 191.282 1252.79 181.562C1258.6 171.723 1266.43 164.078 1276.28 158.625C1286.12 153.172 1296.92 150.446 1308.66 150.446C1320.53 150.446 1331.32 153.172 1341.05 158.625C1350.9 164.078 1358.67 171.723 1364.36 181.562C1370.05 191.282 1372.9 202.306 1372.9 214.634C1372.9 226.962 1370.05 238.045 1364.36 247.884C1358.67 257.604 1350.9 265.25 1341.05 270.821C1331.2 276.274 1320.41 279 1308.66 279ZM1308.66 246.639C1317.56 246.639 1324.56 243.735 1329.66 237.927C1334.88 232.118 1337.49 224.354 1337.49 214.634C1337.49 204.677 1334.88 196.853 1329.66 191.163C1324.56 185.355 1317.56 182.451 1308.66 182.451C1299.65 182.451 1292.59 185.355 1287.49 191.163C1282.39 196.853 1279.84 204.677 1279.84 214.634C1279.84 224.473 1282.39 232.296 1287.49 238.104C1292.59 243.794 1299.65 246.639 1308.66 246.639Z"/>
</mask>
<path d="M246.355 65.3661C246.355 53.0381 248.905 42.0734 254.006 32.4718C259.226 22.7517 266.581 15.2245 276.071 9.89034C285.562 4.4376 296.475 1.71123 308.813 1.71123C324.472 1.71123 337.64 5.91932 348.316 14.3355C358.993 22.6332 365.874 33.9535 368.958 48.2966H331.412C329.158 43.5551 326.014 39.9397 321.981 37.4504C318.066 34.9611 313.499 33.7165 308.279 33.7165C300.212 33.7165 293.747 36.6206 288.883 42.429C284.138 48.1188 281.765 55.7645 281.765 65.3661C281.765 75.0862 284.138 82.8504 288.883 88.6588C293.747 94.3486 300.212 97.1935 308.279 97.1935C313.499 97.1935 318.066 95.9488 321.981 93.4595C326.014 90.9702 329.158 87.3548 331.412 82.6133H368.958C365.874 96.9564 358.993 108.336 348.316 116.752C337.64 125.05 324.472 129.199 308.813 129.199C296.475 129.199 285.562 126.532 276.071 121.197C266.581 115.745 259.226 108.217 254.006 98.6159C248.905 88.8958 246.355 77.8125 246.355 65.3661ZM420.35 30.8715V51.3193H460.388V77.8125H420.35V100.394H465.726V128.31H385.473V2.95587H465.726V30.8715H420.35ZM599.157 128.31H564.28L517.837 58.2538V128.31H482.96V2.95587H517.837L564.28 73.9008V2.95587H599.157V128.31ZM713.513 2.95587V30.6937H680.059V128.31H645.182V30.6937H612.085V2.95587H713.513ZM789.942 128.31L765.03 82.0799H761.293V128.31H726.416V2.95587H781.401C791.484 2.95587 800.026 4.73394 807.025 8.29008C814.024 11.7277 819.303 16.5285 822.862 22.6924C826.421 28.7379 828.2 35.5538 828.2 43.1402C828.2 51.6749 825.828 59.2021 821.082 65.7217C816.456 72.1227 809.635 76.6864 800.619 79.4128L828.912 128.31H789.942ZM761.293 58.2538H778.554C783.299 58.2538 786.858 57.1277 789.231 54.8755C791.603 52.6232 792.789 49.3634 792.789 45.0961C792.789 41.0658 791.544 37.9245 789.053 35.6723C786.68 33.3016 783.18 32.1162 778.554 32.1162H761.293V58.2538ZM904.206 129.554C892.462 129.554 881.666 126.828 871.82 121.375C861.974 115.804 854.144 108.158 848.331 98.4381C842.637 88.5995 839.79 77.5162 839.79 65.1882C839.79 52.8603 842.637 41.8363 848.331 32.1162C854.144 22.2775 861.974 14.6319 871.82 9.17911C881.666 3.72637 892.462 1 904.206 1C916.069 1 926.864 3.72637 936.592 9.17911C946.438 14.6319 954.208 22.2775 959.902 32.1162C965.596 41.8363 968.444 52.8603 968.444 65.1882C968.444 77.5162 965.596 88.5995 959.902 98.4381C954.208 108.158 946.438 115.804 936.592 121.375C926.745 126.828 915.95 129.554 904.206 129.554ZM904.206 97.1935C913.103 97.1935 920.102 94.2893 925.203 88.4809C930.423 82.6726 933.033 74.9084 933.033 65.1882C933.033 55.2311 930.423 47.4076 925.203 41.7178C920.102 35.9094 913.103 33.0052 904.206 33.0052C895.19 33.0052 888.132 35.9094 883.031 41.7178C877.929 47.4076 875.379 55.2311 875.379 65.1882C875.379 75.0269 877.929 82.8504 883.031 88.6588C888.132 94.3486 895.19 97.1935 904.206 97.1935ZM1013.91 65.3661C1013.91 53.0381 1016.46 42.0734 1021.56 32.4718C1026.78 22.7517 1034.14 15.2245 1043.63 9.89034C1053.12 4.4376 1064.03 1.71123 1076.37 1.71123C1092.03 1.71123 1105.2 5.91932 1115.87 14.3355C1126.55 22.6332 1133.43 33.9535 1136.51 48.2966H1098.97C1096.71 43.5551 1093.57 39.9397 1089.54 37.4504C1085.62 34.9611 1081.06 33.7165 1075.84 33.7165C1067.77 33.7165 1061.3 36.6206 1056.44 42.429C1051.69 48.1188 1049.32 55.7645 1049.32 65.3661C1049.32 75.0862 1051.69 82.8504 1056.44 88.6588C1061.3 94.3486 1067.77 97.1935 1075.84 97.1935C1081.06 97.1935 1085.62 95.9488 1089.54 93.4595C1093.57 90.9702 1096.71 87.3548 1098.97 82.6133H1136.51C1133.43 96.9564 1126.55 108.336 1115.87 116.752C1105.2 125.05 1092.03 129.199 1076.37 129.199C1064.03 129.199 1053.12 126.532 1043.63 121.197C1034.14 115.745 1026.78 108.217 1021.56 98.6159C1016.46 88.8958 1013.91 77.8125 1013.91 65.3661ZM1187.91 30.8715V51.3193H1227.94V77.8125H1187.91V100.394H1233.28V128.31H1153.03V2.95587H1233.28V30.8715H1187.91ZM1366.71 128.31H1331.84L1285.39 58.2538V128.31H1250.52V2.95587H1285.39L1331.84 73.9008V2.95587H1366.71V128.31ZM1481.07 2.95587V30.6937H1447.62V128.31H1412.74V30.6937H1379.64V2.95587H1481.07ZM1557.5 128.31L1532.59 82.0799H1528.85V128.31H1493.97V2.95587H1548.96C1559.04 2.95587 1567.58 4.73394 1574.58 8.29008C1581.58 11.7277 1586.86 16.5285 1590.42 22.6924C1593.98 28.7379 1595.76 35.5538 1595.76 43.1402C1595.76 51.6749 1593.38 59.2021 1588.64 65.7217C1584.01 72.1227 1577.19 76.6864 1568.18 79.4128L1596.47 128.31H1557.5ZM1528.85 58.2538H1546.11C1550.86 58.2538 1554.41 57.1277 1556.79 54.8755C1559.16 52.6232 1560.35 49.3634 1560.35 45.0961C1560.35 41.0658 1559.1 37.9245 1556.61 35.6723C1554.24 33.3016 1550.74 32.1162 1546.11 32.1162H1528.85V58.2538ZM1671.76 129.554C1660.02 129.554 1649.22 126.828 1639.38 121.375C1629.53 115.804 1621.7 108.158 1615.89 98.4381C1610.19 88.5995 1607.35 77.5162 1607.35 65.1882C1607.35 52.8603 1610.19 41.8363 1615.89 32.1162C1621.7 22.2775 1629.53 14.6319 1639.38 9.17911C1649.22 3.72637 1660.02 1 1671.76 1C1683.63 1 1694.42 3.72637 1704.15 9.17911C1713.99 14.6319 1721.76 22.2775 1727.46 32.1162C1733.15 41.8363 1736 52.8603 1736 65.1882C1736 77.5162 1733.15 88.5995 1727.46 98.4381C1721.76 108.158 1713.99 115.804 1704.15 121.375C1694.3 126.828 1683.51 129.554 1671.76 129.554ZM1671.76 97.1935C1680.66 97.1935 1687.66 94.2893 1692.76 88.4809C1697.98 82.6726 1700.59 74.9084 1700.59 65.1882C1700.59 55.2311 1697.98 47.4076 1692.76 41.7178C1687.66 35.9094 1680.66 33.0052 1671.76 33.0052C1662.75 33.0052 1655.69 35.9094 1650.59 41.7178C1645.49 47.4076 1642.94 55.2311 1642.94 65.1882C1642.94 75.0269 1645.49 82.8504 1650.59 88.6588C1655.69 94.3486 1662.75 97.1935 1671.76 97.1935Z" stroke="url(#paint0_linear_1145_135)" stroke-width="2" mask="url(#path-1-outside-1_1145_135)"/>
<path d="M100.115 194.186C100.115 201.773 98.3353 208.707 94.7764 214.99C91.3361 221.154 86.0571 226.132 78.9394 229.925C71.9403 233.6 63.3396 235.437 53.1375 235.437H35.877V277.755H1V152.402H53.1375C63.221 152.402 71.7623 154.18 78.7614 157.736C85.8792 161.292 91.2175 166.211 94.7764 172.494C98.3353 178.776 100.115 186.007 100.115 194.186ZM49.7566 207.699C59.6028 207.699 64.5259 203.195 64.5259 194.186C64.5259 185.059 59.6028 180.495 49.7566 180.495H35.877V207.699H49.7566ZM177.652 277.755L152.74 231.526H149.003V277.755H114.126V152.402H169.111C179.194 152.402 187.736 154.18 194.735 157.736C201.734 161.173 207.013 165.974 210.572 172.138C214.131 178.184 215.91 184.999 215.91 192.586C215.91 201.121 213.538 208.648 208.792 215.167C204.166 221.568 197.345 226.132 188.329 228.858L216.622 277.755H177.652ZM149.003 207.699H166.264C171.009 207.699 174.568 206.573 176.941 204.321C179.313 202.069 180.499 198.809 180.499 194.542C180.499 190.511 179.254 187.37 176.763 185.118C174.39 182.747 170.89 181.562 166.264 181.562H149.003V207.699ZM266.648 180.317V200.765H306.685V227.258H266.648V249.84H312.024V277.755H231.771V152.402H312.024V180.317H266.648ZM428.372 194.186C428.372 201.773 426.593 208.707 423.034 214.99C419.594 221.154 414.315 226.132 407.197 229.925C400.198 233.6 391.597 235.437 381.395 235.437H364.135V277.755H329.258V152.402H381.395C391.479 152.402 400.02 154.18 407.019 157.736C414.137 161.292 419.475 166.211 423.034 172.494C426.593 178.776 428.372 186.007 428.372 194.186ZM378.014 207.699C387.86 207.699 392.784 203.195 392.784 194.186C392.784 185.059 387.86 180.495 378.014 180.495H364.135V207.699H378.014ZM521.747 257.308H477.261L470.499 277.755H433.843L479.574 152.402H519.79L565.343 277.755H528.509L521.747 257.308ZM513.028 230.637L499.504 190.097L486.158 230.637H513.028ZM640.237 277.755L615.325 231.526H611.588V277.755H576.711V152.402H631.695C641.779 152.402 650.32 154.18 657.319 157.736C664.318 161.173 669.597 165.974 673.156 172.138C676.715 178.184 678.495 184.999 678.495 192.586C678.495 201.121 676.122 208.648 671.377 215.167C666.75 221.568 659.929 226.132 650.913 228.858L679.206 277.755H640.237ZM611.588 207.699H628.848C633.593 207.699 637.152 206.573 639.525 204.321C641.897 202.069 643.084 198.809 643.084 194.542C643.084 190.511 641.838 187.37 639.347 185.118C636.974 182.747 633.475 181.562 628.848 181.562H611.588V207.699ZM773.718 257.308H729.232L722.47 277.755H685.814L731.545 152.402H771.761L817.314 277.755H780.48L773.718 257.308ZM764.999 230.637L751.475 190.097L738.129 230.637H764.999ZM923.17 152.402V180.139H889.717V277.755H854.84V180.139H821.742V152.402H923.17ZM996.219 279C984.474 279 973.679 276.274 963.833 270.821C953.987 265.25 946.157 257.604 940.344 247.884C934.65 238.045 931.803 226.962 931.803 214.634C931.803 202.306 934.65 191.282 940.344 181.562C946.157 171.723 953.987 164.078 963.833 158.625C973.679 153.172 984.474 150.446 996.219 150.446C1008.08 150.446 1018.88 153.172 1028.6 158.625C1038.45 164.078 1046.22 171.723 1051.92 181.562C1057.61 191.282 1060.46 202.306 1060.46 214.634C1060.46 226.962 1057.61 238.045 1051.92 247.884C1046.22 257.604 1038.45 265.25 1028.6 270.821C1018.76 276.274 1007.96 279 996.219 279ZM996.219 246.639C1005.12 246.639 1012.12 243.735 1017.22 237.927C1022.44 232.118 1025.05 224.354 1025.05 214.634C1025.05 204.677 1022.44 196.853 1017.22 191.163C1012.12 185.355 1005.12 182.451 996.219 182.451C987.203 182.451 980.145 185.355 975.043 191.163C969.942 196.853 967.392 204.677 967.392 214.634C967.392 224.473 969.942 232.296 975.043 238.104C980.145 243.794 987.203 246.639 996.219 246.639ZM1017.93 127.686L973.442 145.111V121.463L1017.93 101.371V127.686ZM1139.66 277.755L1114.75 231.526H1111.01V277.755H1076.14V152.402H1131.12C1141.2 152.402 1149.74 154.18 1156.74 157.736C1163.74 161.173 1169.02 165.974 1172.58 172.138C1176.14 178.184 1177.92 184.999 1177.92 192.586C1177.92 201.121 1175.55 208.648 1170.8 215.167C1166.17 221.568 1159.35 226.132 1150.34 228.858L1178.63 277.755H1139.66ZM1111.01 207.699H1128.27C1133.02 207.699 1136.58 206.573 1138.95 204.321C1141.32 202.069 1142.51 198.809 1142.51 194.542C1142.51 190.511 1141.26 187.37 1138.77 185.118C1136.4 182.747 1132.9 181.562 1128.27 181.562H1111.01V207.699ZM1228.66 152.402V277.755H1193.78V152.402H1228.66ZM1308.66 279C1296.92 279 1286.12 276.274 1276.28 270.821C1266.43 265.25 1258.6 257.604 1252.79 247.884C1247.09 238.045 1244.25 226.962 1244.25 214.634C1244.25 202.306 1247.09 191.282 1252.79 181.562C1258.6 171.723 1266.43 164.078 1276.28 158.625C1286.12 153.172 1296.92 150.446 1308.66 150.446C1320.53 150.446 1331.32 153.172 1341.05 158.625C1350.9 164.078 1358.67 171.723 1364.36 181.562C1370.05 191.282 1372.9 202.306 1372.9 214.634C1372.9 226.962 1370.05 238.045 1364.36 247.884C1358.67 257.604 1350.9 265.25 1341.05 270.821C1331.2 276.274 1320.41 279 1308.66 279ZM1308.66 246.639C1317.56 246.639 1324.56 243.735 1329.66 237.927C1334.88 232.118 1337.49 224.354 1337.49 214.634C1337.49 204.677 1334.88 196.853 1329.66 191.163C1324.56 185.355 1317.56 182.451 1308.66 182.451C1299.65 182.451 1292.59 185.355 1287.49 191.163C1282.39 196.853 1279.84 204.677 1279.84 214.634C1279.84 224.473 1282.39 232.296 1287.49 238.104C1292.59 243.794 1299.65 246.639 1308.66 246.639Z" stroke="url(#paint1_linear_1145_135)" stroke-width="2" mask="url(#path-1-outside-1_1145_135)"/>
<defs>
<linearGradient id="paint0_linear_1145_135" x1="-9.34132" y1="214.782" x2="1378.99" y2="214.782" gradientUnits="userSpaceOnUse">
<stop stop-color="#4242A5"/>
<stop offset="1" stop-color="#8A38F5"/>
</linearGradient>
<linearGradient id="paint1_linear_1145_135" x1="-9.34132" y1="214.782" x2="1378.99" y2="214.782" gradientUnits="userSpaceOnUse">
<stop stop-color="#4242A5"/>
<stop offset="1" stop-color="#8A38F5"/>
</linearGradient>
</defs>
</svg>
