<svg width="36" height="52" viewBox="0 0 36 52" fill="none" xmlns="http://www.w3.org/2000/svg">
<path d="M18 24.7C16.295 24.7 14.6599 24.0152 13.4543 22.7962C12.2487 21.5772 11.5714 19.9239 11.5714 18.2C11.5714 16.4761 12.2487 14.8228 13.4543 13.6038C14.6599 12.3848 16.295 11.7 18 11.7C19.705 11.7 21.3401 12.3848 22.5457 13.6038C23.7513 14.8228 24.4286 16.4761 24.4286 18.2C24.4286 19.0536 24.2623 19.8988 23.9392 20.6874C23.6162 21.4761 23.1426 22.1926 22.5457 22.7962C21.9487 23.3998 21.2401 23.8786 20.4601 24.2052C19.6802 24.5319 18.8442 24.7 18 24.7ZM18 0C13.2261 0 8.64773 1.91749 5.27208 5.33066C1.89642 8.74382 0 13.3731 0 18.2C0 31.85 18 52 18 52C18 52 36 31.85 36 18.2C36 13.3731 34.1036 8.74382 30.7279 5.33066C27.3523 1.91749 22.7739 0 18 0Z" fill="url(#paint0_linear_857_1215)"/>
<defs>
<linearGradient id="paint0_linear_857_1215" x1="18" y1="-2.33063e-07" x2="29.2997" y2="73.1489" gradientUnits="userSpaceOnUse">
<stop stop-color="#7878FF"/>
<stop offset="1" stop-color="white" stop-opacity="0"/>
</linearGradient>
</defs>
</svg>
