<svg width="28" height="29" viewBox="0 0 28 29" fill="none" xmlns="http://www.w3.org/2000/svg">
<g clip-path="url(#clip0_1007_976)">
<path d="M1.60814 2.64309C1.56861 2.39806 1.01456 1.67862 1.04775 1.50723C1.08583 1.31058 2.98372 0.331593 3.13762 0.337675C3.2626 0.431043 3.7777 1.28916 3.80573 1.407L3.83381 1.41342C4.02298 1.31697 4.87061 0.815523 4.96147 0.918811C5.13557 1.11673 5.63921 2.15272 5.77686 2.39218C6.42915 3.52684 6.9939 4.70781 7.68854 5.80588C7.71283 5.84425 7.9141 5.7967 7.94579 5.76968C8.39079 5.59837 9.81015 4.59614 10.1998 4.65682C10.4259 4.77136 10.6743 5.40229 10.8701 5.66301C11.5293 5.39458 12.1722 4.98563 12.8022 4.64908C13.2953 4.38568 13.6711 4.09269 14.2212 3.9225C14.3976 4.14604 14.6902 4.77316 14.8251 5.05155C15.5815 4.66278 16.3193 4.25615 17.0702 3.85797C17.1474 3.81704 17.2996 3.77197 17.3884 3.79226C17.5514 3.93229 17.796 4.53992 18.0449 4.8415C18.3609 4.71331 18.7666 4.4717 19.0435 4.34398C19.236 4.25522 19.79 5.54117 19.9565 5.71147C20.1438 5.64155 20.2564 5.56764 20.4292 5.48733C20.8505 5.29149 21.0392 5.04376 21.3039 5.55856C22.3119 7.5187 23.4329 9.41941 24.4824 11.3556C24.7478 11.8501 25.0177 12.3421 25.2921 12.8316C25.4436 13.1075 25.597 13.4648 25.7978 13.6953C25.4521 13.9228 25.0365 14.1243 24.7274 14.3464C24.8676 14.7458 25.1169 15.168 25.3224 15.5453L26.1137 16.9989C26.245 17.2392 26.381 17.4537 26.5012 17.7038C26.7175 18.1539 25.4894 18.2844 25.6013 18.6006C25.7504 19.0221 26.0338 19.4968 26.2561 19.8886L27.0369 21.2705C27.2297 21.6095 27.4218 22.0163 27.6066 22.3697C27.3529 22.6314 25.5762 23.5139 25.1118 23.7679L22.2776 25.3444C21.6584 25.6822 16.064 28.7633 15.9933 28.7543C15.7234 28.3671 15.6034 28.0677 15.3799 27.6737C14.9888 26.9843 14.5819 26.2954 14.2151 25.5922C14.1519 25.471 13.9072 25.0731 13.8769 24.9746L13.7991 24.9158C13.602 25.0429 12.9593 25.4678 12.7544 25.43C12.6059 25.2865 11.6001 23.4844 11.4141 23.1645L11.3746 23.1363C11.2001 23.3004 10.5386 23.6328 10.3092 23.7368C9.90331 22.9233 9.44494 22.2132 9.02997 21.4206L8.9906 21.4044C8.54711 21.5362 8.08139 21.9928 7.674 22.0812C7.45478 21.9753 7.06287 21.0678 6.91671 20.8238C6.66184 20.3983 6.38444 19.9624 6.16055 19.5212L6.10884 19.5155C5.88115 19.5824 5.292 19.9155 5.07497 20.0446C4.90194 19.8785 4.53174 19.1876 4.40776 18.9458L4.36166 18.9112C4.09085 19.0317 3.56825 19.4218 3.29361 19.4255C3.10754 19.428 1.63618 16.3426 1.32064 16.0167L1.31248 16.0084C1.8397 15.5891 2.73077 15.2384 3.32306 14.8823C3.55614 14.7422 4.7457 14.0499 4.9055 14.0928C5.0417 14.2294 5.44187 14.9504 5.54056 15.152L5.55108 15.16C5.71115 15.1391 6.49442 14.7274 6.62988 14.5811C6.7191 14.4847 6.45269 14.0735 6.37859 13.9341L3.97504 9.5146C3.72488 9.06173 3.42754 8.60044 3.18044 8.1415C3.04191 7.8842 2.91818 7.62443 2.77993 7.36642L1.85487 5.67633C1.65818 5.3167 0.613784 3.50868 0.592773 3.27596C0.663432 3.1472 1.43354 2.7336 1.60814 2.64309Z" fill="#FEFEFE"/>
<path d="M3.83398 1.41358C4.02315 1.31713 4.87078 0.81568 4.96164 0.918968C5.13574 1.11689 5.63938 2.15288 5.77703 2.39234C6.42932 3.52699 6.99407 4.70797 7.68871 5.80604C7.713 5.8444 7.91427 5.79685 7.94596 5.76984C8.39096 5.59853 9.81032 4.5963 10.2 4.65697C10.426 4.77152 10.6745 5.40245 10.8702 5.66317C11.5295 5.39474 12.1724 4.98578 12.8024 4.64924C13.2955 4.38583 13.6713 4.09284 14.2213 3.92266C14.3978 4.14619 14.6903 4.77332 14.8253 5.05171C15.5816 4.66293 16.3194 4.25631 17.0704 3.85813C17.1475 3.81719 17.2997 3.77213 17.3886 3.79242C17.5516 3.93245 17.7961 4.54008 18.0451 4.84165C18.3611 4.71347 18.7668 4.47186 19.0437 4.34413C19.2362 4.25538 19.7902 5.54133 19.9567 5.71162C20.144 5.6417 20.2566 5.56779 20.4293 5.48749C20.8507 5.29165 21.0394 5.04391 21.3041 5.55872C22.3121 7.51885 23.4331 9.41957 24.4825 11.3558C24.7479 11.8502 25.0178 12.3423 25.2922 12.8318C25.4438 13.1077 25.5971 13.4649 25.7979 13.6955C25.4523 13.923 25.0367 14.1245 24.7276 14.3466C24.8678 14.7459 25.1171 15.1681 25.3226 15.5454L26.1138 16.9991C26.2451 17.2394 26.3812 17.4538 26.5014 17.704C26.7176 18.1541 25.4896 18.2846 25.6015 18.6008C25.7506 19.0223 26.034 19.497 26.2563 19.8887L27.0371 21.2706C27.2298 21.6096 27.422 22.0164 27.6068 22.3699C27.3531 22.6316 25.5764 23.514 25.1119 23.768L22.2777 25.3446C21.6586 25.6823 16.0642 28.7635 15.9935 28.7545C15.7236 28.3673 15.6036 28.0679 15.3801 27.6738C14.9889 26.9844 14.5821 26.2956 14.2153 25.5923C14.1521 25.4711 13.9074 25.0732 13.8771 24.9748C14.235 24.7382 14.5514 24.5306 14.9402 24.3441C15.1738 24.6805 15.3986 25.125 15.5983 25.493C15.8791 26.01 16.1644 26.5246 16.4543 27.0365C16.6824 26.8653 17.2834 26.5496 17.5446 26.4074C18.2276 26.0437 18.9078 25.6745 19.585 25.3C20.9695 24.5285 22.3591 23.7661 23.7536 23.0128C24.3338 22.6984 25.0301 22.2837 25.6152 22.0066C25.2372 21.2257 24.7905 20.471 24.3789 19.707C24.3062 19.5721 24.2321 19.4406 24.1478 19.3125C24.5795 19.1127 25.0989 18.7552 25.5578 18.5276C24.8655 17.3727 24.2642 16.1229 23.5633 14.9494C23.7496 14.8842 24.6165 14.4577 24.6689 14.3188C24.4477 13.7901 23.8001 12.7096 23.4991 12.1643L21.4528 8.41518C21.1308 7.85105 20.8152 7.28323 20.5063 6.7118C20.3363 6.40481 20.117 6.03518 19.9719 5.72447C19.6031 5.93256 19.2309 6.13463 18.8555 6.33058C18.6551 5.90018 18.2713 5.28889 18.0297 4.86123C17.5946 5.06718 17.0493 5.38716 16.6313 5.63394C16.852 5.91476 17.3925 6.98964 17.5835 7.34076C17.9742 8.05922 18.3893 8.76871 18.7771 9.48645C18.3925 9.69317 18.0046 9.8939 17.6136 10.0886C17.531 9.84348 16.7992 8.52554 16.6256 8.22473C16.0507 7.22876 15.4741 5.98506 14.84 5.05786C14.1164 5.45913 13.3893 5.85408 12.6587 6.24266C13.0912 7.09327 13.5821 7.94079 14.035 8.78181C14.2831 9.24263 14.5296 9.65642 14.7498 10.1335C14.4983 10.3055 13.935 10.5937 13.652 10.7484C13.061 9.5902 12.3935 8.46743 11.7724 7.32553C11.4803 6.78842 11.2063 6.2264 10.8795 5.70998C10.6668 5.78288 10.1599 6.07111 9.94214 6.19077C9.42326 6.47881 8.90045 6.75971 8.37387 7.03345C8.74273 7.8245 9.34886 8.79433 9.77152 9.57628C10.0715 10.141 10.3753 10.7036 10.6828 11.2643C10.8016 11.4819 11.0295 11.9272 11.1643 12.098C10.8102 12.3091 10.3837 12.5285 10.0155 12.7225C9.75194 12.1527 9.4202 11.6262 9.12032 11.0782C8.83092 10.5494 8.54837 10.0194 8.25727 9.49075L5.21071 3.93759C4.76285 3.11607 4.25579 2.23807 3.83398 1.41358Z" fill="black"/>
<path d="M1.60814 2.64331C2.40545 4.18095 3.30698 5.73741 4.14094 7.25925L10.4254 18.7195C10.101 18.8989 9.59938 19.1934 9.27391 19.3253C9.15682 19.0451 8.94302 18.6706 8.79337 18.3949L7.83918 16.6632C7.68855 16.3908 7.46578 16.0119 7.33641 15.7401C6.93408 15.9836 6.62036 16.1562 6.2005 16.3735C6.14176 16.2218 5.64375 15.2187 5.55108 15.1603C5.71115 15.1393 6.49442 14.7276 6.62988 14.5813C6.7191 14.485 6.45269 14.0737 6.37859 13.9344L3.97504 9.51481C3.72488 9.06195 3.42754 8.60066 3.18044 8.14172C3.04191 7.88442 2.91818 7.62465 2.77993 7.36663L1.85487 5.67654C1.65818 5.31692 0.613784 3.5089 0.592773 3.27617C0.663432 3.14741 1.43354 2.73382 1.60814 2.64331Z" fill="black"/>
<path d="M1.3125 16.0086C1.83972 15.5893 2.73079 15.2385 3.32308 14.8825C3.55616 14.7424 4.74572 14.05 4.90552 14.093C5.04172 14.2296 5.44189 14.9506 5.54058 15.1522C5.40408 15.2661 5.07363 15.4402 4.90825 15.5326L3.71032 16.1962C3.52835 16.2955 3.23738 16.4379 3.07242 16.5467C3.46352 17.3417 3.95718 18.1136 4.36168 18.9114C4.09087 19.0319 3.56827 19.422 3.29363 19.4257C3.10756 19.4282 1.6362 16.3427 1.32066 16.0169L1.3125 16.0086Z" fill="black"/>
<path d="M6.16064 19.5213C6.539 19.2215 7.18409 19.0016 7.52034 18.72C7.84677 19.36 8.25714 20.0135 8.59046 20.6556C8.69519 20.8573 8.91315 21.2092 8.99069 21.4046C8.54721 21.5363 8.08149 21.9929 7.67409 22.0813C7.45488 21.9754 7.06296 21.0679 6.91681 20.824C6.66194 20.3985 6.38454 19.9626 6.16064 19.5213Z" fill="black"/>
<path d="M11.4141 23.1647C11.5394 23.129 12.4266 22.6634 12.5703 22.5718C12.7508 23.0638 13.2511 23.8027 13.4916 24.2902C13.5738 24.457 13.7561 24.7423 13.799 24.916C13.6019 25.0431 12.9593 25.468 12.7544 25.4302C12.6059 25.2867 11.6001 23.4846 11.4141 23.1647Z" fill="black"/>
<path d="M9.03027 21.4208C9.27328 21.2357 9.82461 20.9605 10.1196 20.7996C10.3996 21.3332 10.7069 21.8609 10.9923 22.3918C11.0686 22.5337 11.3411 23.0088 11.3749 23.1365C11.2004 23.3006 10.5389 23.633 10.3095 23.737C9.90361 22.9235 9.44524 22.2134 9.03027 21.4208Z" fill="black"/>
<path d="M1.60821 2.64309C1.56868 2.39806 1.01463 1.67862 1.04782 1.50723C1.0859 1.31058 2.98379 0.331593 3.13768 0.337675C3.26267 0.431043 3.77777 1.28916 3.8058 1.407C3.27714 1.78983 2.21813 2.24756 1.60821 2.64309Z" fill="black"/>
<path d="M5.4969 18.2903C5.59512 18.5686 6.10207 19.367 6.1088 19.5157C5.88111 19.5825 5.29196 19.9156 5.07493 20.0447C4.9019 19.8787 4.53169 19.1877 4.40771 18.9459C4.76914 18.6616 5.12341 18.5184 5.4969 18.2903Z" fill="black"/>
</g>
<defs>
<clipPath id="clip0_1007_976">
<rect width="28" height="28.9844" fill="white"/>
</clipPath>
</defs>
</svg>
