<svg width="3374" height="292" viewBox="0 0 3374 292" fill="none" xmlns="http://www.w3.org/2000/svg">
<mask id="path-1-outside-1_1116_141" maskUnits="userSpaceOnUse" x="-0.79834" y="-0.600098" width="3375" height="292" fill="black">
<rect fill="white" x="-0.79834" y="-0.600098" width="3375" height="292"/>
<path d="M262.2 287.4H183.8L79.4001 129.8V287.4H1.0001L1.0001 5.39989H79.4001L183.8 165V5.39989H262.2V287.4ZM442.059 290.2C415.659 290.2 391.393 284.067 369.259 271.8C347.126 259.267 329.526 242.067 316.459 220.2C303.659 198.067 297.259 173.133 297.259 145.4C297.259 117.667 303.659 92.8666 316.459 70.9999C329.526 48.8666 347.126 31.6666 369.259 19.3999C391.393 7.13323 415.659 0.999894 442.059 0.999894C468.726 0.999894 492.993 7.13323 514.859 19.3999C536.993 31.6666 554.459 48.8666 567.259 70.9999C580.059 92.8666 586.459 117.667 586.459 145.4C586.459 173.133 580.059 198.067 567.259 220.2C554.459 242.067 536.993 259.267 514.859 271.8C492.726 284.067 468.459 290.2 442.059 290.2ZM442.059 217.4C462.059 217.4 477.793 210.867 489.259 197.8C500.993 184.733 506.859 167.267 506.859 145.4C506.859 123 500.993 105.4 489.259 92.5999C477.793 79.5332 462.059 72.9999 442.059 72.9999C421.793 72.9999 405.926 79.5332 394.459 92.5999C382.993 105.4 377.259 123 377.259 145.4C377.259 167.533 382.993 185.133 394.459 198.2C405.926 211 421.793 217.4 442.059 217.4ZM728.103 290.2C695.303 290.2 668.37 282.467 647.303 267C626.237 251.267 614.903 228.867 613.303 199.8H696.903C697.703 209.667 700.637 216.867 705.703 221.4C710.77 225.933 717.303 228.2 725.303 228.2C732.503 228.2 738.37 226.467 742.903 223C747.703 219.267 750.103 214.2 750.103 207.8C750.103 199.533 746.237 193.133 738.503 188.6C730.77 184.067 718.237 179 700.903 173.4C682.503 167.267 667.57 161.4 656.103 155.8C644.903 149.933 635.037 141.533 626.503 130.6C618.237 119.4 614.103 104.867 614.103 86.9999C614.103 68.8666 618.637 53.3999 627.703 40.5999C636.77 27.5332 649.303 17.6666 665.303 10.9999C681.303 4.33322 699.437 0.999894 719.703 0.999894C752.503 0.999894 778.637 8.73322 798.103 24.1999C817.837 39.3999 828.37 60.8666 829.703 88.5999H744.503C744.237 80.0666 741.57 73.6666 736.503 69.3999C731.703 65.1332 725.437 62.9999 717.703 62.9999C711.837 62.9999 707.037 64.7332 703.303 68.1999C699.57 71.6666 697.703 76.5999 697.703 82.9999C697.703 88.3332 699.703 92.9999 703.703 96.9999C707.97 100.733 713.17 104.067 719.303 107C725.437 109.667 734.503 113.133 746.503 117.4C764.37 123.533 779.037 129.667 790.503 135.8C802.237 141.667 812.237 150.067 820.503 161C829.037 171.667 833.303 185.267 833.303 201.8C833.303 218.6 829.037 233.667 820.503 247C812.237 260.333 800.103 270.867 784.103 278.6C768.37 286.333 749.703 290.2 728.103 290.2ZM976.15 290.2C943.35 290.2 916.417 282.467 895.35 267C874.283 251.267 862.95 228.867 861.35 199.8H944.95C945.75 209.667 948.683 216.867 953.75 221.4C958.817 225.933 965.35 228.2 973.35 228.2C980.55 228.2 986.417 226.467 990.95 223C995.75 219.267 998.15 214.2 998.15 207.8C998.15 199.533 994.283 193.133 986.55 188.6C978.817 184.067 966.283 179 948.95 173.4C930.55 167.267 915.617 161.4 904.15 155.8C892.95 149.933 883.083 141.533 874.55 130.6C866.283 119.4 862.15 104.867 862.15 86.9999C862.15 68.8666 866.683 53.3999 875.75 40.5999C884.817 27.5332 897.35 17.6666 913.35 10.9999C929.35 4.33322 947.483 0.999894 967.75 0.999894C1000.55 0.999894 1026.68 8.73322 1046.15 24.1999C1065.88 39.3999 1076.42 60.8666 1077.75 88.5999H992.55C992.283 80.0666 989.617 73.6666 984.55 69.3999C979.75 65.1332 973.483 62.9999 965.75 62.9999C959.883 62.9999 955.083 64.7332 951.35 68.1999C947.617 71.6666 945.75 76.5999 945.75 82.9999C945.75 88.3332 947.75 92.9999 951.75 96.9999C956.017 100.733 961.217 104.067 967.35 107C973.483 109.667 982.55 113.133 994.55 117.4C1012.42 123.533 1027.08 129.667 1038.55 135.8C1050.28 141.667 1060.28 150.067 1068.55 161C1077.08 171.667 1081.35 185.267 1081.35 201.8C1081.35 218.6 1077.08 233.667 1068.55 247C1060.28 260.333 1048.15 270.867 1032.15 278.6C1016.42 286.333 997.75 290.2 976.15 290.2ZM1253 290.2C1226.6 290.2 1202.33 284.067 1180.2 271.8C1158.06 259.267 1140.46 242.067 1127.4 220.2C1114.6 198.067 1108.2 173.133 1108.2 145.4C1108.2 117.667 1114.6 92.8666 1127.4 70.9999C1140.46 48.8666 1158.06 31.6666 1180.2 19.3999C1202.33 7.13323 1226.6 0.999894 1253 0.999894C1279.66 0.999894 1303.93 7.13323 1325.8 19.3999C1347.93 31.6666 1365.4 48.8666 1378.2 70.9999C1391 92.8666 1397.4 117.667 1397.4 145.4C1397.4 173.133 1391 198.067 1378.2 220.2C1365.4 242.067 1347.93 259.267 1325.8 271.8C1303.66 284.067 1279.4 290.2 1253 290.2ZM1253 217.4C1273 217.4 1288.73 210.867 1300.2 197.8C1311.93 184.733 1317.8 167.267 1317.8 145.4C1317.8 123 1311.93 105.4 1300.2 92.5999C1288.73 79.5332 1273 72.9999 1253 72.9999C1232.73 72.9999 1216.86 79.5332 1205.4 92.5999C1193.93 105.4 1188.2 123 1188.2 145.4C1188.2 167.533 1193.93 185.133 1205.4 198.2C1216.86 211 1232.73 217.4 1253 217.4ZM1539.04 290.2C1506.24 290.2 1479.31 282.467 1458.24 267C1437.17 251.267 1425.84 228.867 1424.24 199.8H1507.84C1508.64 209.667 1511.57 216.867 1516.64 221.4C1521.71 225.933 1528.24 228.2 1536.24 228.2C1543.44 228.2 1549.31 226.467 1553.84 223C1558.64 219.267 1561.04 214.2 1561.04 207.8C1561.04 199.533 1557.17 193.133 1549.44 188.6C1541.71 184.067 1529.17 179 1511.84 173.4C1493.44 167.267 1478.51 161.4 1467.04 155.8C1455.84 149.933 1445.97 141.533 1437.44 130.6C1429.17 119.4 1425.04 104.867 1425.04 86.9999C1425.04 68.8666 1429.57 53.3999 1438.64 40.5999C1447.71 27.5332 1460.24 17.6666 1476.24 10.9999C1492.24 4.33322 1510.37 0.999894 1530.64 0.999894C1563.44 0.999894 1589.57 8.73322 1609.04 24.1999C1628.77 39.3999 1639.31 60.8666 1640.64 88.5999H1555.44C1555.17 80.0666 1552.51 73.6666 1547.44 69.3999C1542.64 65.1332 1536.37 62.9999 1528.64 62.9999C1522.77 62.9999 1517.97 64.7332 1514.24 68.1999C1510.51 71.6666 1508.64 76.5999 1508.64 82.9999C1508.64 88.3332 1510.64 92.9999 1514.64 96.9999C1518.91 100.733 1524.11 104.067 1530.24 107C1536.37 109.667 1545.44 113.133 1557.44 117.4C1575.31 123.533 1589.97 129.667 1601.44 135.8C1613.17 141.667 1623.17 150.067 1631.44 161C1639.97 171.667 1644.24 185.267 1644.24 201.8C1644.24 218.6 1639.97 233.667 1631.44 247C1623.17 260.333 1611.04 270.867 1595.04 278.6C1579.31 286.333 1560.64 290.2 1539.04 290.2ZM1935.65 241.4H1835.65L1820.45 287.4H1738.05L1840.85 5.39989H1931.25L2033.65 287.4H1950.85L1935.65 241.4ZM1916.05 181.4L1885.65 90.1999L1855.65 181.4H1916.05ZM2137.6 227.4H2225.2V287.4H2059.2V5.39989H2137.6V227.4ZM2332.49 5.39989V169C2332.49 184.2 2335.95 195.933 2342.89 204.2C2350.09 212.467 2360.89 216.6 2375.29 216.6C2389.69 216.6 2400.49 212.467 2407.69 204.2C2415.15 195.667 2418.89 183.933 2418.89 169V5.39989H2497.29V169C2497.29 194.867 2491.82 217 2480.89 235.4C2469.95 253.533 2455.02 267.267 2436.09 276.6C2417.42 285.667 2396.62 290.2 2373.69 290.2C2350.75 290.2 2330.22 285.667 2312.09 276.6C2294.22 267.267 2280.09 253.533 2269.69 235.4C2259.55 217.267 2254.49 195.133 2254.49 169V5.39989H2332.49ZM2801.65 287.4H2723.25L2618.85 129.8V287.4H2540.45V5.39989H2618.85L2723.25 165V5.39989H2801.65V287.4ZM2981.51 290.2C2955.11 290.2 2930.85 284.067 2908.71 271.8C2886.58 259.267 2868.98 242.067 2855.91 220.2C2843.11 198.067 2836.71 173.133 2836.71 145.4C2836.71 117.667 2843.11 92.8666 2855.91 70.9999C2868.98 48.8666 2886.58 31.6666 2908.71 19.3999C2930.85 7.13323 2955.11 0.999894 2981.51 0.999894C3008.18 0.999894 3032.45 7.13323 3054.31 19.3999C3076.45 31.6666 3093.91 48.8666 3106.71 70.9999C3119.51 92.8666 3125.91 117.667 3125.91 145.4C3125.91 173.133 3119.51 198.067 3106.71 220.2C3093.91 242.067 3076.45 259.267 3054.31 271.8C3032.18 284.067 3007.91 290.2 2981.51 290.2ZM2981.51 217.4C3001.51 217.4 3017.25 210.867 3028.71 197.8C3040.45 184.733 3046.31 167.267 3046.31 145.4C3046.31 123 3040.45 105.4 3028.71 92.5999C3017.25 79.5332 3001.51 72.9999 2981.51 72.9999C2961.25 72.9999 2945.38 79.5332 2933.91 92.5999C2922.45 105.4 2916.71 123 2916.71 145.4C2916.71 167.533 2922.45 185.133 2933.91 198.2C2945.38 211 2961.25 217.4 2981.51 217.4ZM3267.56 290.2C3234.76 290.2 3207.82 282.467 3186.76 267C3165.69 251.267 3154.36 228.867 3152.76 199.8H3236.36C3237.16 209.667 3240.09 216.867 3245.16 221.4C3250.22 225.933 3256.76 228.2 3264.76 228.2C3271.96 228.2 3277.82 226.467 3282.36 223C3287.16 219.267 3289.56 214.2 3289.56 207.8C3289.56 199.533 3285.69 193.133 3277.96 188.6C3270.22 184.067 3257.69 179 3240.36 173.4C3221.96 167.267 3207.02 161.4 3195.56 155.8C3184.36 149.933 3174.49 141.533 3165.96 130.6C3157.69 119.4 3153.56 104.867 3153.56 86.9999C3153.56 68.8666 3158.09 53.3999 3167.16 40.5999C3176.22 27.5332 3188.76 17.6666 3204.76 10.9999C3220.76 4.33322 3238.89 0.999894 3259.16 0.999894C3291.96 0.999894 3318.09 8.73322 3337.56 24.1999C3357.29 39.3999 3367.82 60.8666 3369.16 88.5999H3283.96C3283.69 80.0666 3281.02 73.6666 3275.96 69.3999C3271.16 65.1332 3264.89 62.9999 3257.16 62.9999C3251.29 62.9999 3246.49 64.7332 3242.76 68.1999C3239.02 71.6666 3237.16 76.5999 3237.16 82.9999C3237.16 88.3332 3239.16 92.9999 3243.16 96.9999C3247.42 100.733 3252.62 104.067 3258.76 107C3264.89 109.667 3273.96 113.133 3285.96 117.4C3303.82 123.533 3318.49 129.667 3329.96 135.8C3341.69 141.667 3351.69 150.067 3359.96 161C3368.49 171.667 3372.76 185.267 3372.76 201.8C3372.76 218.6 3368.49 233.667 3359.96 247C3351.69 260.333 3339.56 270.867 3323.56 278.6C3307.82 286.333 3289.16 290.2 3267.56 290.2Z"/>
</mask>
<path d="M262.2 287.4V288.4H263.2V287.4H262.2ZM183.8 287.4L182.966 287.952L183.263 288.4H183.8V287.4ZM79.4001 129.8L80.2338 129.248L78.4001 126.48V129.8H79.4001ZM79.4001 287.4V288.4H80.4001V287.4H79.4001ZM1.0001 287.4H9.91821e-05V288.4H1.0001V287.4ZM1.0001 5.39987V4.39987H9.91821e-05V5.39987H1.0001ZM79.4001 5.39987L80.237 4.85248L79.9409 4.39987H79.4001V5.39987ZM183.8 165L182.963 165.547L184.8 168.355V165H183.8ZM183.8 5.39987V4.39987H182.8V5.39987H183.8ZM262.2 5.39987H263.2V4.39987H262.2V5.39987ZM262.2 287.4V286.4H183.8V287.4V288.4H262.2V287.4ZM183.8 287.4L184.634 286.848L80.2338 129.248L79.4001 129.8L78.5664 130.352L182.966 287.952L183.8 287.4ZM79.4001 129.8H78.4001V287.4H79.4001H80.4001V129.8H79.4001ZM79.4001 287.4V286.4H1.0001V287.4V288.4H79.4001V287.4ZM1.0001 287.4H2.0001L2.0001 5.39987H1.0001H9.91821e-05L9.91821e-05 287.4H1.0001ZM1.0001 5.39987V6.39987H79.4001V5.39987V4.39987H1.0001V5.39987ZM79.4001 5.39987L78.5632 5.9473L182.963 165.547L183.8 165L184.637 164.452L80.237 4.85248L79.4001 5.39987ZM183.8 165H184.8V5.39987H183.8H182.8V165H183.8ZM183.8 5.39987V6.39987H262.2V5.39987V4.39987H183.8V5.39987ZM262.2 5.39987H261.2V287.4H262.2H263.2V5.39987H262.2ZM369.259 271.8L368.767 272.67L368.775 272.675L369.259 271.8ZM316.459 220.2L315.594 220.701L315.597 220.707L315.601 220.713L316.459 220.2ZM316.459 70.9999L315.598 70.4915L315.596 70.4947L316.459 70.9999ZM369.259 19.3999L369.744 20.2745L369.259 19.3999ZM514.859 19.3999L514.37 20.2721L514.375 20.2745L514.859 19.3999ZM567.26 70.9999L566.394 71.5005L566.396 71.5051L567.26 70.9999ZM567.26 220.2L568.122 220.705L568.125 220.701L567.26 220.2ZM514.859 271.8L515.344 272.675L515.352 272.67L514.859 271.8ZM489.259 197.8L488.515 197.132L488.508 197.14L489.259 197.8ZM489.259 92.5999L488.508 93.2595L488.515 93.2676L488.522 93.2756L489.259 92.5999ZM394.459 92.5999L395.204 93.2672L395.211 93.2595L394.459 92.5999ZM394.459 198.2L393.708 198.86L393.715 198.867L394.459 198.2ZM442.059 290.2V289.2C415.821 289.2 391.723 283.106 369.744 270.925L369.259 271.8L368.775 272.675C391.063 285.027 415.497 291.2 442.059 291.2V290.2ZM369.259 271.8L369.752 270.93C347.77 258.482 330.296 241.405 317.318 219.687L316.459 220.2L315.601 220.713C328.756 242.728 346.482 260.051 368.767 272.67L369.259 271.8ZM316.459 220.2L317.325 219.699C304.621 197.731 298.259 172.973 298.259 145.4H297.259H296.259C296.259 173.294 302.698 198.402 315.594 220.701L316.459 220.2ZM297.259 145.4H298.259C298.259 117.827 304.621 93.2042 317.322 71.5051L316.459 70.9999L315.596 70.4947C302.698 92.5289 296.259 117.506 296.259 145.4H297.259ZM316.459 70.9999L317.321 71.5083C330.298 49.5259 347.769 32.4534 369.744 20.2745L369.259 19.3999L368.775 18.5252C346.483 30.8797 328.754 48.2073 315.598 70.4915L316.459 70.9999ZM369.259 19.3999L369.744 20.2745C391.723 8.09372 415.821 1.99991 442.059 1.99991V0.999908V-9.15527e-05C415.497 -9.15527e-05 391.063 6.17276 368.775 18.5252L369.259 19.3999ZM442.059 0.999908V1.99991C468.566 1.99991 492.663 8.09454 514.37 20.272L514.859 19.3999L515.349 18.5277C493.323 6.17191 468.886 -9.15527e-05 442.059 -9.15527e-05V0.999908ZM514.859 19.3999L514.375 20.2745C536.348 32.4524 553.684 49.5224 566.394 71.5005L567.26 70.9999L568.125 70.4993C555.235 48.2108 537.638 30.8807 515.344 18.5252L514.859 19.3999ZM567.26 70.9999L566.396 71.5051C579.098 93.2042 585.459 117.827 585.459 145.4H586.459H587.459C587.459 117.506 581.021 92.5289 568.122 70.4947L567.26 70.9999ZM586.459 145.4H585.459C585.459 172.973 579.098 197.731 566.394 219.699L567.26 220.2L568.125 220.701C581.021 198.402 587.459 173.294 587.459 145.4H586.459ZM567.26 220.2L566.396 219.695C553.686 241.409 536.347 258.483 514.367 270.93L514.859 271.8L515.352 272.67C537.638 260.05 555.233 242.725 568.122 220.705L567.26 220.2ZM514.859 271.8L514.375 270.925C492.396 283.106 468.297 289.2 442.059 289.2V290.2V291.2C468.621 291.2 493.056 285.027 515.344 272.675L514.859 271.8ZM442.059 217.4V218.4C462.299 218.4 478.325 211.776 490.011 198.459L489.259 197.8L488.508 197.14C477.261 209.957 461.82 216.4 442.059 216.4V217.4ZM489.259 197.8L490.004 198.468C501.939 185.176 507.859 167.45 507.859 145.4H506.859H505.859C505.859 167.083 500.046 184.291 488.515 197.132L489.259 197.8ZM506.859 145.4H507.859C507.859 122.825 501.944 104.957 489.997 91.9242L489.259 92.5999L488.522 93.2756C500.042 105.843 505.859 123.175 505.859 145.4H506.859ZM489.259 92.5999L490.011 91.9403C478.325 78.6237 462.299 71.9999 442.059 71.9999V72.9999V73.9999C461.82 73.9999 477.261 80.4428 488.508 93.2595L489.259 92.5999ZM442.059 72.9999V71.9999C421.558 71.9999 405.397 78.6206 393.708 91.9403L394.459 92.5999L395.211 93.2595C406.456 80.4458 422.028 73.9999 442.059 73.9999V72.9999ZM394.459 92.5999L393.715 91.9326C382.039 104.966 376.259 122.83 376.259 145.4H377.259H378.259C378.259 123.17 383.947 105.834 395.204 93.2671L394.459 92.5999ZM377.259 145.4H376.259C376.259 167.708 382.041 185.565 393.708 198.859L394.459 198.2L395.211 197.54C383.944 184.702 378.259 167.359 378.259 145.4H377.259ZM394.459 198.2L393.715 198.867C405.405 211.917 421.564 218.4 442.059 218.4V217.4V216.4C422.021 216.4 406.447 210.083 395.204 197.533L394.459 198.2ZM647.303 267L646.705 267.801L646.711 267.806L647.303 267ZM613.303 199.8V198.8H612.247L612.305 199.855L613.303 199.8ZM696.903 199.8L697.9 199.719L697.825 198.8H696.903V199.8ZM705.703 221.4L705.036 222.145V222.145L705.703 221.4ZM742.903 223L743.511 223.794L743.517 223.789L742.903 223ZM738.503 188.6L739.009 187.737V187.737L738.503 188.6ZM700.903 173.4L700.587 174.349L700.596 174.351L700.903 173.4ZM656.103 155.8L655.639 156.686L655.652 156.692L655.664 156.698L656.103 155.8ZM626.503 130.6L625.699 131.194L625.707 131.205L625.715 131.215L626.503 130.6ZM627.703 40.5999L628.519 41.1779L628.525 41.17L627.703 40.5999ZM665.303 10.9999L664.919 10.0768V10.0768L665.303 10.9999ZM798.103 24.1999L797.481 24.9828L797.487 24.9875L797.493 24.9921L798.103 24.1999ZM829.703 88.5999V89.5999H830.752L830.702 88.5519L829.703 88.5999ZM744.503 88.5999L743.504 88.6311L743.534 89.5999H744.503V88.5999ZM736.503 69.3999L735.839 70.1473L735.849 70.1562L735.859 70.1648L736.503 69.3999ZM703.303 68.1999L703.984 68.9327V68.9327L703.303 68.1999ZM703.703 96.9999L702.996 97.707L703.02 97.7305L703.045 97.7525L703.703 96.9999ZM719.303 107L718.872 107.902L718.888 107.91L718.904 107.917L719.303 107ZM746.503 117.4L746.168 118.342L746.179 118.346L746.503 117.4ZM790.503 135.8L790.032 136.682L790.044 136.688L790.056 136.694L790.503 135.8ZM820.503 161L819.706 161.603L819.714 161.614L819.722 161.625L820.503 161ZM820.503 247L819.661 246.461L819.657 246.467L819.653 246.473L820.503 247ZM784.103 278.6L783.668 277.7L783.662 277.702L784.103 278.6ZM728.103 290.2V289.2C695.461 289.2 668.751 281.505 647.895 266.194L647.303 267L646.711 267.806C667.989 283.428 695.145 291.2 728.103 291.2V290.2ZM647.303 267L647.902 266.199C627.1 250.663 615.887 228.552 614.302 199.745L613.303 199.8L612.305 199.855C613.919 229.181 625.374 251.87 646.705 267.801L647.303 267ZM613.303 199.8V200.8H696.903V199.8V198.8H613.303V199.8ZM696.903 199.8L695.906 199.881C696.718 209.887 699.707 217.377 705.036 222.145L705.703 221.4L706.37 220.655C701.566 216.357 698.689 209.446 697.9 199.719L696.903 199.8ZM705.703 221.4L705.036 222.145C710.318 226.871 717.103 229.2 725.303 229.2V228.2V227.2C717.503 227.2 711.222 224.996 706.37 220.655L705.703 221.4ZM725.303 228.2V229.2C732.665 229.2 738.762 227.426 743.511 223.794L742.903 223L742.296 222.206C737.978 225.507 732.342 227.2 725.303 227.2V228.2ZM742.903 223L743.517 223.789C748.575 219.855 751.103 214.49 751.103 207.8H750.103H749.103C749.103 213.91 746.831 218.678 742.289 222.211L742.903 223ZM750.103 207.8H751.103C751.103 199.143 747.017 192.432 739.009 187.737L738.503 188.6L737.997 189.463C745.456 193.835 749.103 199.923 749.103 207.8H750.103ZM738.503 188.6L739.009 187.737C731.177 183.146 718.558 178.053 701.211 172.448L700.903 173.4L700.596 174.351C717.916 179.947 730.363 184.987 737.997 189.463L738.503 188.6ZM700.903 173.4L701.219 172.451C682.842 166.325 667.954 160.475 656.542 154.901L656.103 155.8L655.664 156.698C667.186 162.325 682.164 168.208 700.587 174.349L700.903 173.4ZM656.103 155.8L656.567 154.914C645.505 149.12 635.746 140.817 627.292 129.985L626.503 130.6L625.715 131.215C634.327 142.25 644.301 150.747 655.639 156.686L656.103 155.8ZM626.503 130.6L627.308 130.006C619.2 119.021 615.103 104.714 615.103 86.9999H614.103H613.103C613.103 105.019 617.273 119.779 625.699 131.194L626.503 130.6ZM614.103 86.9999H615.103C615.103 69.0403 619.59 53.7836 628.519 41.1779L627.703 40.5999L626.887 40.0219C617.683 53.0162 613.103 68.6929 613.103 86.9999H614.103ZM627.703 40.5999L628.525 41.17C637.473 28.2744 649.848 18.523 665.688 11.923L665.303 10.9999L664.919 10.0768C648.759 16.8101 636.067 26.7921 626.882 40.0298L627.703 40.5999ZM665.303 10.9999L665.688 11.923C681.547 5.31491 699.547 1.99991 719.703 1.99991V0.999908V-9.15527e-05C699.327 -9.15527e-05 681.059 3.35153 664.919 10.0768L665.303 10.9999ZM719.703 0.999908V1.99991C752.35 1.99991 778.241 9.69595 797.481 24.9828L798.103 24.1999L798.725 23.4169C779.032 7.77048 752.657 -9.15527e-05 719.703 -9.15527e-05V0.999908ZM798.103 24.1999L797.493 24.9921C816.966 39.9912 827.383 61.1699 828.704 88.6479L829.703 88.5999L830.702 88.5519C829.356 60.5633 818.708 38.8086 798.713 23.4077L798.103 24.1999ZM829.703 88.5999V87.5999H744.503V88.5999V89.5999H829.703V88.5999ZM744.503 88.5999L745.503 88.5687C745.23 79.8387 742.49 73.1342 737.147 68.635L736.503 69.3999L735.859 70.1648C740.65 74.1989 743.243 80.2944 743.504 88.6311L744.503 88.5999ZM736.503 69.3999L737.168 68.6525C732.149 64.1913 725.629 61.9999 717.703 61.9999V62.9999V63.9999C725.244 63.9999 731.258 66.0751 735.839 70.1473L736.503 69.3999ZM717.703 62.9999V61.9999C711.625 61.9999 706.569 63.8027 702.623 67.4671L703.303 68.1999L703.984 68.9327C707.504 65.6638 712.048 63.9999 717.703 63.9999V62.9999ZM703.303 68.1999L702.623 67.4671C698.636 71.1692 696.703 76.3978 696.703 82.9999H697.703H698.703C698.703 76.8019 700.504 72.164 703.984 68.9327L703.303 68.1999ZM697.703 82.9999H696.703C696.703 88.6158 698.821 93.5321 702.996 97.707L703.703 96.9999L704.41 96.2928C700.585 92.4677 698.703 88.0507 698.703 82.9999H697.703ZM703.703 96.9999L703.045 97.7525C707.392 101.556 712.672 104.937 718.872 107.902L719.303 107L719.735 106.098C713.668 103.196 708.548 99.9102 704.362 96.2473L703.703 96.9999ZM719.303 107L718.904 107.917C725.07 110.598 734.162 114.073 746.168 118.342L746.503 117.4L746.838 116.458C734.844 112.193 725.803 108.736 719.702 106.083L719.303 107ZM746.503 117.4L746.179 118.346C764.015 124.469 778.628 130.582 790.032 136.682L790.503 135.8L790.975 134.918C779.445 128.751 764.725 122.598 746.828 116.454L746.503 117.4ZM790.503 135.8L790.056 136.694C801.645 142.489 811.527 150.787 819.706 161.603L820.503 161L821.301 160.397C812.946 149.346 802.828 140.844 790.95 134.905L790.503 135.8ZM820.503 161L819.722 161.625C828.086 172.079 832.303 185.444 832.303 201.8H833.303H834.303C834.303 185.089 829.987 171.254 821.284 160.375L820.503 161ZM833.303 201.8H832.303C832.303 218.421 828.085 233.298 819.661 246.461L820.503 247L821.346 247.539C829.988 234.035 834.303 218.779 834.303 201.8H833.303ZM820.503 247L819.653 246.473C811.5 259.624 799.521 270.038 783.668 277.7L784.103 278.6L784.538 279.5C800.686 271.696 812.974 261.042 821.353 247.527L820.503 247ZM784.103 278.6L783.662 277.702C768.094 285.354 749.585 289.2 728.103 289.2V290.2V291.2C749.821 291.2 768.646 287.312 784.544 279.497L784.103 278.6ZM895.35 267L894.752 267.801L894.758 267.806L895.35 267ZM861.35 199.8V198.8H860.294L860.352 199.855L861.35 199.8ZM944.95 199.8L945.947 199.719L945.872 198.8H944.95V199.8ZM953.75 221.4L953.083 222.145V222.145L953.75 221.4ZM990.95 223L991.558 223.794L991.564 223.789L990.95 223ZM986.55 188.6L987.056 187.737V187.737L986.55 188.6ZM948.95 173.4L948.634 174.349L948.643 174.351L948.95 173.4ZM904.15 155.8L903.686 156.686L903.699 156.692L903.711 156.698L904.15 155.8ZM874.55 130.6L873.746 131.194L873.754 131.205L873.762 131.215L874.55 130.6ZM875.75 40.5999L876.566 41.1779L876.572 41.17L875.75 40.5999ZM913.35 10.9999L912.965 10.0768V10.0768L913.35 10.9999ZM1046.15 24.1999L1045.53 24.9828L1045.53 24.9875L1045.54 24.9921L1046.15 24.1999ZM1077.75 88.5999V89.5999H1078.8L1078.75 88.5519L1077.75 88.5999ZM992.55 88.5999L991.551 88.6311L991.581 89.5999H992.55V88.5999ZM984.55 69.3999L983.886 70.1473L983.896 70.1562L983.906 70.1648L984.55 69.3999ZM951.35 68.1999L952.031 68.9327V68.9327L951.35 68.1999ZM951.75 96.9999L951.043 97.707L951.067 97.7305L951.092 97.7525L951.75 96.9999ZM967.35 107L966.919 107.902L966.935 107.91L966.951 107.917L967.35 107ZM994.55 117.4L994.215 118.342L994.225 118.346L994.55 117.4ZM1038.55 135.8L1038.08 136.682L1038.09 136.688L1038.1 136.694L1038.55 135.8ZM1068.55 161L1067.75 161.603L1067.76 161.614L1067.77 161.625L1068.55 161ZM1068.55 247L1067.71 246.461L1067.7 246.467L1067.7 246.473L1068.55 247ZM1032.15 278.6L1031.71 277.7L1031.71 277.702L1032.15 278.6ZM976.15 290.2V289.2C943.508 289.2 916.797 281.505 895.942 266.194L895.35 267L894.758 267.806C916.036 283.428 943.192 291.2 976.15 291.2V290.2ZM895.35 267L895.948 266.199C875.146 250.663 863.934 228.552 862.349 199.745L861.35 199.8L860.352 199.855C861.966 229.181 873.42 251.87 894.752 267.801L895.35 267ZM861.35 199.8V200.8H944.95V199.8V198.8H861.35V199.8ZM944.95 199.8L943.953 199.881C944.765 209.887 947.754 217.377 953.083 222.145L953.75 221.4L954.417 220.655C949.613 216.357 946.735 209.446 945.947 199.719L944.95 199.8ZM953.75 221.4L953.083 222.145C958.365 226.871 965.15 229.2 973.35 229.2V228.2V227.2C965.55 227.2 959.269 224.996 954.417 220.655L953.75 221.4ZM973.35 228.2V229.2C980.711 229.2 986.809 227.426 991.558 223.794L990.95 223L990.343 222.206C986.025 225.507 980.389 227.2 973.35 227.2V228.2ZM990.95 223L991.564 223.789C996.622 219.855 999.15 214.49 999.15 207.8H998.15H997.15C997.15 213.91 994.878 218.678 990.336 222.211L990.95 223ZM998.15 207.8H999.15C999.15 199.143 995.064 192.432 987.056 187.737L986.55 188.6L986.044 189.463C993.503 193.835 997.15 199.923 997.15 207.8H998.15ZM986.55 188.6L987.056 187.737C979.224 183.146 966.604 178.053 949.258 172.448L948.95 173.4L948.643 174.351C965.962 179.947 978.409 184.987 986.044 189.463L986.55 188.6ZM948.95 173.4L949.266 172.451C930.889 166.325 916.001 160.475 904.589 154.901L904.15 155.8L903.711 156.698C915.232 162.325 930.211 168.208 948.634 174.349L948.95 173.4ZM904.15 155.8L904.614 154.914C893.552 149.12 883.793 140.817 875.338 129.985L874.55 130.6L873.762 131.215C882.374 142.25 892.348 150.747 903.686 156.686L904.15 155.8ZM874.55 130.6L875.355 130.006C867.247 119.021 863.15 104.714 863.15 86.9999H862.15H861.15C861.15 105.019 865.32 119.779 873.746 131.194L874.55 130.6ZM862.15 86.9999H863.15C863.15 69.0403 867.637 53.7836 876.566 41.1779L875.75 40.5999L874.934 40.0219C865.73 53.0162 861.15 68.6929 861.15 86.9999H862.15ZM875.75 40.5999L876.572 41.17C885.52 28.2744 897.895 18.523 913.735 11.923L913.35 10.9999L912.965 10.0768C896.806 16.8101 884.114 26.7921 874.929 40.0298L875.75 40.5999ZM913.35 10.9999L913.735 11.923C929.594 5.31491 947.593 1.99991 967.75 1.99991V0.999908V-9.15527e-05C947.373 -9.15527e-05 929.106 3.35153 912.965 10.0768L913.35 10.9999ZM967.75 0.999908V1.99991C1000.4 1.99991 1026.29 9.69595 1045.53 24.9828L1046.15 24.1999L1046.77 23.4169C1027.08 7.77048 1000.7 -9.15527e-05 967.75 -9.15527e-05V0.999908ZM1046.15 24.1999L1045.54 24.9921C1065.01 39.9912 1075.43 61.1699 1076.75 88.6479L1077.75 88.5999L1078.75 88.5519C1077.4 60.5633 1066.75 38.8086 1046.76 23.4077L1046.15 24.1999ZM1077.75 88.5999V87.5999H992.55V88.5999V89.5999H1077.75V88.5999ZM992.55 88.5999L993.55 88.5687C993.277 79.8387 990.537 73.1342 985.194 68.635L984.55 69.3999L983.906 70.1648C988.696 74.1989 991.29 80.2944 991.551 88.6311L992.55 88.5999ZM984.55 69.3999L985.214 68.6525C980.196 64.1913 973.676 61.9999 965.75 61.9999V62.9999V63.9999C973.291 63.9999 979.305 66.0751 983.886 70.1473L984.55 69.3999ZM965.75 62.9999V61.9999C959.672 61.9999 954.616 63.8027 950.67 67.4671L951.35 68.1999L952.031 68.9327C955.551 65.6638 960.095 63.9999 965.75 63.9999V62.9999ZM951.35 68.1999L950.67 67.4671C946.683 71.1692 944.75 76.3978 944.75 82.9999H945.75H946.75C946.75 76.8019 948.551 72.164 952.031 68.9327L951.35 68.1999ZM945.75 82.9999H944.75C944.75 88.6158 946.868 93.5321 951.043 97.707L951.75 96.9999L952.457 96.2928C948.632 92.4677 946.75 88.0507 946.75 82.9999H945.75ZM951.75 96.9999L951.092 97.7525C955.439 101.556 960.719 104.937 966.919 107.902L967.35 107L967.782 106.098C961.715 103.196 956.595 99.9102 952.409 96.2473L951.75 96.9999ZM967.35 107L966.951 107.917C973.117 110.598 982.209 114.073 994.215 118.342L994.55 117.4L994.885 116.458C982.891 112.193 973.85 108.736 967.749 106.083L967.35 107ZM994.55 117.4L994.225 118.346C1012.06 124.469 1026.67 130.582 1038.08 136.682L1038.55 135.8L1039.02 134.918C1027.49 128.751 1012.77 122.598 994.875 116.454L994.55 117.4ZM1038.55 135.8L1038.1 136.694C1049.69 142.489 1059.57 150.787 1067.75 161.603L1068.55 161L1069.35 160.397C1060.99 149.346 1050.87 140.844 1039 134.905L1038.55 135.8ZM1068.55 161L1067.77 161.625C1076.13 172.079 1080.35 185.444 1080.35 201.8H1081.35H1082.35C1082.35 185.089 1078.03 171.254 1069.33 160.375L1068.55 161ZM1081.35 201.8H1080.35C1080.35 218.421 1076.13 233.298 1067.71 246.461L1068.55 247L1069.39 247.539C1078.04 234.035 1082.35 218.779 1082.35 201.8H1081.35ZM1068.55 247L1067.7 246.473C1059.55 259.624 1047.57 270.038 1031.71 277.7L1032.15 278.6L1032.59 279.5C1048.73 271.696 1061.02 261.042 1069.4 247.527L1068.55 247ZM1032.15 278.6L1031.71 277.702C1016.14 285.354 997.632 289.2 976.15 289.2V290.2V291.2C997.868 291.2 1016.69 287.312 1032.59 279.497L1032.15 278.6ZM1180.2 271.8L1179.7 272.67L1179.71 272.675L1180.2 271.8ZM1127.4 220.2L1126.53 220.701L1126.53 220.707L1126.54 220.713L1127.4 220.2ZM1127.4 70.9999L1126.54 70.4915L1126.53 70.4947L1127.4 70.9999ZM1180.2 19.3999L1180.68 20.2745L1180.2 19.3999ZM1325.8 19.3999L1325.31 20.2721L1325.31 20.2745L1325.8 19.3999ZM1378.2 70.9999L1377.33 71.5005L1377.33 71.5051L1378.2 70.9999ZM1378.2 220.2L1379.06 220.705L1379.06 220.701L1378.2 220.2ZM1325.8 271.8L1326.28 272.675L1326.29 272.67L1325.8 271.8ZM1300.2 197.8L1299.45 197.132L1299.45 197.14L1300.2 197.8ZM1300.2 92.5999L1299.45 93.2595L1299.45 93.2676L1299.46 93.2756L1300.2 92.5999ZM1205.4 92.5999L1206.14 93.2672L1206.15 93.2595L1205.4 92.5999ZM1205.4 198.2L1204.65 198.86L1204.65 198.867L1205.4 198.2ZM1253 290.2V289.2C1226.76 289.2 1202.66 283.106 1180.68 270.925L1180.2 271.8L1179.71 272.675C1202 285.027 1226.44 291.2 1253 291.2V290.2ZM1180.2 271.8L1180.69 270.93C1158.71 258.482 1141.23 241.405 1128.26 219.687L1127.4 220.2L1126.54 220.713C1139.69 242.728 1157.42 260.051 1179.7 272.67L1180.2 271.8ZM1127.4 220.2L1128.26 219.699C1115.56 197.731 1109.2 172.973 1109.2 145.4H1108.2H1107.2C1107.2 173.294 1113.64 198.402 1126.53 220.701L1127.4 220.2ZM1108.2 145.4H1109.2C1109.2 117.827 1115.56 93.2042 1128.26 71.5051L1127.4 70.9999L1126.53 70.4947C1113.64 92.5289 1107.2 117.506 1107.2 145.4H1108.2ZM1127.4 70.9999L1128.26 71.5083C1141.24 49.5259 1158.71 32.4534 1180.68 20.2745L1180.2 19.3999L1179.71 18.5252C1157.42 30.8797 1139.69 48.2073 1126.54 70.4915L1127.4 70.9999ZM1180.2 19.3999L1180.68 20.2745C1202.66 8.09372 1226.76 1.99991 1253 1.99991V0.999908V-9.15527e-05C1226.44 -9.15527e-05 1202 6.17276 1179.71 18.5252L1180.2 19.3999ZM1253 0.999908V1.99991C1279.5 1.99991 1303.6 8.09454 1325.31 20.272L1325.8 19.3999L1326.29 18.5277C1304.26 6.17191 1279.82 -9.15527e-05 1253 -9.15527e-05V0.999908ZM1325.8 19.3999L1325.31 20.2745C1347.29 32.4524 1364.62 49.5224 1377.33 71.5005L1378.2 70.9999L1379.06 70.4993C1366.17 48.2108 1348.58 30.8807 1326.28 18.5252L1325.8 19.3999ZM1378.2 70.9999L1377.33 71.5051C1390.04 93.2042 1396.4 117.827 1396.4 145.4H1397.4H1398.4C1398.4 117.506 1391.96 92.5289 1379.06 70.4947L1378.2 70.9999ZM1397.4 145.4H1396.4C1396.4 172.973 1390.04 197.731 1377.33 219.699L1378.2 220.2L1379.06 220.701C1391.96 198.402 1398.4 173.294 1398.4 145.4H1397.4ZM1378.2 220.2L1377.33 219.695C1364.62 241.409 1347.28 258.483 1325.3 270.93L1325.8 271.8L1326.29 272.67C1348.58 260.05 1366.17 242.725 1379.06 220.705L1378.2 220.2ZM1325.8 271.8L1325.31 270.925C1303.33 283.106 1279.23 289.2 1253 289.2V290.2V291.2C1279.56 291.2 1303.99 285.027 1326.28 272.675L1325.8 271.8ZM1253 217.4V218.4C1273.24 218.4 1289.26 211.776 1300.95 198.459L1300.2 197.8L1299.45 197.14C1288.2 209.957 1272.76 216.4 1253 216.4V217.4ZM1300.2 197.8L1300.94 198.468C1312.88 185.176 1318.8 167.45 1318.8 145.4H1317.8H1316.8C1316.8 167.083 1310.98 184.291 1299.45 197.132L1300.2 197.8ZM1317.8 145.4H1318.8C1318.8 122.825 1312.88 104.957 1300.93 91.9242L1300.2 92.5999L1299.46 93.2756C1310.98 105.843 1316.8 123.175 1316.8 145.4H1317.8ZM1300.2 92.5999L1300.95 91.9403C1289.26 78.6237 1273.24 71.9999 1253 71.9999V72.9999V73.9999C1272.76 73.9999 1288.2 80.4428 1299.45 93.2595L1300.2 92.5999ZM1253 72.9999V71.9999C1232.5 71.9999 1216.33 78.6206 1204.65 91.9403L1205.4 92.5999L1206.15 93.2595C1217.39 80.4458 1232.97 73.9999 1253 73.9999V72.9999ZM1205.4 92.5999L1204.65 91.9326C1192.98 104.966 1187.2 122.83 1187.2 145.4H1188.2H1189.2C1189.2 123.17 1194.88 105.834 1206.14 93.2671L1205.4 92.5999ZM1188.2 145.4H1187.2C1187.2 167.708 1192.98 185.565 1204.65 198.859L1205.4 198.2L1206.15 197.54C1194.88 184.702 1189.2 167.359 1189.2 145.4H1188.2ZM1205.4 198.2L1204.65 198.867C1216.34 211.917 1232.5 218.4 1253 218.4V217.4V216.4C1232.96 216.4 1217.38 210.083 1206.14 197.533L1205.4 198.2ZM1458.24 267L1457.64 267.801L1457.65 267.806L1458.24 267ZM1424.24 199.8V198.8H1423.18L1423.24 199.855L1424.24 199.8ZM1507.84 199.8L1508.84 199.719L1508.76 198.8H1507.84V199.8ZM1516.64 221.4L1515.97 222.145V222.145L1516.64 221.4ZM1553.84 223L1554.45 223.794L1554.45 223.789L1553.84 223ZM1549.44 188.6L1549.95 187.737V187.737L1549.44 188.6ZM1511.84 173.4L1511.52 174.349L1511.53 174.351L1511.84 173.4ZM1467.04 155.8L1466.58 156.686L1466.59 156.692L1466.6 156.698L1467.04 155.8ZM1437.44 130.6L1436.64 131.194L1436.64 131.205L1436.65 131.215L1437.44 130.6ZM1438.64 40.5999L1439.46 41.1779L1439.46 41.17L1438.64 40.5999ZM1476.24 10.9999L1475.86 10.0768V10.0768L1476.24 10.9999ZM1609.04 24.1999L1608.42 24.9828L1608.42 24.9875L1608.43 24.9921L1609.04 24.1999ZM1640.64 88.5999V89.5999H1641.69L1641.64 88.5519L1640.64 88.5999ZM1555.44 88.5999L1554.44 88.6311L1554.47 89.5999H1555.44V88.5999ZM1547.44 69.3999L1546.78 70.1473L1546.79 70.1562L1546.8 70.1648L1547.44 69.3999ZM1514.24 68.1999L1514.92 68.9327V68.9327L1514.24 68.1999ZM1514.64 96.9999L1513.93 97.707L1513.96 97.7305L1513.98 97.7525L1514.64 96.9999ZM1530.24 107L1529.81 107.902L1529.83 107.91L1529.84 107.917L1530.24 107ZM1557.44 117.4L1557.11 118.342L1557.12 118.346L1557.44 117.4ZM1601.44 135.8L1600.97 136.682L1600.98 136.688L1600.99 136.694L1601.44 135.8ZM1631.44 161L1630.64 161.603L1630.65 161.614L1630.66 161.625L1631.44 161ZM1631.44 247L1630.6 246.461L1630.59 246.467L1630.59 246.473L1631.44 247ZM1595.04 278.6L1594.61 277.7L1594.6 277.702L1595.04 278.6ZM1539.04 290.2V289.2C1506.4 289.2 1479.69 281.505 1458.83 266.194L1458.24 267L1457.65 267.806C1478.93 283.428 1506.08 291.2 1539.04 291.2V290.2ZM1458.24 267L1458.84 266.199C1438.04 250.663 1426.82 228.552 1425.24 199.745L1424.24 199.8L1423.24 199.855C1424.86 229.181 1436.31 251.87 1457.64 267.801L1458.24 267ZM1424.24 199.8V200.8H1507.84V199.8V198.8H1424.24V199.8ZM1507.84 199.8L1506.84 199.881C1507.66 209.887 1510.64 217.377 1515.97 222.145L1516.64 221.4L1517.31 220.655C1512.5 216.357 1509.63 209.446 1508.84 199.719L1507.84 199.8ZM1516.64 221.4L1515.97 222.145C1521.26 226.871 1528.04 229.2 1536.24 229.2V228.2V227.2C1528.44 227.2 1522.16 224.996 1517.31 220.655L1516.64 221.4ZM1536.24 228.2V229.2C1543.6 229.2 1549.7 227.426 1554.45 223.794L1553.84 223L1553.23 222.206C1548.92 225.507 1543.28 227.2 1536.24 227.2V228.2ZM1553.84 223L1554.45 223.789C1559.51 219.855 1562.04 214.49 1562.04 207.8H1561.04H1560.04C1560.04 213.91 1557.77 218.678 1553.23 222.211L1553.84 223ZM1561.04 207.8H1562.04C1562.04 199.143 1557.95 192.432 1549.95 187.737L1549.44 188.6L1548.94 189.463C1556.39 193.835 1560.04 199.923 1560.04 207.8H1561.04ZM1549.44 188.6L1549.95 187.737C1542.11 183.146 1529.5 178.053 1512.15 172.448L1511.84 173.4L1511.53 174.351C1528.85 179.947 1541.3 184.987 1548.94 189.463L1549.44 188.6ZM1511.84 173.4L1512.16 172.451C1493.78 166.325 1478.89 160.475 1467.48 154.901L1467.04 155.8L1466.6 156.698C1478.12 162.325 1493.1 168.208 1511.52 174.349L1511.84 173.4ZM1467.04 155.8L1467.5 154.914C1456.44 149.12 1446.68 140.817 1438.23 129.985L1437.44 130.6L1436.65 131.215C1445.26 142.25 1455.24 150.747 1466.58 156.686L1467.04 155.8ZM1437.44 130.6L1438.25 130.006C1430.14 119.021 1426.04 104.714 1426.04 86.9999H1425.04H1424.04C1424.04 105.019 1428.21 119.779 1436.64 131.194L1437.44 130.6ZM1425.04 86.9999H1426.04C1426.04 69.0403 1430.53 53.7836 1439.46 41.1779L1438.64 40.5999L1437.82 40.0219C1428.62 53.0162 1424.04 68.6929 1424.04 86.9999H1425.04ZM1438.64 40.5999L1439.46 41.17C1448.41 28.2744 1460.79 18.523 1476.63 11.923L1476.24 10.9999L1475.86 10.0768C1459.7 16.8101 1447 26.7921 1437.82 40.0298L1438.64 40.5999ZM1476.24 10.9999L1476.63 11.923C1492.48 5.31491 1510.48 1.99991 1530.64 1.99991V0.999908V-9.15527e-05C1510.26 -9.15527e-05 1492 3.35153 1475.86 10.0768L1476.24 10.9999ZM1530.64 0.999908V1.99991C1563.29 1.99991 1589.18 9.69595 1608.42 24.9828L1609.04 24.1999L1609.66 23.4169C1589.97 7.77048 1563.59 -9.15527e-05 1530.64 -9.15527e-05V0.999908ZM1609.04 24.1999L1608.43 24.9921C1627.9 39.9912 1638.32 61.1699 1639.64 88.6479L1640.64 88.5999L1641.64 88.5519C1640.29 60.5633 1629.65 38.8086 1609.65 23.4077L1609.04 24.1999ZM1640.64 88.5999V87.5999H1555.44V88.5999V89.5999H1640.64V88.5999ZM1555.44 88.5999L1556.44 88.5687C1556.17 79.8387 1553.43 73.1342 1548.08 68.635L1547.44 69.3999L1546.8 70.1648C1551.59 74.1989 1554.18 80.2944 1554.44 88.6311L1555.44 88.5999ZM1547.44 69.3999L1548.11 68.6525C1543.09 64.1913 1536.57 61.9999 1528.64 61.9999V62.9999V63.9999C1536.18 63.9999 1542.2 66.0751 1546.78 70.1473L1547.44 69.3999ZM1528.64 62.9999V61.9999C1522.56 61.9999 1517.51 63.8027 1513.56 67.4671L1514.24 68.1999L1514.92 68.9327C1518.44 65.6638 1522.99 63.9999 1528.64 63.9999V62.9999ZM1514.24 68.1999L1513.56 67.4671C1509.57 71.1692 1507.64 76.3978 1507.64 82.9999H1508.64H1509.64C1509.64 76.8019 1511.44 72.164 1514.92 68.9327L1514.24 68.1999ZM1508.64 82.9999H1507.64C1507.64 88.6158 1509.76 93.5321 1513.93 97.707L1514.64 96.9999L1515.35 96.2928C1511.52 92.4677 1509.64 88.0507 1509.64 82.9999H1508.64ZM1514.64 96.9999L1513.98 97.7525C1518.33 101.556 1523.61 104.937 1529.81 107.902L1530.24 107L1530.67 106.098C1524.61 103.196 1519.49 99.9102 1515.3 96.2473L1514.64 96.9999ZM1530.24 107L1529.84 107.917C1536.01 110.598 1545.1 114.073 1557.11 118.342L1557.44 117.4L1557.78 116.458C1545.78 112.193 1536.74 108.736 1530.64 106.083L1530.24 107ZM1557.44 117.4L1557.12 118.346C1574.95 124.469 1589.57 130.582 1600.97 136.682L1601.44 135.8L1601.91 134.918C1590.38 128.751 1575.66 122.598 1557.77 116.454L1557.44 117.4ZM1601.44 135.8L1600.99 136.694C1612.58 142.489 1622.46 150.787 1630.64 161.603L1631.44 161L1632.24 160.397C1623.88 149.346 1613.77 140.844 1601.89 134.905L1601.44 135.8ZM1631.44 161L1630.66 161.625C1639.02 172.079 1643.24 185.444 1643.24 201.8H1644.24H1645.24C1645.24 185.089 1640.92 171.254 1632.22 160.375L1631.44 161ZM1644.24 201.8H1643.24C1643.24 218.421 1639.02 233.298 1630.6 246.461L1631.44 247L1632.28 247.539C1640.93 234.035 1645.24 218.779 1645.24 201.8H1644.24ZM1631.44 247L1630.59 246.473C1622.44 259.624 1610.46 270.038 1594.61 277.7L1595.04 278.6L1595.48 279.5C1611.62 271.696 1623.91 261.042 1632.29 247.527L1631.44 247ZM1595.04 278.6L1594.6 277.702C1579.03 285.354 1560.52 289.2 1539.04 289.2V290.2V291.2C1560.76 291.2 1579.58 287.312 1595.48 279.497L1595.04 278.6ZM1935.65 241.4L1936.6 241.086L1936.37 240.4H1935.65V241.4ZM1835.65 241.4V240.4H1834.93L1834.7 241.086L1835.65 241.4ZM1820.45 287.4V288.4H1821.17L1821.4 287.714L1820.45 287.4ZM1738.05 287.4L1737.11 287.057L1736.62 288.4H1738.05V287.4ZM1840.85 5.39987V4.39987H1840.15L1839.91 5.0574L1840.85 5.39987ZM1931.25 5.39987L1932.19 5.05856L1931.95 4.39987H1931.25V5.39987ZM2033.65 287.4V288.4H2035.08L2034.59 287.059L2033.65 287.4ZM1950.85 287.4L1949.9 287.714L1950.13 288.4H1950.85V287.4ZM1916.05 181.4V182.4H1917.44L1917 181.084L1916.05 181.4ZM1885.65 90.1999L1886.6 89.8837L1885.64 87.0188L1884.7 89.8874L1885.65 90.1999ZM1855.65 181.4L1854.7 181.087L1854.27 182.4H1855.65V181.4ZM1935.65 241.4V240.4H1835.65V241.4V242.4H1935.65V241.4ZM1835.65 241.4L1834.7 241.086L1819.5 287.086L1820.45 287.4L1821.4 287.714L1836.6 241.714L1835.65 241.4ZM1820.45 287.4V286.4H1738.05V287.4V288.4H1820.45V287.4ZM1738.05 287.4L1738.99 287.742L1841.79 5.74237L1840.85 5.39987L1839.91 5.0574L1737.11 287.057L1738.05 287.4ZM1840.85 5.39987V6.39987H1931.25V5.39987V4.39987H1840.85V5.39987ZM1931.25 5.39987L1930.31 5.74121L2032.71 287.741L2033.65 287.4L2034.59 287.059L1932.19 5.05856L1931.25 5.39987ZM2033.65 287.4V286.4H1950.85V287.4V288.4H2033.65V287.4ZM1950.85 287.4L1951.8 287.086L1936.6 241.086L1935.65 241.4L1934.7 241.714L1949.9 287.714L1950.85 287.4ZM1916.05 181.4L1917 181.084L1886.6 89.8837L1885.65 90.1999L1884.7 90.5161L1915.1 181.716L1916.05 181.4ZM1885.65 90.1999L1884.7 89.8874L1854.7 181.087L1855.65 181.4L1856.6 181.712L1886.6 90.5124L1885.65 90.1999ZM1855.65 181.4V182.4H1916.05V181.4V180.4H1855.65V181.4ZM2137.6 227.4H2136.6V228.4H2137.6V227.4ZM2225.2 227.4H2226.2V226.4H2225.2V227.4ZM2225.2 287.4V288.4H2226.2V287.4H2225.2ZM2059.2 287.4H2058.2V288.4H2059.2V287.4ZM2059.2 5.39987V4.39987H2058.2V5.39987H2059.2ZM2137.6 5.39987H2138.6V4.39987H2137.6V5.39987ZM2137.6 227.4V228.4H2225.2V227.4V226.4H2137.6V227.4ZM2225.2 227.4H2224.2V287.4H2225.2H2226.2V227.4H2225.2ZM2225.2 287.4V286.4H2059.2V287.4V288.4H2225.2V287.4ZM2059.2 287.4H2060.2V5.39987H2059.2H2058.2V287.4H2059.2ZM2059.2 5.39987V6.39987H2137.6V5.39987V4.39987H2059.2V5.39987ZM2137.6 5.39987H2136.6V227.4H2137.6H2138.6V5.39987H2137.6ZM2332.49 5.39987H2333.49V4.39987H2332.49V5.39987ZM2342.89 204.2L2342.12 204.843L2342.13 204.85L2342.13 204.857L2342.89 204.2ZM2407.69 204.2L2406.94 203.541L2406.93 203.543L2407.69 204.2ZM2418.89 5.39987V4.39987H2417.89V5.39987H2418.89ZM2497.29 5.39987H2498.29V4.39987H2497.29V5.39987ZM2480.89 235.4L2481.74 235.916L2481.75 235.911L2480.89 235.4ZM2436.09 276.6L2436.52 277.499L2436.53 277.497L2436.09 276.6ZM2312.09 276.6L2311.62 277.486L2311.63 277.49L2311.64 277.494L2312.09 276.6ZM2269.69 235.4L2268.81 235.888L2268.82 235.897L2269.69 235.4ZM2254.49 5.39987V4.39987H2253.49V5.39987H2254.49ZM2332.49 5.39987H2331.49V169H2332.49H2333.49V5.39987H2332.49ZM2332.49 169H2331.49C2331.49 184.34 2334.99 196.334 2342.12 204.843L2342.89 204.2L2343.65 203.557C2336.92 195.532 2333.49 184.06 2333.49 169H2332.49ZM2342.89 204.2L2342.13 204.857C2349.58 213.405 2360.69 217.6 2375.29 217.6V216.6V215.6C2361.08 215.6 2350.6 211.528 2343.64 203.543L2342.89 204.2ZM2375.29 216.6V217.6C2389.88 217.6 2401 213.405 2408.44 204.857L2407.69 204.2L2406.93 203.543C2399.98 211.528 2389.49 215.6 2375.29 215.6V216.6ZM2407.69 204.2L2408.44 204.858C2416.11 196.091 2419.89 184.097 2419.89 169H2418.89H2417.89C2417.89 183.769 2414.2 195.242 2406.94 203.541L2407.69 204.2ZM2418.89 169H2419.89V5.39987H2418.89H2417.89V169H2418.89ZM2418.89 5.39987V6.39987H2497.29V5.39987V4.39987H2418.89V5.39987ZM2497.29 5.39987H2496.29V169H2497.29H2498.29V5.39987H2497.29ZM2497.29 169H2496.29C2496.29 194.724 2490.85 216.673 2480.03 234.889L2480.89 235.4L2481.75 235.911C2492.79 217.327 2498.29 195.009 2498.29 169H2497.29ZM2480.89 235.4L2480.03 234.884C2469.2 252.854 2454.41 266.455 2435.65 275.703L2436.09 276.6L2436.53 277.497C2455.64 268.079 2470.71 254.213 2481.74 235.916L2480.89 235.4ZM2436.09 276.6L2435.65 275.7C2417.13 284.694 2396.49 289.2 2373.69 289.2V290.2V291.2C2396.76 291.2 2417.71 286.639 2436.52 277.499L2436.09 276.6ZM2373.69 290.2V289.2C2350.89 289.2 2330.51 284.694 2312.53 275.705L2312.09 276.6L2311.64 277.494C2329.93 286.639 2350.62 291.2 2373.69 291.2V290.2ZM2312.09 276.6L2312.55 275.714C2294.86 266.472 2280.86 252.877 2270.56 234.902L2269.69 235.4L2268.82 235.897C2279.31 254.19 2293.58 268.061 2311.62 277.486L2312.09 276.6ZM2269.69 235.4L2270.56 234.912C2260.53 216.962 2255.49 195.006 2255.49 169H2254.49H2253.49C2253.49 195.261 2258.58 217.572 2268.81 235.888L2269.69 235.4ZM2254.49 169H2255.49V5.39987H2254.49H2253.49V169H2254.49ZM2254.49 5.39987V6.39987H2332.49V5.39987V4.39987H2254.49V5.39987ZM2801.65 287.4V288.4H2802.65V287.4H2801.65ZM2723.25 287.4L2722.42 287.952L2722.72 288.4H2723.25V287.4ZM2618.85 129.8L2619.69 129.248L2617.85 126.48V129.8H2618.85ZM2618.85 287.4V288.4H2619.85V287.4H2618.85ZM2540.45 287.4H2539.45V288.4H2540.45V287.4ZM2540.45 5.39987V4.39987H2539.45V5.39987H2540.45ZM2618.85 5.39987L2619.69 4.85248L2619.39 4.39987H2618.85V5.39987ZM2723.25 165L2722.42 165.547L2724.25 168.355V165H2723.25ZM2723.25 5.39987V4.39987H2722.25V5.39987H2723.25ZM2801.65 5.39987H2802.65V4.39987H2801.65V5.39987ZM2801.65 287.4V286.4H2723.25V287.4V288.4H2801.65V287.4ZM2723.25 287.4L2724.09 286.848L2619.69 129.248L2618.85 129.8L2618.02 130.352L2722.42 287.952L2723.25 287.4ZM2618.85 129.8H2617.85V287.4H2618.85H2619.85V129.8H2618.85ZM2618.85 287.4V286.4H2540.45V287.4V288.4H2618.85V287.4ZM2540.45 287.4H2541.45V5.39987H2540.45H2539.45V287.4H2540.45ZM2540.45 5.39987V6.39987H2618.85V5.39987V4.39987H2540.45V5.39987ZM2618.85 5.39987L2618.02 5.9473L2722.42 165.547L2723.25 165L2724.09 164.452L2619.69 4.85248L2618.85 5.39987ZM2723.25 165H2724.25V5.39987H2723.25H2722.25V165H2723.25ZM2723.25 5.39987V6.39987H2801.65V5.39987V4.39987H2723.25V5.39987ZM2801.65 5.39987H2800.65V287.4H2801.65H2802.65V5.39987H2801.65ZM2908.71 271.8L2908.22 272.67L2908.23 272.675L2908.71 271.8ZM2855.91 220.2L2855.05 220.701L2855.05 220.707L2855.05 220.713L2855.91 220.2ZM2855.91 70.9999L2855.05 70.4915L2855.05 70.4947L2855.91 70.9999ZM2908.71 19.3999L2909.2 20.2745L2908.71 19.3999ZM3054.31 19.3999L3053.82 20.2721L3053.83 20.2745L3054.31 19.3999ZM3106.71 70.9999L3105.85 71.5005L3105.85 71.5051L3106.71 70.9999ZM3106.71 220.2L3107.58 220.705L3107.58 220.701L3106.71 220.2ZM3054.31 271.8L3054.8 272.675L3054.81 272.67L3054.31 271.8ZM3028.71 197.8L3027.97 197.132L3027.96 197.14L3028.71 197.8ZM3028.71 92.5999L3027.96 93.2595L3027.97 93.2676L3027.98 93.2756L3028.71 92.5999ZM2933.91 92.5999L2934.66 93.2672L2934.66 93.2595L2933.91 92.5999ZM2933.91 198.2L2933.16 198.86L2933.17 198.867L2933.91 198.2ZM2981.51 290.2V289.2C2955.27 289.2 2931.18 283.106 2909.2 270.925L2908.71 271.8L2908.23 272.675C2930.52 285.027 2954.95 291.2 2981.51 291.2V290.2ZM2908.71 271.8L2909.21 270.93C2887.22 258.482 2869.75 241.405 2856.77 219.687L2855.91 220.2L2855.05 220.713C2868.21 242.728 2885.94 260.051 2908.22 272.67L2908.71 271.8ZM2855.91 220.2L2856.78 219.699C2844.07 197.731 2837.71 172.973 2837.71 145.4H2836.71H2835.71C2835.71 173.294 2842.15 198.402 2855.05 220.701L2855.91 220.2ZM2836.71 145.4H2837.71C2837.71 117.827 2844.07 93.2042 2856.78 71.5051L2855.91 70.9999L2855.05 70.4947C2842.15 92.5289 2835.71 117.506 2835.71 145.4H2836.71ZM2855.91 70.9999L2856.77 71.5083C2869.75 49.5259 2887.22 32.4534 2909.2 20.2745L2908.71 19.3999L2908.23 18.5252C2885.94 30.8797 2868.21 48.2073 2855.05 70.4915L2855.91 70.9999ZM2908.71 19.3999L2909.2 20.2745C2931.18 8.09372 2955.27 1.99991 2981.51 1.99991V0.999908V-9.15527e-05C2954.95 -9.15527e-05 2930.52 6.17276 2908.23 18.5252L2908.71 19.3999ZM2981.51 0.999908V1.99991C3008.02 1.99991 3032.12 8.09454 3053.82 20.272L3054.31 19.3999L3054.8 18.5277C3032.78 6.17191 3008.34 -9.15527e-05 2981.51 -9.15527e-05V0.999908ZM3054.31 19.3999L3053.83 20.2745C3075.8 32.4524 3093.14 49.5224 3105.85 71.5005L3106.71 70.9999L3107.58 70.4993C3094.69 48.2108 3077.09 30.8807 3054.8 18.5252L3054.31 19.3999ZM3106.71 70.9999L3105.85 71.5051C3118.55 93.2042 3124.91 117.827 3124.91 145.4H3125.91H3126.91C3126.91 117.506 3120.47 92.5289 3107.58 70.4947L3106.71 70.9999ZM3125.91 145.4H3124.91C3124.91 172.973 3118.55 197.731 3105.85 219.699L3106.71 220.2L3107.58 220.701C3120.47 198.402 3126.91 173.294 3126.91 145.4H3125.91ZM3106.71 220.2L3105.85 219.695C3093.14 241.409 3075.8 258.483 3053.82 270.93L3054.31 271.8L3054.81 272.67C3077.09 260.05 3094.69 242.725 3107.58 220.705L3106.71 220.2ZM3054.31 271.8L3053.83 270.925C3031.85 283.106 3007.75 289.2 2981.51 289.2V290.2V291.2C3008.07 291.2 3032.51 285.027 3054.8 272.675L3054.31 271.8ZM2981.51 217.4V218.4C3001.75 218.4 3017.78 211.776 3029.46 198.459L3028.71 197.8L3027.96 197.14C3016.71 209.957 3001.27 216.4 2981.51 216.4V217.4ZM3028.71 197.8L3029.46 198.468C3041.39 185.176 3047.31 167.45 3047.31 145.4H3046.31H3045.31C3045.31 167.083 3039.5 184.291 3027.97 197.132L3028.71 197.8ZM3046.31 145.4H3047.31C3047.31 122.825 3041.4 104.957 3029.45 91.9242L3028.71 92.5999L3027.98 93.2756C3039.5 105.843 3045.31 123.175 3045.31 145.4H3046.31ZM3028.71 92.5999L3029.46 91.9403C3017.78 78.6237 3001.75 71.9999 2981.51 71.9999V72.9999V73.9999C3001.27 73.9999 3016.71 80.4428 3027.96 93.2595L3028.71 92.5999ZM2981.51 72.9999V71.9999C2961.01 71.9999 2944.85 78.6206 2933.16 91.9403L2933.91 92.5999L2934.66 93.2595C2945.91 80.4458 2961.48 73.9999 2981.51 73.9999V72.9999ZM2933.91 92.5999L2933.17 91.9326C2921.49 104.966 2915.71 122.83 2915.71 145.4H2916.71H2917.71C2917.71 123.17 2923.4 105.834 2934.66 93.2671L2933.91 92.5999ZM2916.71 145.4H2915.71C2915.71 167.708 2921.49 185.565 2933.16 198.859L2933.91 198.2L2934.66 197.54C2923.4 184.702 2917.71 167.359 2917.71 145.4H2916.71ZM2933.91 198.2L2933.17 198.867C2944.86 211.917 2961.02 218.4 2981.51 218.4V217.4V216.4C2961.47 216.4 2945.9 210.083 2934.66 197.533L2933.91 198.2ZM3186.76 267L3186.16 267.801L3186.16 267.806L3186.76 267ZM3152.76 199.8V198.8H3151.7L3151.76 199.855L3152.76 199.8ZM3236.36 199.8L3237.35 199.719L3237.28 198.8H3236.36V199.8ZM3245.16 221.4L3244.49 222.145V222.145L3245.16 221.4ZM3282.36 223L3282.96 223.794L3282.97 223.789L3282.36 223ZM3277.96 188.6L3278.46 187.737V187.737L3277.96 188.6ZM3240.36 173.4L3240.04 174.349L3240.05 174.351L3240.36 173.4ZM3195.56 155.8L3195.09 156.686L3195.1 156.692L3195.12 156.698L3195.56 155.8ZM3165.96 130.6L3165.15 131.194L3165.16 131.205L3165.17 131.215L3165.96 130.6ZM3167.16 40.5999L3167.97 41.1779L3167.98 41.17L3167.16 40.5999ZM3204.76 10.9999L3204.37 10.0768V10.0768L3204.76 10.9999ZM3337.56 24.1999L3336.93 24.9828L3336.94 24.9875L3336.95 24.9921L3337.56 24.1999ZM3369.16 88.5999V89.5999H3370.21L3370.16 88.5519L3369.16 88.5999ZM3283.96 88.5999L3282.96 88.6311L3282.99 89.5999H3283.96V88.5999ZM3275.96 69.3999L3275.29 70.1473L3275.3 70.1562L3275.31 70.1648L3275.96 69.3999ZM3242.76 68.1999L3243.44 68.9327V68.9327L3242.76 68.1999ZM3243.16 96.9999L3242.45 97.707L3242.47 97.7305L3242.5 97.7525L3243.16 96.9999ZM3258.76 107L3258.32 107.902L3258.34 107.91L3258.36 107.917L3258.76 107ZM3285.96 117.4L3285.62 118.342L3285.63 118.346L3285.96 117.4ZM3329.96 135.8L3329.48 136.682L3329.5 136.688L3329.51 136.694L3329.96 135.8ZM3359.96 161L3359.16 161.603L3359.17 161.614L3359.18 161.625L3359.96 161ZM3359.96 247L3359.11 246.461L3359.11 246.467L3359.11 246.473L3359.96 247ZM3323.56 278.6L3323.12 277.7L3323.12 277.702L3323.56 278.6ZM3267.56 290.2V289.2C3234.91 289.2 3208.2 281.505 3187.35 266.194L3186.76 267L3186.16 267.806C3207.44 283.428 3234.6 291.2 3267.56 291.2V290.2ZM3186.76 267L3187.35 266.199C3166.55 250.663 3155.34 228.552 3153.75 199.745L3152.76 199.8L3151.76 199.855C3153.37 229.181 3164.83 251.87 3186.16 267.801L3186.76 267ZM3152.76 199.8V200.8H3236.36V199.8V198.8H3152.76V199.8ZM3236.36 199.8L3235.36 199.881C3236.17 209.887 3239.16 217.377 3244.49 222.145L3245.16 221.4L3245.82 220.655C3241.02 216.357 3238.14 209.446 3237.35 199.719L3236.36 199.8ZM3245.16 221.4L3244.49 222.145C3249.77 226.871 3256.56 229.2 3264.76 229.2V228.2V227.2C3256.96 227.2 3250.67 224.996 3245.82 220.655L3245.16 221.4ZM3264.76 228.2V229.2C3272.12 229.2 3278.21 227.426 3282.96 223.794L3282.36 223L3281.75 222.206C3277.43 225.507 3271.8 227.2 3264.76 227.2V228.2ZM3282.36 223L3282.97 223.789C3288.03 219.855 3290.56 214.49 3290.56 207.8H3289.56H3288.56C3288.56 213.91 3286.28 218.678 3281.74 222.211L3282.36 223ZM3289.56 207.8H3290.56C3290.56 199.143 3286.47 192.432 3278.46 187.737L3277.96 188.6L3277.45 189.463C3284.91 193.835 3288.56 199.923 3288.56 207.8H3289.56ZM3277.96 188.6L3278.46 187.737C3270.63 183.146 3258.01 178.053 3240.66 172.448L3240.36 173.4L3240.05 174.351C3257.37 179.947 3269.82 184.987 3277.45 189.463L3277.96 188.6ZM3240.36 173.4L3240.67 172.451C3222.3 166.325 3207.41 160.475 3196 154.901L3195.56 155.8L3195.12 156.698C3206.64 162.325 3221.62 168.208 3240.04 174.349L3240.36 173.4ZM3195.56 155.8L3196.02 154.914C3184.96 149.12 3175.2 140.817 3166.74 129.985L3165.96 130.6L3165.17 131.215C3173.78 142.25 3183.75 150.747 3195.09 156.686L3195.56 155.8ZM3165.96 130.6L3166.76 130.006C3158.65 119.021 3154.56 104.714 3154.56 86.9999H3153.56H3152.56C3152.56 105.019 3156.73 119.779 3165.15 131.194L3165.96 130.6ZM3153.56 86.9999H3154.56C3154.56 69.0403 3159.04 53.7836 3167.97 41.1779L3167.16 40.5999L3166.34 40.0219C3157.14 53.0162 3152.56 68.6929 3152.56 86.9999H3153.56ZM3167.16 40.5999L3167.98 41.17C3176.93 28.2744 3189.3 18.523 3205.14 11.923L3204.76 10.9999L3204.37 10.0768C3188.21 16.8101 3175.52 26.7921 3166.33 40.0298L3167.16 40.5999ZM3204.76 10.9999L3205.14 11.923C3221 5.31491 3239 1.99991 3259.16 1.99991V0.999908V-9.15527e-05C3238.78 -9.15527e-05 3220.51 3.35153 3204.37 10.0768L3204.76 10.9999ZM3259.16 0.999908V1.99991C3291.8 1.99991 3317.69 9.69595 3336.93 24.9828L3337.56 24.1999L3338.18 23.4169C3318.49 7.77048 3292.11 -9.15527e-05 3259.16 -9.15527e-05V0.999908ZM3337.56 24.1999L3336.95 24.9921C3356.42 39.9912 3366.84 61.1699 3368.16 88.6479L3369.16 88.5999L3370.16 88.5519C3368.81 60.5633 3358.16 38.8086 3338.17 23.4077L3337.56 24.1999ZM3369.16 88.5999V87.5999H3283.96V88.5999V89.5999H3369.16V88.5999ZM3283.96 88.5999L3284.96 88.5687C3284.68 79.8387 3281.94 73.1342 3276.6 68.635L3275.96 69.3999L3275.31 70.1648C3280.1 74.1989 3282.7 80.2944 3282.96 88.6311L3283.96 88.5999ZM3275.96 69.3999L3276.62 68.6525C3271.6 64.1913 3265.08 61.9999 3257.16 61.9999V62.9999V63.9999C3264.7 63.9999 3270.71 66.0751 3275.29 70.1473L3275.96 69.3999ZM3257.16 62.9999V61.9999C3251.08 61.9999 3246.02 63.8027 3242.08 67.4671L3242.76 68.1999L3243.44 68.9327C3246.96 65.6638 3251.5 63.9999 3257.16 63.9999V62.9999ZM3242.76 68.1999L3242.08 67.4671C3238.09 71.1692 3236.16 76.3978 3236.16 82.9999H3237.16H3238.16C3238.16 76.8019 3239.96 72.164 3243.44 68.9327L3242.76 68.1999ZM3237.16 82.9999H3236.16C3236.16 88.6158 3238.27 93.5321 3242.45 97.707L3243.16 96.9999L3243.86 96.2928C3240.04 92.4677 3238.16 88.0507 3238.16 82.9999H3237.16ZM3243.16 96.9999L3242.5 97.7525C3246.84 101.556 3252.13 104.937 3258.32 107.902L3258.76 107L3259.19 106.098C3253.12 103.196 3248 99.9102 3243.81 96.2473L3243.16 96.9999ZM3258.76 107L3258.36 107.917C3264.52 110.598 3273.62 114.073 3285.62 118.342L3285.96 117.4L3286.29 116.458C3274.3 112.193 3265.26 108.736 3259.16 106.083L3258.76 107ZM3285.96 117.4L3285.63 118.346C3303.47 124.469 3318.08 130.582 3329.48 136.682L3329.96 135.8L3330.43 134.918C3318.9 128.751 3304.18 122.598 3286.28 116.454L3285.96 117.4ZM3329.96 135.8L3329.51 136.694C3341.1 142.489 3350.98 150.787 3359.16 161.603L3359.96 161L3360.75 160.397C3352.4 149.346 3342.28 140.844 3330.4 134.905L3329.96 135.8ZM3359.96 161L3359.18 161.625C3367.54 172.079 3371.76 185.444 3371.76 201.8H3372.76H3373.76C3373.76 185.089 3369.44 171.254 3360.74 160.375L3359.96 161ZM3372.76 201.8H3371.76C3371.76 218.421 3367.54 233.298 3359.11 246.461L3359.96 247L3360.8 247.539C3369.44 234.035 3373.76 218.779 3373.76 201.8H3372.76ZM3359.96 247L3359.11 246.473C3350.95 259.624 3338.97 270.038 3323.12 277.7L3323.56 278.6L3323.99 279.5C3340.14 271.696 3352.43 261.042 3360.81 247.527L3359.96 247ZM3323.56 278.6L3323.12 277.702C3307.55 285.354 3289.04 289.2 3267.56 289.2V290.2V291.2C3289.27 291.2 3308.1 287.312 3324 279.497L3323.56 278.6Z" fill="url(#paint0_linear_1116_141)" mask="url(#path-1-outside-1_1116_141)"/>
<defs>
<linearGradient id="paint0_linear_1116_141" x1="-21.7983" y1="147.4" x2="3387.2" y2="147.4" gradientUnits="userSpaceOnUse">
<stop stop-color="#4242A5"/>
<stop offset="1" stop-color="#8A38F5"/>
</linearGradient>
</defs>
</svg>
