<svg width="30" height="25" viewBox="0 0 30 25" fill="none" xmlns="http://www.w3.org/2000/svg">
<path d="M22.464 0C23.872 0 25.024 0.288 25.92 0.864C26.816 1.44 27.552 2.176 28.128 3.072C28.832 4.096 29.28 5.216 29.472 6.432C29.664 7.648 29.76 8.64 29.76 9.408C29.76 12.544 28.96 15.392 27.36 17.952C25.76 20.512 23.264 22.592 19.872 24.192L19.008 22.464C20.992 21.632 22.688 20.32 24.096 18.528C25.568 16.736 26.304 14.912 26.304 13.056C26.304 12.288 26.208 11.616 26.016 11.04C24.992 11.872 23.808 12.288 22.464 12.288C20.8 12.288 19.36 11.744 18.144 10.656C16.928 9.568 16.32 8.064 16.32 6.144C16.32 4.352 16.928 2.88 18.144 1.728C19.36 0.576 20.8 0 22.464 0ZM6.144 0C7.552 0 8.704 0.288 9.6 0.864C10.496 1.44 11.232 2.176 11.808 3.072C12.512 4.096 12.96 5.216 13.152 6.432C13.344 7.648 13.44 8.64 13.44 9.408C13.44 12.544 12.64 15.392 11.04 17.952C9.44 20.512 6.944 22.592 3.552 24.192L2.688 22.464C4.672 21.632 6.368 20.32 7.776 18.528C9.248 16.736 9.984 14.912 9.984 13.056C9.984 12.288 9.888 11.616 9.696 11.04C8.672 11.872 7.488 12.288 6.144 12.288C4.48 12.288 3.04 11.744 1.824 10.656C0.608 9.568 0 8.064 0 6.144C0 4.352 0.608 2.88 1.824 1.728C3.04 0.576 4.48 0 6.144 0Z" fill="#525252" fill-opacity="0.25"/>
</svg>
