<svg width="936" height="512" viewBox="0 0 936 512" fill="none" xmlns="http://www.w3.org/2000/svg">
<path d="M565.258 0.5C594.8 0.5 618.049 5.87869 634.956 16.6895H634.957C651.828 27.2826 663.719 40.7356 670.6 57.0508L671.251 58.5771C677.874 74.364 681.188 90.5244 681.188 107.055C681.188 117.824 680.307 127.816 678.542 137.031C676.979 146.018 675.123 155.98 672.975 166.917L672.896 167.32H613.391V142.797C613.391 116.471 609.196 96.2614 600.862 82.1133C592.547 67.997 580.693 60.9727 565.258 60.9727C551.315 60.9727 540.74 64.824 533.449 72.458L533.105 72.8242C525.984 80.5229 522.398 90.9371 522.398 104.125C522.398 115.38 524.726 125.653 529.375 134.952L530.266 136.672C534.795 145.286 540.441 154.162 547.203 163.3H547.202L635.377 275.202L635.38 275.205C651.608 296.125 663.934 316.08 672.353 335.069L673.149 336.84C681.245 355.204 685.289 375.585 685.289 397.973C685.289 432.659 674.212 460.243 652.022 480.665L652.021 480.666C629.838 500.885 600.313 510.973 563.5 510.973C533.375 510.973 509.642 505.888 492.348 495.669L492.342 495.665C475.273 485.267 463.185 471.911 456.107 455.594L456.105 455.589C449.243 439.316 445.812 422.257 445.812 404.418C445.812 393.658 446.399 383.675 447.574 374.472L447.575 374.462H447.576C448.946 365.265 450.902 355.484 453.444 345.119L453.537 344.738H513.316V367.504C513.316 394.417 517.414 415.02 525.555 429.364L525.938 430.02C534.054 443.679 546.356 450.5 562.914 450.5C577.488 450.5 588.326 446.929 595.523 439.876C602.718 432.825 606.359 422.209 606.359 407.934C606.359 396.875 603.934 385.219 599.07 372.962L599.067 372.955V372.954C594.406 360.718 585.163 345.725 571.309 327.968V327.967L492.211 228.655L492.206 228.649C478.318 210.653 467.454 192.649 459.623 174.637L459.622 174.633C451.976 156.595 448.156 136.508 448.156 114.379C448.156 81.0638 458.449 53.7843 479.06 32.585C499.878 11.1777 528.632 0.5 565.258 0.5ZM83.3242 4.89453C94.8669 4.89453 107.579 5.57881 121.459 6.94727C135.366 8.31843 149.174 11.4529 162.881 16.3477L164.166 16.7969C177.404 21.5326 189.534 28.9383 200.553 39.0068L201.614 39.9756C212.52 50.108 221.289 63.8216 227.932 81.0938H227.931C234.992 98.7498 238.512 121.18 238.512 148.363V160.961C238.512 235.809 216.063 284.227 170.977 305.933L253.122 505.595L253.406 506.285H171.452L171.331 505.958L102.604 319.078H77.3789V506.285H0.5V4.89453H83.3242ZM386.168 4.89453V506.285H309.289V4.89453H386.168ZM934.605 4.89453V65.6602H819.176V214.367H909.703V275.133H819.176V445.52H934.605V506.285H742.297V4.89453H934.605ZM77.3789 263.293H86.8398C114.523 263.293 133.371 256.855 143.579 244.144L143.582 244.141C154.011 231.394 159.289 208.308 159.289 174.73V135.18C159.289 109.445 154.315 90.6392 144.462 78.6611L144.458 78.6572C134.843 66.7354 115.715 60.6797 86.8398 60.6797H77.3789V263.293Z" stroke="url(#paint0_linear_1027_1020)"/>
<defs>
<linearGradient id="paint0_linear_1027_1020" x1="450.707" y1="-99.2149" x2="450.707" y2="654.785" gradientUnits="userSpaceOnUse">
<stop stop-color="#401EFF"/>
<stop offset="0.745192" stop-color="#F4F4F4" stop-opacity="0.2"/>
</linearGradient>
</defs>
</svg>
