<svg width="426" height="76" viewBox="0 0 426 76" preserveAspectRatio="none" fill="none" xmlns="http://www.w3.org/2000/svg" xmlns:xlink="http://www.w3.org/1999/xlink">
<use xlink:href="#stroke0_983_158" transform="translate(3.28715 0.95539) scale(0.019338) rotate(21.4767)"/>
<use xlink:href="#stroke0_983_158" transform="translate(3.01518 1.59353) scale(0.019338) rotate(-6.9371)"/>
<use xlink:href="#stroke0_983_158" transform="translate(4.96836 3.12359) scale(0.019338) rotate(-1.34009)"/>
<use xlink:href="#stroke0_983_158" transform="translate(8.09166 0.405028) scale(0.019338) rotate(20.1647)"/>
<use xlink:href="#stroke0_983_158" transform="translate(10.3 -0.512461) scale(0.019338) rotate(27.4293)"/>
<use xlink:href="#stroke0_983_158" transform="translate(11.2011 1.14306) scale(0.019338) rotate(18.0546)"/>
<use xlink:href="#stroke0_983_158" transform="translate(11.903 1.77821) scale(0.019338) rotate(4.92119)"/>
<use xlink:href="#stroke0_983_158" transform="translate(13.1306 0.859847) scale(0.019338) rotate(-1.58397)"/>
<use xlink:href="#stroke0_983_158" transform="translate(13.7924 2.74124) scale(0.019338) rotate(-21.8869)"/>
<use xlink:href="#stroke0_983_158" transform="translate(16.1048 3.78788) scale(0.019338) rotate(-6.81066)"/>
<use xlink:href="#stroke0_983_158" transform="translate(19.8496 -0.580323) scale(0.019338) rotate(24.1409)"/>
<use xlink:href="#stroke0_983_158" transform="translate(18.7773 2.70429) scale(0.019338) rotate(-19.7454)"/>
<use xlink:href="#stroke0_983_158" transform="translate(20.8199 0.884174) scale(0.019338) rotate(-10.4972)"/>
<use xlink:href="#stroke0_983_158" transform="translate(23.6375 1.92508) scale(0.019338) rotate(9.16742)"/>
<use xlink:href="#stroke0_983_158" transform="translate(24.3732 2.12471) scale(0.019338) rotate(-5.13788)"/>
<use xlink:href="#stroke0_983_158" transform="translate(27.0004 0.707705) scale(0.019338) rotate(10.4851)"/>
<use xlink:href="#stroke0_983_158" transform="translate(28.5843 -0.364159) scale(0.019338) rotate(9.75161)"/>
<use xlink:href="#stroke0_983_158" transform="translate(31.6311 2.15385) scale(0.019338) rotate(28.3167)"/>
<use xlink:href="#stroke0_983_158" transform="translate(31.0402 0.334393) scale(0.019338) rotate(-2.93045)"/>
<use xlink:href="#stroke0_983_158" transform="translate(32.3723 2.35782) scale(0.019338) rotate(-8.43333)"/>
<use xlink:href="#stroke0_983_158" transform="translate(36.2787 -0.177683) scale(0.019338) rotate(25.0941)"/>
<use xlink:href="#stroke0_983_158" transform="translate(36.154 3.39616) scale(0.019338) rotate(0.538138)"/>
<use xlink:href="#stroke0_983_158" transform="translate(37.0371 0.972775) scale(0.019338) rotate(-13.3369)"/>
<use xlink:href="#stroke0_983_158" transform="translate(40.8232 0.130234) scale(0.019338) rotate(20.4832)"/>
<use xlink:href="#stroke0_983_158" transform="translate(40.0232 2.7734) scale(0.019338) rotate(-20.1036)"/>
<use xlink:href="#stroke0_983_158" transform="translate(43.4776 0.526731) scale(0.019338) rotate(12.2242)"/>
<use xlink:href="#stroke0_983_158" transform="translate(43.9369 3.7273) scale(0.019338) rotate(-6.2341)"/>
<use xlink:href="#stroke0_983_158" transform="translate(46.647 1.17391) scale(0.019338) rotate(10.8033)"/>
<use xlink:href="#stroke0_983_158" transform="translate(48.6614 0.82212) scale(0.019338) rotate(16.0214)"/>
<use xlink:href="#stroke0_983_158" transform="translate(48.5859 4.30637) scale(0.019338) rotate(-11.2069)"/>
<use xlink:href="#stroke0_983_158" transform="translate(50.9627 0.817397) scale(0.019338) rotate(1.99237)"/>
<use xlink:href="#stroke0_983_158" transform="translate(52.3834 1.88841) scale(0.019338) rotate(-1.50795)"/>
<use xlink:href="#stroke0_983_158" transform="translate(53.708 3.24102) scale(0.019338) rotate(-6.99227)"/>
<use xlink:href="#stroke0_983_158" transform="translate(54.5895 3.04677) scale(0.019338) rotate(-24.4576)"/>
<use xlink:href="#stroke0_983_158" transform="translate(59.4176 0.129487) scale(0.019338) rotate(28.1377)"/>
<use xlink:href="#stroke0_983_158" transform="translate(57.8697 5.31733) scale(0.019338) rotate(-24.1644)"/>
<use xlink:href="#stroke0_983_158" transform="translate(60.4653 0.635753) scale(0.019338) rotate(-3.12443)"/>
<use xlink:href="#stroke0_983_158" transform="translate(63.7169 2.46001) scale(0.019338) rotate(20.4684)"/>
<use xlink:href="#stroke0_983_158" transform="translate(62.9224 4.25451) scale(0.019338) rotate(-19.9891)"/>
<use xlink:href="#stroke0_983_158" transform="translate(64.4984 1.66071) scale(0.019338) rotate(-21.6016)"/>
<use xlink:href="#stroke0_983_158" transform="translate(66.9114 0.559671) scale(0.019338) rotate(-4.79548)"/>
<use xlink:href="#stroke0_983_158" transform="translate(67.9832 3.9224) scale(0.019338) rotate(-16.1555)"/>
<use xlink:href="#stroke0_983_158" transform="translate(69.9236 2.46865) scale(0.019338) rotate(-9.63577)"/>
<use xlink:href="#stroke0_983_158" transform="translate(71.1086 3.08724) scale(0.019338) rotate(-19.7408)"/>
<use xlink:href="#stroke0_983_158" transform="translate(74.1509 1.91416) scale(0.019338) rotate(6.49517)"/>
<use xlink:href="#stroke0_983_158" transform="translate(74.1375 4.49917) scale(0.019338) rotate(-26.9778)"/>
<use xlink:href="#stroke0_983_158" transform="translate(77.7145 2.6874) scale(0.019338) rotate(10.7454)"/>
<use xlink:href="#stroke0_983_158" transform="translate(78.844 0.682913) scale(0.019338) rotate(3.25455)"/>
<use xlink:href="#stroke0_983_158" transform="translate(80.5388 1.50673) scale(0.019338) rotate(4.17441)"/>
<use xlink:href="#stroke0_983_158" transform="translate(80.7416 1.99627) scale(0.019338) rotate(-24.8823)"/>
<use xlink:href="#stroke0_983_158" transform="translate(85.6193 1.19986) scale(0.019338) rotate(28.5843)"/>
<use xlink:href="#stroke0_983_158" transform="translate(86.1714 1.11932) scale(0.019338) rotate(14.6301)"/>
<use xlink:href="#stroke0_983_158" transform="translate(87.6793 1.15774) scale(0.019338) rotate(12.8818)"/>
<use xlink:href="#stroke0_983_158" transform="translate(87.3874 2.38663) scale(0.019338) rotate(-21.7668)"/>
<use xlink:href="#stroke0_983_158" transform="translate(90.6577 0.81502) scale(0.019338) rotate(8.74708)"/>
<use xlink:href="#stroke0_983_158" transform="translate(91.1009 2.34643) scale(0.019338) rotate(-11.2884)"/>
<use xlink:href="#stroke0_983_158" transform="translate(93.2008 2.00336) scale(0.019338) rotate(-2.63221)"/>
<use xlink:href="#stroke0_983_158" transform="translate(96.6067 0.237208) scale(0.019338) rotate(22.8179)"/>
<use xlink:href="#stroke0_983_158" transform="translate(97.4779 0.0160875) scale(0.019338) rotate(12.695)"/>
<use xlink:href="#stroke0_983_158" transform="translate(97.3793 1.88552) scale(0.019338) rotate(-17.1072)"/>
<use xlink:href="#stroke0_983_158" transform="translate(100.591 0.560727) scale(0.019338) rotate(10.4908)"/>
<use xlink:href="#stroke0_983_158" transform="translate(101.402 3.2778) scale(0.019338) rotate(-2.21099)"/>
<use xlink:href="#stroke0_983_158" transform="translate(102.079 4.23705) scale(0.019338) rotate(-22.51)"/>
<use xlink:href="#stroke0_983_158" transform="translate(103.65 2.54853) scale(0.019338) rotate(-24.4442)"/>
<use xlink:href="#stroke0_983_158" transform="translate(105.201 2.73822) scale(0.019338) rotate(-27.2631)"/>
<use xlink:href="#stroke0_983_158" transform="translate(106.867 3.91743) scale(0.019338) rotate(-26.2177)"/>
<use xlink:href="#stroke0_983_158" transform="translate(111.823 1.50253) scale(0.019338) rotate(29.0598)"/>
<use xlink:href="#stroke0_983_158" transform="translate(111.653 2.69371) scale(0.019338) rotate(4.82683)"/>
<use xlink:href="#stroke0_983_158" transform="translate(112.822 3.44629) scale(0.019338) rotate(-2.68987)"/>
<use xlink:href="#stroke0_983_158" transform="translate(114.567 2.71674) scale(0.019338) rotate(-0.830426)"/>
<use xlink:href="#stroke0_983_158" transform="translate(115.318 4.11164) scale(0.019338) rotate(-18.3395)"/>
<use xlink:href="#stroke0_983_158" transform="translate(119.041 2.87847) scale(0.019338) rotate(16.8256)"/>
<use xlink:href="#stroke0_983_158" transform="translate(118.782 2.46743) scale(0.019338) rotate(-13.8312)"/>
<use xlink:href="#stroke0_983_158" transform="translate(120.815 0.885808) scale(0.019338) rotate(-5.93206)"/>
<use xlink:href="#stroke0_983_158" transform="translate(123.056 1.11292) scale(0.019338) rotate(4.15265)"/>
<use xlink:href="#stroke0_983_158" transform="translate(123.951 2.06223) scale(0.019338) rotate(-8.44371)"/>
<use xlink:href="#stroke0_983_158" transform="translate(127.896 0.205029) scale(0.019338) rotate(25.5728)"/>
<use xlink:href="#stroke0_983_158" transform="translate(127.825 1.08608) scale(0.019338) rotate(2.00794)"/>
<use xlink:href="#stroke0_983_158" transform="translate(130.039 2.49587) scale(0.019338) rotate(10.6447)"/>
<use xlink:href="#stroke0_983_158" transform="translate(132.348 0.569331) scale(0.019338) rotate(19.7761)"/>
<use xlink:href="#stroke0_983_158" transform="translate(132.958 1.52604) scale(0.019338) rotate(5.51611)"/>
<use xlink:href="#stroke0_983_158" transform="translate(134.333 1.61573) scale(0.019338) rotate(1.47556)"/>
<use xlink:href="#stroke0_983_158" transform="translate(137.242 1.04909) scale(0.019338) rotate(19.6122)"/>
<use xlink:href="#stroke0_983_158" transform="translate(136.607 4.32704) scale(0.019338) rotate(-17.6043)"/>
<use xlink:href="#stroke0_983_158" transform="translate(137.95 1.89817) scale(0.019338) rotate(-25.8085)"/>
<use xlink:href="#stroke0_983_158" transform="translate(141.931 2.66329) scale(0.019338) rotate(16.7515)"/>
<use xlink:href="#stroke0_983_158" transform="translate(142.308 3.40915) scale(0.019338) rotate(-1.8301)"/>
<use xlink:href="#stroke0_983_158" transform="translate(143.071 3.11639) scale(0.019338) rotate(-19.5533)"/>
<use xlink:href="#stroke0_983_158" transform="translate(144.674 1.97357) scale(0.019338) rotate(-20.408)"/>
<use xlink:href="#stroke0_983_158" transform="translate(146.744 1.27686) scale(0.019338) rotate(-10.4589)"/>
<use xlink:href="#stroke0_983_158" transform="translate(149.26 0.167618) scale(0.019338) rotate(4.73534)"/>
<use xlink:href="#stroke0_983_158" transform="translate(151.839 2.44241) scale(0.019338) rotate(18.0227)"/>
<use xlink:href="#stroke0_983_158" transform="translate(152.134 2.29485) scale(0.019338) rotate(-1.60676)"/>
<use xlink:href="#stroke0_983_158" transform="translate(154.801 2.19904) scale(0.019338) rotate(13.8838)"/>
<use xlink:href="#stroke0_983_158" transform="translate(154.662 2.96145) scale(0.019338) rotate(-16.0281)"/>
<use xlink:href="#stroke0_983_158" transform="translate(155.991 3.99736) scale(0.019338) rotate(-24.1519)"/>
<use xlink:href="#stroke0_983_158" transform="translate(160.923 -0.758454) scale(0.019338) rotate(29.5458)"/>
<use xlink:href="#stroke0_983_158" transform="translate(162.349 2.3972) scale(0.019338) rotate(26.9578)"/>
<use xlink:href="#stroke0_983_158" transform="translate(163.026 0.498477) scale(0.019338) rotate(14.5343)"/>
<use xlink:href="#stroke0_983_158" transform="translate(163.303 2.41812) scale(0.019338) rotate(-6.49354)"/>
<use xlink:href="#stroke0_983_158" transform="translate(166.028 1.75566) scale(0.019338) rotate(10.8162)"/>
<use xlink:href="#stroke0_983_158" transform="translate(165.727 2.24307) scale(0.019338) rotate(-26.642)"/>
<use xlink:href="#stroke0_983_158" transform="translate(168.667 1.88179) scale(0.019338) rotate(1.34223)"/>
<use xlink:href="#stroke0_983_158" transform="translate(168.958 4.15091) scale(0.019338) rotate(-28.0521)"/>
<use xlink:href="#stroke0_983_158" transform="translate(171.822 3.69391) scale(0.019338) rotate(-0.538516)"/>
<use xlink:href="#stroke0_983_158" transform="translate(172.25 3.10532) scale(0.019338) rotate(-27.2604)"/>
<use xlink:href="#stroke0_983_158" transform="translate(175.672 0.989429) scale(0.019338) rotate(8.40145)"/>
<use xlink:href="#stroke0_983_158" transform="translate(175.564 4.34836) scale(0.019338) rotate(-25.7732)"/>
<use xlink:href="#stroke0_983_158" transform="translate(180.231 2.12824) scale(0.019338) rotate(25.6127)"/>
<use xlink:href="#stroke0_983_158" transform="translate(181.376 1.89088) scale(0.019338) rotate(19.3536)"/>
<use xlink:href="#stroke0_983_158" transform="translate(181.201 2.03983) scale(0.019338) rotate(-8.21033)"/>
<use xlink:href="#stroke0_983_158" transform="translate(185.187 -0.0591526) scale(0.019338) rotate(26.2371)"/>
<use xlink:href="#stroke0_983_158" transform="translate(186.63 -0.492391) scale(0.019338) rotate(23.8242)"/>
<use xlink:href="#stroke0_983_158" transform="translate(186.535 3.37114) scale(0.019338) rotate(-0.629441)"/>
<use xlink:href="#stroke0_983_158" transform="translate(189.994 -0.550283) scale(0.019338) rotate(25.0036)"/>
<use xlink:href="#stroke0_983_158" transform="translate(189.412 1.73047) scale(0.019338) rotate(-7.54533)"/>
<use xlink:href="#stroke0_983_158" transform="translate(191.493 1.15473) scale(0.019338) rotate(0.236017)"/>
<use xlink:href="#stroke0_983_158" transform="translate(194.08 1.41181) scale(0.019338) rotate(14.3034)"/>
<use xlink:href="#stroke0_983_158" transform="translate(194.822 1.29289) scale(0.019338) rotate(1.17857)"/>
<use xlink:href="#stroke0_983_158" transform="translate(195.309 4.15349) scale(0.019338) rotate(-22.0889)"/>
<use xlink:href="#stroke0_983_158" transform="translate(198.7 1.18975) scale(0.019338) rotate(10.3144)"/>
<use xlink:href="#stroke0_983_158" transform="translate(198.515 5.21794) scale(0.019338) rotate(-23.9981)"/>
<use xlink:href="#stroke0_983_158" transform="translate(203.38 -0.511904) scale(0.019338) rotate(28.7744)"/>
<use xlink:href="#stroke0_983_158" transform="translate(203.23 3.38045) scale(0.019338) rotate(4.79474)"/>
<use xlink:href="#stroke0_983_158" transform="translate(203.289 5.30475) scale(0.019338) rotate(-28.4702)"/>
<use xlink:href="#stroke0_983_158" transform="translate(207.879 -0.832848) scale(0.019338) rotate(23.6918)"/>
<use xlink:href="#stroke0_983_158" transform="translate(209.861 -0.422938) scale(0.019338) rotate(28.0273)"/>
<use xlink:href="#stroke0_983_158" transform="translate(211.123 0.945379) scale(0.019338) rotate(23.354)"/>
<use xlink:href="#stroke0_983_158" transform="translate(211.215 3.42728) scale(0.019338) rotate(1.80534)"/>
<use xlink:href="#stroke0_983_158" transform="translate(213.281 1.64842) scale(0.019338) rotate(8.34164)"/>
<use xlink:href="#stroke0_983_158" transform="translate(215.875 1.45003) scale(0.019338) rotate(21.3782)"/>
<use xlink:href="#stroke0_983_158" transform="translate(214.735 4.10824) scale(0.019338) rotate(-28.5284)"/>
<use xlink:href="#stroke0_983_158" transform="translate(216.616 3.02693) scale(0.019338) rotate(-20.7823)"/>
<use xlink:href="#stroke0_983_158" transform="translate(221.317 1.47604) scale(0.019338) rotate(28.1318)"/>
<use xlink:href="#stroke0_983_158" transform="translate(221.061 2.59489) scale(0.019338) rotate(2.34441)"/>
<use xlink:href="#stroke0_983_158" transform="translate(222.389 3.78669) scale(0.019338) rotate(-2.70841)"/>
<use xlink:href="#stroke0_983_158" transform="translate(224.846 1.17741) scale(0.019338) rotate(10.0371)"/>
<use xlink:href="#stroke0_983_158" transform="translate(224.554 5.40223) scale(0.019338) rotate(-28.254)"/>
<use xlink:href="#stroke0_983_158" transform="translate(227.054 3.4517) scale(0.019338) rotate(-7.01383)"/>
<use xlink:href="#stroke0_983_158" transform="translate(229.238 3.18849) scale(0.019338) rotate(2.34709)"/>
<use xlink:href="#stroke0_983_158" transform="translate(230.394 2.41669) scale(0.019338) rotate(-5.7345)"/>
<use xlink:href="#stroke0_983_158" transform="translate(232.52 0.389154) scale(0.019338) rotate(2.52777)"/>
<use xlink:href="#stroke0_983_158" transform="translate(232.754 2.41196) scale(0.019338) rotate(-27.4214)"/>
<use xlink:href="#stroke0_983_158" transform="translate(234.83 3.11893) scale(0.019338) rotate(-15.2079)"/>
<use xlink:href="#stroke0_983_158" transform="translate(237.644 0.639869) scale(0.019338) rotate(5.8762)"/>
<use xlink:href="#stroke0_983_158" transform="translate(238.353 2.97869) scale(0.019338) rotate(-9.86214)"/>
<use xlink:href="#stroke0_983_158" transform="translate(242.144 0.678834) scale(0.019338) rotate(22.7096)"/>
<use xlink:href="#stroke0_983_158" transform="translate(241.216 2.92334) scale(0.019338) rotate(-18.9382)"/>
<use xlink:href="#stroke0_983_158" transform="translate(243.895 1.17893) scale(0.019338) rotate(1.38038)"/>
<use xlink:href="#stroke0_983_158" transform="translate(246.029 -0.357226) scale(0.019338) rotate(8.9447)"/>
<use xlink:href="#stroke0_983_158" transform="translate(246.405 1.60394) scale(0.019338) rotate(-12.4113)"/>
<use xlink:href="#stroke0_983_158" transform="translate(248.379 2.74307) scale(0.019338) rotate(-5.80692)"/>
<use xlink:href="#stroke0_983_158" transform="translate(252.192 1.17306) scale(0.019338) rotate(25.6931)"/>
<use xlink:href="#stroke0_983_158" transform="translate(251.494 3.01835) scale(0.019338) rotate(-8.72964)"/>
<use xlink:href="#stroke0_983_158" transform="translate(253.283 0.577171) scale(0.019338) rotate(-5.83399)"/>
<use xlink:href="#stroke0_983_158" transform="translate(257.144 1.45024) scale(0.019338) rotate(26.2581)"/>
<use xlink:href="#stroke0_983_158" transform="translate(258.872 -0.609948) scale(0.019338) rotate(27.416)"/>
<use xlink:href="#stroke0_983_158" transform="translate(259.614 -0.593954) scale(0.019338) rotate(15.9162)"/>
<use xlink:href="#stroke0_983_158" transform="translate(261.734 -0.235377) scale(0.019338) rotate(22.265)"/>
<use xlink:href="#stroke0_983_158" transform="translate(262.117 3.22663) scale(0.019338) rotate(5.00425)"/>
<use xlink:href="#stroke0_983_158" transform="translate(263.803 3.02478) scale(0.019338) rotate(5.77267)"/>
<use xlink:href="#stroke0_983_158" transform="translate(266.154 0.0159197) scale(0.019338) rotate(15.8997)"/>
<use xlink:href="#stroke0_983_158" transform="translate(265.545 4.0218) scale(0.019338) rotate(-24.586)"/>
<use xlink:href="#stroke0_983_158" transform="translate(270.455 2.20463) scale(0.019338) rotate(29.096)"/>
<use xlink:href="#stroke0_983_158" transform="translate(269.902 2.01052) scale(0.019338) rotate(-1.21477)"/>
<use xlink:href="#stroke0_983_158" transform="translate(270.361 3.76579) scale(0.019338) rotate(-27.621)"/>
<use xlink:href="#stroke0_983_158" transform="translate(272.029 2.36523) scale(0.019338) rotate(-26.4678)"/>
<use xlink:href="#stroke0_983_158" transform="translate(274.473 0.601974) scale(0.019338) rotate(-7.11617)"/>
<use xlink:href="#stroke0_983_158" transform="translate(277.003 3.01877) scale(0.019338) rotate(7.52149)"/>
<use xlink:href="#stroke0_983_158" transform="translate(277.543 3.81332) scale(0.019338) rotate(-11.0268)"/>
<use xlink:href="#stroke0_983_158" transform="translate(280.647 1.49485) scale(0.019338) rotate(12.8356)"/>
<use xlink:href="#stroke0_983_158" transform="translate(280.254 4.21426) scale(0.019338) rotate(-24.886)"/>
<use xlink:href="#stroke0_983_158" transform="translate(283.781 2.7777) scale(0.019338) rotate(10.9271)"/>
<use xlink:href="#stroke0_983_158" transform="translate(286.679 1.87371) scale(0.019338) rotate(27.4984)"/>
<use xlink:href="#stroke0_983_158" transform="translate(287.793 1.9586) scale(0.019338) rotate(20.9004)"/>
<use xlink:href="#stroke0_983_158" transform="translate(287.33 2.7718) scale(0.019338) rotate(-11.5574)"/>
<use xlink:href="#stroke0_983_158" transform="translate(288.326 2.6001) scale(0.019338) rotate(-28.5033)"/>
<use xlink:href="#stroke0_983_158" transform="translate(290.789 0.768694) scale(0.019338) rotate(-7.83062)"/>
<use xlink:href="#stroke0_983_158" transform="translate(294.564 0.275784) scale(0.019338) rotate(23.8366)"/>
<use xlink:href="#stroke0_983_158" transform="translate(293.855 1.09569) scale(0.019338) rotate(-11.8985)"/>
<use xlink:href="#stroke0_983_158" transform="translate(295.127 2.72243) scale(0.019338) rotate(-20.3764)"/>
<use xlink:href="#stroke0_983_158" transform="translate(298.438 0.274033) scale(0.019338) rotate(10.0556)"/>
<use xlink:href="#stroke0_983_158" transform="translate(299.254 2.58274) scale(0.019338) rotate(-2.64609)"/>
<use xlink:href="#stroke0_983_158" transform="translate(299.971 2.30632) scale(0.019338) rotate(-22.0858)"/>
<use xlink:href="#stroke0_983_158" transform="translate(304.163 0.586502) scale(0.019338) rotate(21.1112)"/>
<use xlink:href="#stroke0_983_158" transform="translate(305.321 1.5868) scale(0.019338) rotate(14.8102)"/>
<use xlink:href="#stroke0_983_158" transform="translate(306.694 3.07759) scale(0.019338) rotate(11.1817)"/>
<use xlink:href="#stroke0_983_158" transform="translate(308.843 2.28911) scale(0.019338) rotate(18.1615)"/>
<use xlink:href="#stroke0_983_158" transform="translate(311.105 1.63424) scale(0.019338) rotate(26.197)"/>
<use xlink:href="#stroke0_983_158" transform="translate(309.707 5.31291) scale(0.019338) rotate(-24.3663)"/>
<use xlink:href="#stroke0_983_158" transform="translate(312.033 3.0182) scale(0.019338) rotate(-8.13224)"/>
<use xlink:href="#stroke0_983_158" transform="translate(315.837 0.533638) scale(0.019338) rotate(24.0061)"/>
<use xlink:href="#stroke0_983_158" transform="translate(316.503 0.365474) scale(0.019338) rotate(11.1286)"/>
<use xlink:href="#stroke0_983_158" transform="translate(318.403 1.99668) scale(0.019338) rotate(14.7951)"/>
<use xlink:href="#stroke0_983_158" transform="translate(318.128 3.19656) scale(0.019338) rotate(-17.666)"/>
<use xlink:href="#stroke0_983_158" transform="translate(320.018 1.13041) scale(0.019338) rotate(-11.9506)"/>
<use xlink:href="#stroke0_983_158" transform="translate(323.467 0.188515) scale(0.019338) rotate(16.9254)"/>
<use xlink:href="#stroke0_983_158" transform="translate(325.544 0.672261) scale(0.019338) rotate(22.665)"/>
<use xlink:href="#stroke0_983_158" transform="translate(326.694 1.5352) scale(0.019338) rotate(16.3359)"/>
<use xlink:href="#stroke0_983_158" transform="translate(327.901 0.372623) scale(0.019338) rotate(10.4302)"/>
<use xlink:href="#stroke0_983_158" transform="translate(330.685 1.54219) scale(0.019338) rotate(25.6442)"/>
<use xlink:href="#stroke0_983_158" transform="translate(330.623 1.62332) scale(0.019338) rotate(2.23414)"/>
<use xlink:href="#stroke0_983_158" transform="translate(331.684 2.98668) scale(0.019338) rotate(-7.61761)"/>
<use xlink:href="#stroke0_983_158" transform="translate(332.916 1.42384) scale(0.019338) rotate(-16.0096)"/>
<use xlink:href="#stroke0_983_158" transform="translate(334.937 3.21883) scale(0.019338) rotate(-7.94243)"/>
<use xlink:href="#stroke0_983_158" transform="translate(336.028 1.64797) scale(0.019338) rotate(-19.9174)"/>
<use xlink:href="#stroke0_983_158" transform="translate(337.497 3.9693) scale(0.019338) rotate(-24.7051)"/>
<use xlink:href="#stroke0_983_158" transform="translate(339.764 3.32299) scale(0.019338) rotate(-9.47175)"/>
<use xlink:href="#stroke0_983_158" transform="translate(342.136 0.0024066) scale(0.019338) rotate(3.2762)"/>
<use xlink:href="#stroke0_983_158" transform="translate(343.63 2.78031) scale(0.019338) rotate(1.02824)"/>
<use xlink:href="#stroke0_983_158" transform="translate(346.557 1.63296) scale(0.019338) rotate(19.4879)"/>
<use xlink:href="#stroke0_983_158" transform="translate(348.527 1.16121) scale(0.019338) rotate(23.7888)"/>
<use xlink:href="#stroke0_983_158" transform="translate(347.988 4.15756) scale(0.019338) rotate(-8.56755)"/>
<use xlink:href="#stroke0_983_158" transform="translate(350.839 -0.348013) scale(0.019338) rotate(11.0475)"/>
<use xlink:href="#stroke0_983_158" transform="translate(351.78 0.520146) scale(0.019338) rotate(0.60768)"/>
<use xlink:href="#stroke0_983_158" transform="translate(353.887 2.20106) scale(0.019338) rotate(7.85226)"/>
<use xlink:href="#stroke0_983_158" transform="translate(355.34 0.734328) scale(0.019338) rotate(5.1356)"/>
<use xlink:href="#stroke0_983_158" transform="translate(357.714 0.644671) scale(0.019338) rotate(15.6446)"/>
<use xlink:href="#stroke0_983_158" transform="translate(359.57 -0.0268903) scale(0.019338) rotate(18.5756)"/>
<use xlink:href="#stroke0_983_158" transform="translate(359.259 4.41404) scale(0.019338) rotate(-12.1041)"/>
<use xlink:href="#stroke0_983_158" transform="translate(361.633 1.38781) scale(0.019338) rotate(1.25249)"/>
<use xlink:href="#stroke0_983_158" transform="translate(363.859 3.07607) scale(0.019338) rotate(10.1542)"/>
<use xlink:href="#stroke0_983_158" transform="translate(364.359 0.758527) scale(0.019338) rotate(-8.22672)"/>
<use xlink:href="#stroke0_983_158" transform="translate(365.474 1.70456) scale(0.019338) rotate(-19.6683)"/>
<use xlink:href="#stroke0_983_158" transform="translate(369.172 0.465738) scale(0.019338) rotate(15.7899)"/>
<use xlink:href="#stroke0_983_158" transform="translate(369.6 1.18116) scale(0.019338) rotate(-2.19936)"/>
<use xlink:href="#stroke0_983_158" transform="translate(372.346 2.79388) scale(0.019338) rotate(14.4739)"/>
<use xlink:href="#stroke0_983_158" transform="translate(371.998 4.15285) scale(0.019338) rotate(-20.1307)"/>
<use xlink:href="#stroke0_983_158" transform="translate(374.246 3.15777) scale(0.019338) rotate(-6.81316)"/>
<use xlink:href="#stroke0_983_158" transform="translate(378.407 1.02597) scale(0.019338) rotate(29.3249)"/>
<use xlink:href="#stroke0_983_158" transform="translate(378.153 0.0628157) scale(0.019338) rotate(3.87999)"/>
<use xlink:href="#stroke0_983_158" transform="translate(380.481 0.294989) scale(0.019338) rotate(13.898)"/>
<use xlink:href="#stroke0_983_158" transform="translate(380.354 3.45255) scale(0.019338) rotate(-15.7193)"/>
<use xlink:href="#stroke0_983_158" transform="translate(383.137 2.56844) scale(0.019338) rotate(5.07555)"/>
<use xlink:href="#stroke0_983_158" transform="translate(386.604 -0.469628) scale(0.019338) rotate(29.5801)"/>
<use xlink:href="#stroke0_983_158" transform="translate(385.571 1.53691) scale(0.019338) rotate(-9.13812)"/>
<use xlink:href="#stroke0_983_158" transform="translate(387.735 1.50549) scale(0.019338) rotate(0.224869)"/>
<use xlink:href="#stroke0_983_158" transform="translate(390.181 0.631573) scale(0.019338) rotate(12.3637)"/>
<use xlink:href="#stroke0_983_158" transform="translate(391.795 1.08835) scale(0.019338) rotate(12.0557)"/>
<use xlink:href="#stroke0_983_158" transform="translate(393.661 1.55229) scale(0.019338) rotate(15.2334)"/>
<use xlink:href="#stroke0_983_158" transform="translate(395.435 1.07284) scale(0.019338) rotate(17.0838)"/>
<use xlink:href="#stroke0_983_158" transform="translate(397.916 0.754069) scale(0.019338) rotate(27.9054)"/>
<use xlink:href="#stroke0_983_158" transform="translate(399.252 0.273745) scale(0.019338) rotate(24.1548)"/>
<use xlink:href="#stroke0_983_158" transform="translate(398.714 3.45239) scale(0.019338) rotate(-7.97723)"/>
<use xlink:href="#stroke0_983_158" transform="translate(402.177 2.06844) scale(0.019338) rotate(19.7305)"/>
<use xlink:href="#stroke0_983_158" transform="translate(401.372 4.14783) scale(0.019338) rotate(-21.8186)"/>
<use xlink:href="#stroke0_983_158" transform="translate(403.601 2.89246) scale(0.019338) rotate(-8.34393)"/>
<use xlink:href="#stroke0_983_158" transform="translate(405.412 0.511014) scale(0.019338) rotate(-5.09804)"/>
<use xlink:href="#stroke0_983_158" transform="translate(408.125 0.336643) scale(0.019338) rotate(11.7315)"/>
<use xlink:href="#stroke0_983_158" transform="translate(408.907 2.30034) scale(0.019338) rotate(-1.21757)"/>
<use xlink:href="#stroke0_983_158" transform="translate(410.159 3.96901) scale(0.019338) rotate(-8.02534)"/>
<use xlink:href="#stroke0_983_158" transform="translate(411.279 1.78795) scale(0.019338) rotate(-19.2819)"/>
<use xlink:href="#stroke0_983_158" transform="translate(413.023 3.13522) scale(0.019338) rotate(-16.6025)"/>
<use xlink:href="#stroke0_983_158" transform="translate(414.26 4.58242) scale(0.019338) rotate(-28.0586)"/>
<use xlink:href="#stroke0_983_158" transform="translate(425.332 3.68736) scale(0.019338) rotate(107.047)"/>
<use xlink:href="#stroke0_983_158" transform="translate(425.456 5.57721) scale(0.019338) rotate(110.388)"/>
<use xlink:href="#stroke0_983_158" transform="translate(422.706 6.46302) scale(0.019338) rotate(100.246)"/>
<use xlink:href="#stroke0_983_158" transform="translate(423.896 6.91742) scale(0.019338) rotate(81.0195)"/>
<use xlink:href="#stroke0_983_158" transform="translate(422.77 8.26782) scale(0.019338) rotate(75.0727)"/>
<use xlink:href="#stroke0_983_158" transform="translate(421.991 10.5164) scale(0.019338) rotate(87.0126)"/>
<use xlink:href="#stroke0_983_158" transform="translate(424.016 12.1605) scale(0.019338) rotate(87.1638)"/>
<use xlink:href="#stroke0_983_158" transform="translate(422.392 13.0424) scale(0.019338) rotate(71.9718)"/>
<use xlink:href="#stroke0_983_158" transform="translate(423.529 14.3963) scale(0.019338) rotate(63.9724)"/>
<use xlink:href="#stroke0_983_158" transform="translate(424.266 17.937) scale(0.019338) rotate(100.623)"/>
<use xlink:href="#stroke0_983_158" transform="translate(422.088 17.7758) scale(0.019338) rotate(67.3597)"/>
<use xlink:href="#stroke0_983_158" transform="translate(424.018 21.2432) scale(0.019338) rotate(101.125)"/>
<use xlink:href="#stroke0_983_158" transform="translate(420.26 20.928) scale(0.019338) rotate(63.6467)"/>
<use xlink:href="#stroke0_983_158" transform="translate(420.097 22.5118) scale(0.019338) rotate(61.8125)"/>
<use xlink:href="#stroke0_983_158" transform="translate(425.929 27.0995) scale(0.019338) rotate(113.755)"/>
<use xlink:href="#stroke0_983_158" transform="translate(422.918 27.2855) scale(0.019338) rotate(93.7769)"/>
<use xlink:href="#stroke0_983_158" transform="translate(424.477 28.6773) scale(0.019338) rotate(89.9033)"/>
<use xlink:href="#stroke0_983_158" transform="translate(424.939 31.9482) scale(0.019338) rotate(113.027)"/>
<use xlink:href="#stroke0_983_158" transform="translate(421.136 30.9343) scale(0.019338) rotate(69.473)"/>
<use xlink:href="#stroke0_983_158" transform="translate(422.579 32.4484) scale(0.019338) rotate(66.0002)"/>
<use xlink:href="#stroke0_983_158" transform="translate(426.051 37.1968) scale(0.019338) rotate(117.333)"/>
<use xlink:href="#stroke0_983_158" transform="translate(425.629 38.1353) scale(0.019338) rotate(108.445)"/>
<use xlink:href="#stroke0_983_158" transform="translate(422.842 40.1251) scale(0.019338) rotate(113.029)"/>
<use xlink:href="#stroke0_983_158" transform="translate(422.058 40.0762) scale(0.019338) rotate(89.1018)"/>
<use xlink:href="#stroke0_983_158" transform="translate(423.206 42.317) scale(0.019338) rotate(98.468)"/>
<use xlink:href="#stroke0_983_158" transform="translate(423.991 42.8376) scale(0.019338) rotate(79.8871)"/>
<use xlink:href="#stroke0_983_158" transform="translate(424.996 45.7022) scale(0.019338) rotate(100.115)"/>
<use xlink:href="#stroke0_983_158" transform="translate(421.868 46.2059) scale(0.019338) rotate(81.7928)"/>
<use xlink:href="#stroke0_983_158" transform="translate(423.59 49.3755) scale(0.019338) rotate(105.686)"/>
<use xlink:href="#stroke0_983_158" transform="translate(424.294 51.6196) scale(0.019338) rotate(113.626)"/>
<use xlink:href="#stroke0_983_158" transform="translate(423.72 51.3938) scale(0.019338) rotate(86.9031)"/>
<use xlink:href="#stroke0_983_158" transform="translate(424.373 54.396) scale(0.019338) rotate(107.217)"/>
<use xlink:href="#stroke0_983_158" transform="translate(423.163 53.8481) scale(0.019338) rotate(69.9774)"/>
<use xlink:href="#stroke0_983_158" transform="translate(424.819 57.5888) scale(0.019338) rotate(106.178)"/>
<use xlink:href="#stroke0_983_158" transform="translate(421.353 57.5599) scale(0.019338) rotate(79.9699)"/>
<use xlink:href="#stroke0_983_158" transform="translate(426.357 61.4014) scale(0.019338) rotate(113.242)"/>
<use xlink:href="#stroke0_983_158" transform="translate(421.656 60.2872) scale(0.019338) rotate(67.1359)"/>
<use xlink:href="#stroke0_983_158" transform="translate(420.869 61.8519) scale(0.019338) rotate(64.9726)"/>
<use xlink:href="#stroke0_983_158" transform="translate(422.593 63.8579) scale(0.019338) rotate(74.8063)"/>
<use xlink:href="#stroke0_983_158" transform="translate(423.509 67.2672) scale(0.019338) rotate(104.37)"/>
<use xlink:href="#stroke0_983_158" transform="translate(422.163 73.3554) scale(0.019338) rotate(-174.288)"/>
<use xlink:href="#stroke0_983_158" transform="translate(419.663 73.2712) scale(0.019338) rotate(-162.165)"/>
<use xlink:href="#stroke0_983_158" transform="translate(417.791 75.7658) scale(0.019338) rotate(-159.077)"/>
<use xlink:href="#stroke0_983_158" transform="translate(418.209 72.6128) scale(0.019338) rotate(169.402)"/>
<use xlink:href="#stroke0_983_158" transform="translate(417.298 71.27) scale(0.019338) rotate(150.004)"/>
<use xlink:href="#stroke0_983_158" transform="translate(413.211 75.9975) scale(0.019338) rotate(-163.357)"/>
<use xlink:href="#stroke0_983_158" transform="translate(413.245 72.9497) scale(0.019338) rotate(170.575)"/>
<use xlink:href="#stroke0_983_158" transform="translate(411.221 73.1004) scale(0.019338) rotate(177.655)"/>
<use xlink:href="#stroke0_983_158" transform="translate(409.839 75.1995) scale(0.019338) rotate(173.144)"/>
<use xlink:href="#stroke0_983_158" transform="translate(408.946 71.2569) scale(0.019338) rotate(156.143)"/>
<use xlink:href="#stroke0_983_158" transform="translate(404.477 76.5507) scale(0.019338) rotate(-156.113)"/>
<use xlink:href="#stroke0_983_158" transform="translate(405.85 71.7239) scale(0.019338) rotate(150.041)"/>
<use xlink:href="#stroke0_983_158" transform="translate(403.669 73.1836) scale(0.019338) rotate(165.635)"/>
<use xlink:href="#stroke0_983_158" transform="translate(402.522 70.9973) scale(0.019338) rotate(152.252)"/>
<use xlink:href="#stroke0_983_158" transform="translate(398.827 74.0639) scale(0.019338) rotate(-167.914)"/>
<use xlink:href="#stroke0_983_158" transform="translate(397.788 74.6171) scale(0.019338) rotate(-176.659)"/>
<use xlink:href="#stroke0_983_158" transform="translate(395.789 73.9694) scale(0.019338) rotate(-171.22)"/>
<use xlink:href="#stroke0_983_158" transform="translate(395.374 71.418) scale(0.019338) rotate(168.195)"/>
<use xlink:href="#stroke0_983_158" transform="translate(394.311 70.4464) scale(0.019338) rotate(153.448)"/>
<use xlink:href="#stroke0_983_158" transform="translate(390.44 76.3317) scale(0.019338) rotate(-165.018)"/>
<use xlink:href="#stroke0_983_158" transform="translate(388.866 75.455) scale(0.019338) rotate(-165.856)"/>
<use xlink:href="#stroke0_983_158" transform="translate(386.032 75.068) scale(0.019338) rotate(-150.427)"/>
<use xlink:href="#stroke0_983_158" transform="translate(384.699 74.4631) scale(0.019338) rotate(-154.174)"/>
<use xlink:href="#stroke0_983_158" transform="translate(383.194 73.406) scale(0.019338) rotate(-155.821)"/>
<use xlink:href="#stroke0_983_158" transform="translate(384.044 74.1627) scale(0.019338) rotate(165.655)"/>
<use xlink:href="#stroke0_983_158" transform="translate(381.854 73.5098) scale(0.019338) rotate(176.451)"/>
<use xlink:href="#stroke0_983_158" transform="translate(380.757 71.5705) scale(0.019338) rotate(166.017)"/>
<use xlink:href="#stroke0_983_158" transform="translate(379.282 71.1597) scale(0.019338) rotate(162.301)"/>
<use xlink:href="#stroke0_983_158" transform="translate(376.846 74.1906) scale(0.019338) rotate(178.2)"/>
<use xlink:href="#stroke0_983_158" transform="translate(373.554 74.171) scale(0.019338) rotate(-158.012)"/>
<use xlink:href="#stroke0_983_158" transform="translate(372.118 73.2654) scale(0.019338) rotate(-160.586)"/>
<use xlink:href="#stroke0_983_158" transform="translate(369.757 76.406) scale(0.019338) rotate(-151.394)"/>
<use xlink:href="#stroke0_983_158" transform="translate(370.16 74.845) scale(0.019338) rotate(-179.399)"/>
<use xlink:href="#stroke0_983_158" transform="translate(369.806 71.8294) scale(0.019338) rotate(152.557)"/>
<use xlink:href="#stroke0_983_158" transform="translate(367.656 74.0603) scale(0.019338) rotate(166.421)"/>
<use xlink:href="#stroke0_983_158" transform="translate(364.082 74.5504) scale(0.019338) rotate(-162.437)"/>
<use xlink:href="#stroke0_983_158" transform="translate(364.842 70.4029) scale(0.019338) rotate(154.551)"/>
<use xlink:href="#stroke0_983_158" transform="translate(362.285 73.0867) scale(0.019338) rotate(175.491)"/>
<use xlink:href="#stroke0_983_158" transform="translate(360.97 72.2025) scale(0.019338) rotate(169.443)"/>
<use xlink:href="#stroke0_983_158" transform="translate(358.7 74.969) scale(0.019338) rotate(-179.209)"/>
<use xlink:href="#stroke0_983_158" transform="translate(357.119 72.3471) scale(0.019338) rotate(179.912)"/>
<use xlink:href="#stroke0_983_158" transform="translate(356.749 73.4485) scale(0.019338) rotate(151.625)"/>
<use xlink:href="#stroke0_983_158" transform="translate(353.27 74.4733) scale(0.019338) rotate(-171.211)"/>
<use xlink:href="#stroke0_983_158" transform="translate(353.497 70.7744) scale(0.019338) rotate(150.887)"/>
<use xlink:href="#stroke0_983_158" transform="translate(350.99 73.0988) scale(0.019338) rotate(172.704)"/>
<use xlink:href="#stroke0_983_158" transform="translate(350.082 73.6585) scale(0.019338) rotate(155.86)"/>
<use xlink:href="#stroke0_983_158" transform="translate(345.286 74.2588) scale(0.019338) rotate(-152.129)"/>
<use xlink:href="#stroke0_983_158" transform="translate(344.133 73.8716) scale(0.019338) rotate(-158.2)"/>
<use xlink:href="#stroke0_983_158" transform="translate(343.767 73.3133) scale(0.019338) rotate(-175.818)"/>
<use xlink:href="#stroke0_983_158" transform="translate(341.407 73.2884) scale(0.019338) rotate(-165.388)"/>
<use xlink:href="#stroke0_983_158" transform="translate(340.831 72.3236) scale(0.019338) rotate(178.825)"/>
<use xlink:href="#stroke0_983_158" transform="translate(339.372 73.9117) scale(0.019338) rotate(175.809)"/>
<use xlink:href="#stroke0_983_158" transform="translate(336.699 74.3559) scale(0.019338) rotate(-168.12)"/>
<use xlink:href="#stroke0_983_158" transform="translate(335.771 75.5794) scale(0.019338) rotate(-178.657)"/>
<use xlink:href="#stroke0_983_158" transform="translate(332.505 74.4225) scale(0.019338) rotate(-155.901)"/>
<use xlink:href="#stroke0_983_158" transform="translate(333.607 71.9814) scale(0.019338) rotate(159.366)"/>
<use xlink:href="#stroke0_983_158" transform="translate(329.48 76.587) scale(0.019338) rotate(-159.04)"/>
<use xlink:href="#stroke0_983_158" transform="translate(329.29 75.2264) scale(0.019338) rotate(-179.625)"/>
<use xlink:href="#stroke0_983_158" transform="translate(328.772 70.6928) scale(0.019338) rotate(157.365)"/>
<use xlink:href="#stroke0_983_158" transform="translate(324.931 74.5828) scale(0.019338) rotate(-163.734)"/>
<use xlink:href="#stroke0_983_158" transform="translate(325.585 73.4847) scale(0.019338) rotate(154.817)"/>
<use xlink:href="#stroke0_983_158" transform="translate(324.012 70.7079) scale(0.019338) rotate(152.696)"/>
<use xlink:href="#stroke0_983_158" transform="translate(320.073 75.009) scale(0.019338) rotate(-164.383)"/>
<use xlink:href="#stroke0_983_158" transform="translate(319.236 75.4084) scale(0.019338) rotate(-175.81)"/>
<use xlink:href="#stroke0_983_158" transform="translate(315.942 75.1603) scale(0.019338) rotate(-153.275)"/>
<use xlink:href="#stroke0_983_158" transform="translate(317.034 73.7902) scale(0.019338) rotate(164.784)"/>
<use xlink:href="#stroke0_983_158" transform="translate(313.481 75.27) scale(0.019338) rotate(-163.702)"/>
<use xlink:href="#stroke0_983_158" transform="translate(312.934 74.9463) scale(0.019338) rotate(-179.582)"/>
<use xlink:href="#stroke0_983_158" transform="translate(311.124 73.8079) scale(0.019338) rotate(-176.801)"/>
<use xlink:href="#stroke0_983_158" transform="translate(309.643 75.5394) scale(0.019338) rotate(-179.261)"/>
<use xlink:href="#stroke0_983_158" transform="translate(308.807 74.4584) scale(0.019338) rotate(165.897)"/>
<use xlink:href="#stroke0_983_158" transform="translate(307.716 70.4239) scale(0.019338) rotate(150.534)"/>
<use xlink:href="#stroke0_983_158" transform="translate(304.216 72.6515) scale(0.019338) rotate(-171.31)"/>
<use xlink:href="#stroke0_983_158" transform="translate(302.733 74.7289) scale(0.019338) rotate(-173.543)"/>
<use xlink:href="#stroke0_983_158" transform="translate(302.765 72.3761) scale(0.019338) rotate(152.266)"/>
<use xlink:href="#stroke0_983_158" transform="translate(299.95 75.0159) scale(0.019338) rotate(178.79)"/>
<use xlink:href="#stroke0_983_158" transform="translate(298.395 72.9653) scale(0.019338) rotate(177.424)"/>
<use xlink:href="#stroke0_983_158" transform="translate(296.076 74.4015) scale(0.019338) rotate(-171.848)"/>
<use xlink:href="#stroke0_983_158" transform="translate(294.278 72.6734) scale(0.019338) rotate(-169.497)"/>
<use xlink:href="#stroke0_983_158" transform="translate(292.452 74.9759) scale(0.019338) rotate(-166.832)"/>
<use xlink:href="#stroke0_983_158" transform="translate(289.643 76.3198) scale(0.019338) rotate(-151.614)"/>
<use xlink:href="#stroke0_983_158" transform="translate(291.017 73.0676) scale(0.019338) rotate(161.216)"/>
<use xlink:href="#stroke0_983_158" transform="translate(289.69 70.8857) scale(0.019338) rotate(151.986)"/>
<use xlink:href="#stroke0_983_158" transform="translate(284.795 74.5632) scale(0.019338) rotate(-152.344)"/>
<use xlink:href="#stroke0_983_158" transform="translate(286.469 72.915) scale(0.019338) rotate(150.067)"/>
<use xlink:href="#stroke0_983_158" transform="translate(284.616 71.0769) scale(0.019338) rotate(157.428)"/>
<use xlink:href="#stroke0_983_158" transform="translate(283.046 72.2305) scale(0.019338) rotate(155.467)"/>
<use xlink:href="#stroke0_983_158" transform="translate(278.448 73.9778) scale(0.019338) rotate(-154.767)"/>
<use xlink:href="#stroke0_983_158" transform="translate(278.95 75.0698) scale(0.019338) rotate(174.279)"/>
<use xlink:href="#stroke0_983_158" transform="translate(275.838 73.6404) scale(0.019338) rotate(-163.305)"/>
<use xlink:href="#stroke0_983_158" transform="translate(273.474 75.1022) scale(0.019338) rotate(-153.913)"/>
<use xlink:href="#stroke0_983_158" transform="translate(273.148 75.0188) scale(0.019338) rotate(-171.36)"/>
<use xlink:href="#stroke0_983_158" transform="translate(272.12 72.8799) scale(0.019338) rotate(179.268)"/>
<use xlink:href="#stroke0_983_158" transform="translate(271.482 71.8369) scale(0.019338) rotate(158.879)"/>
<use xlink:href="#stroke0_983_158" transform="translate(268.961 74.7261) scale(0.019338) rotate(177.382)"/>
<use xlink:href="#stroke0_983_158" transform="translate(266.649 75.6626) scale(0.019338) rotate(-171.981)"/>
<use xlink:href="#stroke0_983_158" transform="translate(265.547 75.6448) scale(0.019338) rotate(179.795)"/>
<use xlink:href="#stroke0_983_158" transform="translate(264.126 74.379) scale(0.019338) rotate(176.153)"/>
<use xlink:href="#stroke0_983_158" transform="translate(261.078 74.6658) scale(0.019338) rotate(-162.742)"/>
<use xlink:href="#stroke0_983_158" transform="translate(261.359 72.8719) scale(0.019338) rotate(166.403)"/>
<use xlink:href="#stroke0_983_158" transform="translate(257.97 73.6073) scale(0.019338) rotate(-164.922)"/>
<use xlink:href="#stroke0_983_158" transform="translate(257.74 74.18) scale(0.019338) rotate(173.357)"/>
<use xlink:href="#stroke0_983_158" transform="translate(256.989 72.8942) scale(0.019338) rotate(151.745)"/>
<use xlink:href="#stroke0_983_158" transform="translate(254.348 73.0519) scale(0.019338) rotate(175.549)"/>
<use xlink:href="#stroke0_983_158" transform="translate(252.342 73.5624) scale(0.019338) rotate(-178.241)"/>
<use xlink:href="#stroke0_983_158" transform="translate(252.055 70.8518) scale(0.019338) rotate(152.783)"/>
<use xlink:href="#stroke0_983_158" transform="translate(250.15 72.6327) scale(0.019338) rotate(160.794)"/>
<use xlink:href="#stroke0_983_158" transform="translate(247.219 73.8568) scale(0.019338) rotate(-174.862)"/>
<use xlink:href="#stroke0_983_158" transform="translate(244.775 73.8469) scale(0.019338) rotate(-163.415)"/>
<use xlink:href="#stroke0_983_158" transform="translate(244.632 73.9539) scale(0.019338) rotate(173.83)"/>
<use xlink:href="#stroke0_983_158" transform="translate(243.944 73.0549) scale(0.019338) rotate(150.296)"/>
<use xlink:href="#stroke0_983_158" transform="translate(239.546 74.4739) scale(0.019338) rotate(-159.179)"/>
<use xlink:href="#stroke0_983_158" transform="translate(238.345 73.4171) scale(0.019338) rotate(-164.917)"/>
<use xlink:href="#stroke0_983_158" transform="translate(238.301 72.9435) scale(0.019338) rotate(169.798)"/>
<use xlink:href="#stroke0_983_158" transform="translate(237.341 71.6645) scale(0.019338) rotate(152.623)"/>
<use xlink:href="#stroke0_983_158" transform="translate(232.5 76.5313) scale(0.019338) rotate(-152.786)"/>
<use xlink:href="#stroke0_983_158" transform="translate(232.682 72.4182) scale(0.019338) rotate(-177.663)"/>
<use xlink:href="#stroke0_983_158" transform="translate(229.156 75.2145) scale(0.019338) rotate(-151.879)"/>
<use xlink:href="#stroke0_983_158" transform="translate(229.885 71.8147) scale(0.019338) rotate(174.347)"/>
<use xlink:href="#stroke0_983_158" transform="translate(229.2 71.5118) scale(0.019338) rotate(151.3)"/>
<use xlink:href="#stroke0_983_158" transform="translate(227.079 71.6706) scale(0.019338) rotate(165.018)"/>
<use xlink:href="#stroke0_983_158" transform="translate(223.955 72.9364) scale(0.019338) rotate(-169.455)"/>
<use xlink:href="#stroke0_983_158" transform="translate(221.86 74.167) scale(0.019338) rotate(-163.153)"/>
<use xlink:href="#stroke0_983_158" transform="translate(220.923 72.6461) scale(0.019338) rotate(-172.916)"/>
<use xlink:href="#stroke0_983_158" transform="translate(217.618 74.0153) scale(0.019338) rotate(-150.757)"/>
<use xlink:href="#stroke0_983_158" transform="translate(217.831 75.7902) scale(0.019338) rotate(-175.605)"/>
<use xlink:href="#stroke0_983_158" transform="translate(217.554 74.0826) scale(0.019338) rotate(157.778)"/>
<use xlink:href="#stroke0_983_158" transform="translate(215.652 72.7106) scale(0.019338) rotate(164.552)"/>
<use xlink:href="#stroke0_983_158" transform="translate(213.433 73.07) scale(0.019338) rotate(176.116)"/>
<use xlink:href="#stroke0_983_158" transform="translate(212.015 72.4645) scale(0.019338) rotate(172.146)"/>
<use xlink:href="#stroke0_983_158" transform="translate(211.059 72.3285) scale(0.019338) rotate(156.423)"/>
<use xlink:href="#stroke0_983_158" transform="translate(208.106 73.2858) scale(0.019338) rotate(-176.952)"/>
<use xlink:href="#stroke0_983_158" transform="translate(205.278 73.562) scale(0.019338) rotate(-160.136)"/>
<use xlink:href="#stroke0_983_158" transform="translate(203.662 75.4692) scale(0.019338) rotate(-160.392)"/>
<use xlink:href="#stroke0_983_158" transform="translate(204.498 72.6731) scale(0.019338) rotate(157.012)"/>
<use xlink:href="#stroke0_983_158" transform="translate(201.338 74.7679) scale(0.019338) rotate(-173.496)"/>
<use xlink:href="#stroke0_983_158" transform="translate(199.926 72.4217) scale(0.019338) rotate(-176.893)"/>
<use xlink:href="#stroke0_983_158" transform="translate(196.655 75.9224) scale(0.019338) rotate(-154.449)"/>
<use xlink:href="#stroke0_983_158" transform="translate(197.844 72.9658) scale(0.019338) rotate(160.139)"/>
<use xlink:href="#stroke0_983_158" transform="translate(195.474 74.3352) scale(0.019338) rotate(175.592)"/>
<use xlink:href="#stroke0_983_158" transform="translate(193.231 75.4686) scale(0.019338) rotate(-174.542)"/>
<use xlink:href="#stroke0_983_158" transform="translate(193.244 73.5213) scale(0.019338) rotate(150.475)"/>
<use xlink:href="#stroke0_983_158" transform="translate(191.464 71.6512) scale(0.019338) rotate(155.536)"/>
<use xlink:href="#stroke0_983_158" transform="translate(189.648 74.3286) scale(0.019338) rotate(160.64)"/>
<use xlink:href="#stroke0_983_158" transform="translate(188.327 71.3579) scale(0.019338) rotate(150.894)"/>
<use xlink:href="#stroke0_983_158" transform="translate(185.549 73.0473) scale(0.019338) rotate(177.545)"/>
<use xlink:href="#stroke0_983_158" transform="translate(184.697 74.4237) scale(0.019338) rotate(161.79)"/>
<use xlink:href="#stroke0_983_158" transform="translate(182.904 72.3282) scale(0.019338) rotate(165.488)"/>
<use xlink:href="#stroke0_983_158" transform="translate(179.373 74.1236) scale(0.019338) rotate(-163.57)"/>
<use xlink:href="#stroke0_983_158" transform="translate(179.574 73.7994) scale(0.019338) rotate(166.78)"/>
<use xlink:href="#stroke0_983_158" transform="translate(177.029 74.5081) scale(0.019338) rotate(-176.863)"/>
<use xlink:href="#stroke0_983_158" transform="translate(173.818 75.4466) scale(0.019338) rotate(-155.165)"/>
<use xlink:href="#stroke0_983_158" transform="translate(172.856 74.3952) scale(0.019338) rotate(-163.905)"/>
<use xlink:href="#stroke0_983_158" transform="translate(171.169 74.1518) scale(0.019338) rotate(-163.211)"/>
<use xlink:href="#stroke0_983_158" transform="translate(170.81 72.104) scale(0.019338) rotate(177.893)"/>
<use xlink:href="#stroke0_983_158" transform="translate(170.341 70.2383) scale(0.019338) rotate(150.773)"/>
<use xlink:href="#stroke0_983_158" transform="translate(167.569 73.3507) scale(0.019338) rotate(177.396)"/>
<use xlink:href="#stroke0_983_158" transform="translate(165.584 73.8631) scale(0.019338) rotate(-176.907)"/>
<use xlink:href="#stroke0_983_158" transform="translate(163.414 72.7117) scale(0.019338) rotate(-168.991)"/>
<use xlink:href="#stroke0_983_158" transform="translate(160.428 73.8479) scale(0.019338) rotate(-151.342)"/>
<use xlink:href="#stroke0_983_158" transform="translate(160.995 73.3292) scale(0.019338) rotate(177.944)"/>
<use xlink:href="#stroke0_983_158" transform="translate(159.421 74.6359) scale(0.019338) rotate(176.904)"/>
<use xlink:href="#stroke0_983_158" transform="translate(158.288 74.2819) scale(0.019338) rotate(167.349)"/>
<use xlink:href="#stroke0_983_158" transform="translate(154.472 75.0925) scale(0.019338) rotate(-158.712)"/>
<use xlink:href="#stroke0_983_158" transform="translate(152.524 74.95) scale(0.019338) rotate(-154.732)"/>
<use xlink:href="#stroke0_983_158" transform="translate(153.229 73.7227) scale(0.019338) rotate(170.484)"/>
<use xlink:href="#stroke0_983_158" transform="translate(149.775 76.5538) scale(0.019338) rotate(-161.426)"/>
<use xlink:href="#stroke0_983_158" transform="translate(149.38 73.5613) scale(0.019338) rotate(-179.279)"/>
<use xlink:href="#stroke0_983_158" transform="translate(146.126 75.9279) scale(0.019338) rotate(-156.553)"/>
<use xlink:href="#stroke0_983_158" transform="translate(145.59 75.8424) scale(0.019338) rotate(-171.352)"/>
<use xlink:href="#stroke0_983_158" transform="translate(145.635 72.2771) scale(0.019338) rotate(156.721)"/>
<use xlink:href="#stroke0_983_158" transform="translate(143.371 74.8999) scale(0.019338) rotate(171.375)"/>
<use xlink:href="#stroke0_983_158" transform="translate(142.104 73.0083) scale(0.019338) rotate(163.569)"/>
<use xlink:href="#stroke0_983_158" transform="translate(139.278 72.4234) scale(0.019338) rotate(-174.748)"/>
<use xlink:href="#stroke0_983_158" transform="translate(138.525 73.5696) scale(0.019338) rotate(170.198)"/>
<use xlink:href="#stroke0_983_158" transform="translate(134.482 74.0128) scale(0.019338) rotate(-154.077)"/>
<use xlink:href="#stroke0_983_158" transform="translate(132.752 76.4201) scale(0.019338) rotate(-152.886)"/>
<use xlink:href="#stroke0_983_158" transform="translate(134.332 72.33) scale(0.019338) rotate(151.964)"/>
<use xlink:href="#stroke0_983_158" transform="translate(132.063 74.6046) scale(0.019338) rotate(168.591)"/>
<use xlink:href="#stroke0_983_158" transform="translate(130.822 72.5804) scale(0.019338) rotate(159.411)"/>
<use xlink:href="#stroke0_983_158" transform="translate(127.121 73.4874) scale(0.019338) rotate(-164.636)"/>
<use xlink:href="#stroke0_983_158" transform="translate(127.193 73.9699) scale(0.019338) rotate(167.84)"/>
<use xlink:href="#stroke0_983_158" transform="translate(125.533 74.1702) scale(0.019338) rotate(168.361)"/>
<use xlink:href="#stroke0_983_158" transform="translate(121.978 75.424) scale(0.019338) rotate(-161.484)"/>
<use xlink:href="#stroke0_983_158" transform="translate(119.743 75.8793) scale(0.019338) rotate(-153.809)"/>
<use xlink:href="#stroke0_983_158" transform="translate(120.822 74.2085) scale(0.019338) rotate(164.091)"/>
<use xlink:href="#stroke0_983_158" transform="translate(117.338 76.3196) scale(0.019338) rotate(-165.028)"/>
<use xlink:href="#stroke0_983_158" transform="translate(116.061 73.6575) scale(0.019338) rotate(-170.021)"/>
<use xlink:href="#stroke0_983_158" transform="translate(114.555 73.6766) scale(0.019338) rotate(-171.881)"/>
<use xlink:href="#stroke0_983_158" transform="translate(113.48 75.0116) scale(0.019338) rotate(179.457)"/>
<use xlink:href="#stroke0_983_158" transform="translate(109.799 76.1674) scale(0.019338) rotate(-152.166)"/>
<use xlink:href="#stroke0_983_158" transform="translate(110.185 74.3737) scale(0.019338) rotate(179.849)"/>
<use xlink:href="#stroke0_983_158" transform="translate(109.619 73.4084) scale(0.019338) rotate(157.856)"/>
<use xlink:href="#stroke0_983_158" transform="translate(107.393 71.8084) scale(0.019338) rotate(171.389)"/>
<use xlink:href="#stroke0_983_158" transform="translate(103.897 76.1083) scale(0.019338) rotate(-160.276)"/>
<use xlink:href="#stroke0_983_158" transform="translate(103.475 73.7093) scale(0.019338) rotate(-177.433)"/>
<use xlink:href="#stroke0_983_158" transform="translate(100.535 75.5395) scale(0.019338) rotate(-159.094)"/>
<use xlink:href="#stroke0_983_158" transform="translate(99.0977 73.6995) scale(0.019338) rotate(-161.675)"/>
<use xlink:href="#stroke0_983_158" transform="translate(97.676 73.6375) scale(0.019338) rotate(-164.522)"/>
<use xlink:href="#stroke0_983_158" transform="translate(98.021 71.0053) scale(0.019338) rotate(161.846)"/>
<use xlink:href="#stroke0_983_158" transform="translate(96.5945 71.0968) scale(0.019338) rotate(156.131)"/>
<use xlink:href="#stroke0_983_158" transform="translate(95.0214 70.7988) scale(0.019338) rotate(154.151)"/>
<use xlink:href="#stroke0_983_158" transform="translate(91.6315 74.297) scale(0.019338) rotate(-171.463)"/>
<use xlink:href="#stroke0_983_158" transform="translate(91.6176 71.8209) scale(0.019338) rotate(158.206)"/>
<use xlink:href="#stroke0_983_158" transform="translate(90.1266 70.4502) scale(0.019338) rotate(153.774)"/>
<use xlink:href="#stroke0_983_158" transform="translate(88.4783 73.4125) scale(0.019338) rotate(154.205)"/>
<use xlink:href="#stroke0_983_158" transform="translate(83.7781 75.4767) scale(0.019338) rotate(-153.97)"/>
<use xlink:href="#stroke0_983_158" transform="translate(84.8827 71.5675) scale(0.019338) rotate(163.196)"/>
<use xlink:href="#stroke0_983_158" transform="translate(82.816 73.1318) scale(0.019338) rotate(172.273)"/>
<use xlink:href="#stroke0_983_158" transform="translate(80.7874 73.7488) scale(0.019338) rotate(179.217)"/>
<use xlink:href="#stroke0_983_158" transform="translate(80.0448 71.7422) scale(0.019338) rotate(161.53)"/>
<use xlink:href="#stroke0_983_158" transform="translate(78.4789 73.9629) scale(0.019338) rotate(159.735)"/>
<use xlink:href="#stroke0_983_158" transform="translate(76.3935 74.759) scale(0.019338) rotate(169.967)"/>
<use xlink:href="#stroke0_983_158" transform="translate(74.5298 72.9606) scale(0.019338) rotate(174.302)"/>
<use xlink:href="#stroke0_983_158" transform="translate(72.8381 73.7142) scale(0.019338) rotate(175.313)"/>
<use xlink:href="#stroke0_983_158" transform="translate(72.0796 73.9619) scale(0.019338) rotate(155.657)"/>
<use xlink:href="#stroke0_983_158" transform="translate(67.977 73.9442) scale(0.019338) rotate(-161.03)"/>
<use xlink:href="#stroke0_983_158" transform="translate(67.1554 75.2897) scale(0.019338) rotate(-172.253)"/>
<use xlink:href="#stroke0_983_158" transform="translate(65.1285 75.2897) scale(0.019338) rotate(-166.697)"/>
<use xlink:href="#stroke0_983_158" transform="translate(62.2598 73.3948) scale(0.019338) rotate(-150.758)"/>
<use xlink:href="#stroke0_983_158" transform="translate(62.8666 72.0936) scale(0.019338) rotate(178.077)"/>
<use xlink:href="#stroke0_983_158" transform="translate(62.058 72.51) scale(0.019338) rotate(161.479)"/>
<use xlink:href="#stroke0_983_158" transform="translate(59.8525 74.5275) scale(0.019338) rotate(173.554)"/>
<use xlink:href="#stroke0_983_158" transform="translate(59.099 70.9953) scale(0.019338) rotate(152.231)"/>
<use xlink:href="#stroke0_983_158" transform="translate(54.8259 76.0067) scale(0.019338) rotate(-160.138)"/>
<use xlink:href="#stroke0_983_158" transform="translate(55.882 71.697) scale(0.019338) rotate(150.165)"/>
<use xlink:href="#stroke0_983_158" transform="translate(51.3799 74.8614) scale(0.019338) rotate(-157.876)"/>
<use xlink:href="#stroke0_983_158" transform="translate(50.0199 75.9664) scale(0.019338) rotate(-161.447)"/>
<use xlink:href="#stroke0_983_158" transform="translate(49.2219 73.9567) scale(0.019338) rotate(-173.068)"/>
<use xlink:href="#stroke0_983_158" transform="translate(48.1149 74.3542) scale(0.019338) rotate(178.641)"/>
<use xlink:href="#stroke0_983_158" transform="translate(44.8972 74.6539) scale(0.019338) rotate(-158.629)"/>
<use xlink:href="#stroke0_983_158" transform="translate(43.0537 76.0241) scale(0.019338) rotate(-155.974)"/>
<use xlink:href="#stroke0_983_158" transform="translate(42.1373 74.8046) scale(0.019338) rotate(-165.378)"/>
<use xlink:href="#stroke0_983_158" transform="translate(41.9846 72.7623) scale(0.019338) rotate(171.273)"/>
<use xlink:href="#stroke0_983_158" transform="translate(39.2759 75.1892) scale(0.019338) rotate(-171.11)"/>
<use xlink:href="#stroke0_983_158" transform="translate(39.2842 73.9754) scale(0.019338) rotate(158.27)"/>
<use xlink:href="#stroke0_983_158" transform="translate(37.0271 74.9779) scale(0.019338) rotate(172.258)"/>
<use xlink:href="#stroke0_983_158" transform="translate(32.8149 74.3524) scale(0.019338) rotate(-150.653)"/>
<use xlink:href="#stroke0_983_158" transform="translate(33.0673 73.3566) scale(0.019338) rotate(-176.073)"/>
<use xlink:href="#stroke0_983_158" transform="translate(29.5768 75.3755) scale(0.019338) rotate(-151.053)"/>
<use xlink:href="#stroke0_983_158" transform="translate(28.8128 76.5637) scale(0.019338) rotate(-162.137)"/>
<use xlink:href="#stroke0_983_158" transform="translate(29.0341 73.234) scale(0.019338) rotate(168.639)"/>
<use xlink:href="#stroke0_983_158" transform="translate(26.2343 73.7114) scale(0.019338) rotate(-171.707)"/>
<use xlink:href="#stroke0_983_158" transform="translate(25.5598 73.9151) scale(0.019338) rotate(172.632)"/>
<use xlink:href="#stroke0_983_158" transform="translate(21.46 76.3188) scale(0.019338) rotate(-151.794)"/>
<use xlink:href="#stroke0_983_158" transform="translate(22.644 72.095) scale(0.019338) rotate(165.399)"/>
<use xlink:href="#stroke0_983_158" transform="translate(19.8193 75.4205) scale(0.019338) rotate(-173.568)"/>
<use xlink:href="#stroke0_983_158" transform="translate(17.936 73.9508) scale(0.019338) rotate(-169.955)"/>
<use xlink:href="#stroke0_983_158" transform="translate(18.018 72.0557) scale(0.019338) rotate(158.455)"/>
<use xlink:href="#stroke0_983_158" transform="translate(13.773 74.4074) scale(0.019338) rotate(-157.954)"/>
<use xlink:href="#stroke0_983_158" transform="translate(13.8504 73.874) scale(0.019338) rotate(177.324)"/>
<use xlink:href="#stroke0_983_158" transform="translate(12.6798 73.5623) scale(0.019338) rotate(168.656)"/>
<use xlink:href="#stroke0_983_158" transform="translate(11.5273 73.477) scale(0.019338) rotate(157.002)"/>
<use xlink:href="#stroke0_983_158" transform="translate(7.36981 75.4709) scale(0.019338) rotate(-159.736)"/>
<use xlink:href="#stroke0_983_158" transform="translate(4.49913 73.7112) scale(0.019338) rotate(-115.942)"/>
<use xlink:href="#stroke0_983_158" transform="translate(2.49183 70.7519) scale(0.019338) rotate(-88.0278)"/>
<use xlink:href="#stroke0_983_158" transform="translate(2.13884 68.9319) scale(0.019338) rotate(-85.1586)"/>
<use xlink:href="#stroke0_983_158" transform="translate(3.22256 67.6121) scale(0.019338) rotate(-90.1383)"/>
<use xlink:href="#stroke0_983_158" transform="translate(2.15486 66.2538) scale(0.019338) rotate(-94.8728)"/>
<use xlink:href="#stroke0_983_158" transform="translate(2.87515 64.0995) scale(0.019338) rotate(-86.2885)"/>
<use xlink:href="#stroke0_983_158" transform="translate(2.58384 63.4125) scale(0.019338) rotate(-103.246)"/>
<use xlink:href="#stroke0_983_158" transform="translate(2.58501 60.457) scale(0.019338) rotate(-80.7481)"/>
<use xlink:href="#stroke0_983_158" transform="translate(0.705231 59.8231) scale(0.019338) rotate(-96.8901)"/>
<use xlink:href="#stroke0_983_158" transform="translate(-0.572784 55.6072) scale(0.019338) rotate(-60.0475)"/>
<use xlink:href="#stroke0_983_158" transform="translate(2.23065 54.8193) scale(0.019338) rotate(-70.7481)"/>
<use xlink:href="#stroke0_983_158" transform="translate(0.183131 53.293) scale(0.019338) rotate(-72.1829)"/>
<use xlink:href="#stroke0_983_158" transform="translate(1.56302 53.0764) scale(0.019338) rotate(-93.211)"/>
<use xlink:href="#stroke0_983_158" transform="translate(2.1336 50.5799) scale(0.019338) rotate(-79.8183)"/>
<use xlink:href="#stroke0_983_158" transform="translate(1.42212 49.059) scale(0.019338) rotate(-81.4637)"/>
<use xlink:href="#stroke0_983_158" transform="translate(3.08202 47.8234) scale(0.019338) rotate(-87.4954)"/>
<use xlink:href="#stroke0_983_158" transform="translate(3.65938 46.743) scale(0.019338) rotate(-96.9388)"/>
<use xlink:href="#stroke0_983_158" transform="translate(1.14374 42.6195) scale(0.019338) rotate(-61.2177)"/>
<use xlink:href="#stroke0_983_158" transform="translate(0.828702 42.1762) scale(0.019338) rotate(-76.6406)"/>
<use xlink:href="#stroke0_983_158" transform="translate(4.35968 42.4155) scale(0.019338) rotate(-109.415)"/>
<use xlink:href="#stroke0_983_158" transform="translate(3.64276 40.6552) scale(0.019338) rotate(-106.338)"/>
<use xlink:href="#stroke0_983_158" transform="translate(2.83622 37.744) scale(0.019338) rotate(-83.4082)"/>
<use xlink:href="#stroke0_983_158" transform="translate(1.08437 37.125) scale(0.019338) rotate(-100.701)"/>
<use xlink:href="#stroke0_983_158" transform="translate(-1.1373 32.8153) scale(0.019338) rotate(-61.3153)"/>
<use xlink:href="#stroke0_983_158" transform="translate(0.759383 31.2553) scale(0.019338) rotate(-62.2475)"/>
<use xlink:href="#stroke0_983_158" transform="translate(1.91098 32.4004) scale(0.019338) rotate(-104.551)"/>
<use xlink:href="#stroke0_983_158" transform="translate(0.800685 30.3215) scale(0.019338) rotate(-95.6903)"/>
<use xlink:href="#stroke0_983_158" transform="translate(3.42793 29.1341) scale(0.019338) rotate(-104.65)"/>
<use xlink:href="#stroke0_983_158" transform="translate(-0.0451398 26.3626) scale(0.019338) rotate(-84.3981)"/>
<use xlink:href="#stroke0_983_158" transform="translate(2.10847 23.1102) scale(0.019338) rotate(-62.6408)"/>
<use xlink:href="#stroke0_983_158" transform="translate(3.07323 24.702) scale(0.019338) rotate(-117.725)"/>
<use xlink:href="#stroke0_983_158" transform="translate(3.27362 22.9278) scale(0.019338) rotate(-113.188)"/>
<use xlink:href="#stroke0_983_158" transform="translate(2.43505 19.5879) scale(0.019338) rotate(-80.9594)"/>
<use xlink:href="#stroke0_983_158" transform="translate(1.45031 19.5174) scale(0.019338) rotate(-109.333)"/>
<use xlink:href="#stroke0_983_158" transform="translate(2.35544 17.5996) scale(0.019338) rotate(-102.75)"/>
<use xlink:href="#stroke0_983_158" transform="translate(1.13088 16.1041) scale(0.019338) rotate(-105.851)"/>
<use xlink:href="#stroke0_983_158" transform="translate(3.82704 14.6526) scale(0.019338) rotate(-110.416)"/>
<use xlink:href="#stroke0_983_158" transform="translate(1.2485 10.1532) scale(0.019338) rotate(-64.2091)"/>
<use xlink:href="#stroke0_983_158" transform="translate(0.878275 10.9427) scale(0.019338) rotate(-100.364)"/>
<use xlink:href="#stroke0_983_158" transform="translate(-0.890339 6.87985) scale(0.019338) rotate(-64.1762)"/>
<defs>
<g id="stroke0_983_158" data-figma-scatter-ref="stroke0_983_158_ref" data-figma-scatter="f0.25_w0.26_aj30_sj0_r0_s0_sw7">
<path d="M144.904 352.362C147.954 349.312 149.763 349.672 150.203 353.416C150.707 357.707 148.541 361.981 145.862 361.981C141.689 361.981 141.109 356.157 144.904 352.362ZM233.557 300.848C235.222 299.793 235.148 299.79 239.626 301.034C246.137 302.842 242.834 311.43 236.149 310.074C232.526 309.339 230.657 302.687 233.557 300.848ZM115.043 291.648C115.876 290.814 121.675 290.775 123.794 291.588C127.87 293.152 123.8 300.981 118.911 300.981C115.434 300.981 112.584 294.106 115.043 291.648ZM175 267.844C177.951 264.584 182.797 265.664 183.185 269.669C183.542 273.361 180.116 276.366 176.184 275.808C173.174 275.381 172.468 270.643 175 267.844ZM300.599 259.538C303.26 257.674 305.545 257.551 307.176 259.181C310.959 262.964 304.966 270.3 300.126 267.811C297.566 266.494 297.854 261.461 300.599 259.538ZM65.0379 258.053C67.3289 254.782 73.1336 255.171 74.0077 258.652C74.8097 261.846 70.4911 266.288 67.0751 265.785C64.3022 265.377 63.1012 260.818 65.0379 258.053ZM1.62975 232.231C4.06261 229.617 7.57057 229.306 9.42565 231.541C12.2486 234.942 6.98636 241.476 2.39147 240.275C-0.416467 239.54 -0.856054 234.902 1.62975 232.231ZM227.315 227.042C231.346 223.011 237.247 225.557 235.37 230.516C234.195 233.619 231.794 235.16 228.686 234.803C225.023 234.383 224.265 230.092 227.315 227.042ZM178.376 211.732C181.51 210.534 185.325 212.743 185.361 215.776C185.383 217.706 180.74 221.981 178.621 221.981C173.248 221.981 173.051 213.767 178.376 211.732ZM137.582 210.262C140.566 207.086 142.799 207.702 143.195 211.81C143.572 215.732 141.11 219.981 138.46 219.981C134.822 219.981 134.264 213.794 137.582 210.262ZM104.68 201.937C111.231 197.943 114.57 200.054 112.52 206.893C111.161 211.43 108.789 213.748 104.661 214.574C98.8111 215.744 98.826 205.507 104.68 201.937ZM156.506 182.543C159.544 178.68 163.042 179.112 164.254 183.5C165.996 189.811 163.107 195.981 158.409 195.981C152.055 195.981 151.122 189.388 156.506 182.543ZM332.126 178.425C334.334 175.356 337.748 175.58 338.208 178.826C338.634 181.835 336.64 186.667 334.658 187.427C330.706 188.943 328.979 182.801 332.126 178.425ZM134.324 176.981C140.114 176.981 141.992 179.238 139.609 183.334C135.805 189.874 127.938 186.852 129.768 179.555C130.324 177.339 130.958 176.981 134.324 176.981ZM180.774 170.492C187.383 163.883 194.419 171.193 189.887 179.96C188.034 183.542 185.237 184.501 181.642 182.786C177.638 180.875 177.16 174.106 180.774 170.492ZM112.139 167.546C117.116 164.845 119.376 165.47 119.376 169.547C119.376 175.831 115.282 180.917 110.189 180.959C104.909 181.002 106.413 170.653 112.139 167.546ZM33.1649 171.731C33.7239 169.528 40.0954 169.319 42.9354 171.41C44.8492 172.819 44.8486 172.89 42.9686 176.41C39.2236 183.42 31.175 179.578 33.1649 171.731ZM267.696 168.981C273.426 168.981 275.119 170.774 273.371 174.993C270.77 181.273 264.078 180.001 263.569 173.129C263.261 168.981 263.261 168.981 267.696 168.981ZM159.448 152.616C163.233 147.805 167.376 150.326 167.376 157.442C167.376 162.776 164.86 166.231 160.976 166.231C154.714 166.231 153.968 159.584 159.448 152.616ZM219.499 156.351C222.081 153.602 224.581 153.329 226.805 155.553C229.465 158.213 227.98 162.421 223.824 164.001C218.528 166.014 215.482 160.626 219.499 156.351ZM132.138 146.054C136.16 143.711 141.73 146.765 142.866 151.935C144.745 160.488 132.178 162.971 129.413 154.593C128.136 150.724 129.053 147.852 132.138 146.054ZM184.272 140.085C189.178 135.179 197.376 139.426 197.376 146.875C197.376 151.373 188.322 153.789 185.043 150.165C182.218 147.044 181.87 142.487 184.272 140.085ZM103.265 136.643C106.172 135.867 106.971 135.965 108.832 137.325C112.7 140.153 107.295 147.407 102.187 146.243C98.8774 145.488 99.7655 137.579 103.265 136.643ZM62.4491 135.616C65.764 131.401 68.3758 132.603 68.3758 138.341C68.3755 143.269 62.4813 147.303 60.9833 143.399C59.9033 140.585 60.3321 138.306 62.4491 135.616ZM158.258 128.107C163.297 122.713 167.571 126.799 165.946 135.459C165.2 139.434 163.282 141.231 159.784 141.231C153.605 141.231 152.763 133.99 158.258 128.107ZM121.831 124.436C124.74 121.526 129.132 122.159 129.998 125.613C130.635 128.147 129.291 130.422 126.17 132.092C121.221 134.74 117.713 128.553 121.831 124.436ZM262.467 115.114C264.971 112.426 267.759 112.682 268.182 115.639C268.678 119.104 265.754 124.981 263.534 124.981C259.887 124.981 259.199 118.621 262.467 115.114ZM219.09 113.601C220.466 112.224 227.646 113.439 228.774 115.24C231.457 119.521 223.801 125.239 219.816 121.931C218.332 120.7 217.823 114.868 219.09 113.601ZM186.626 107.037C189.254 106.009 193.302 106.693 195.224 108.488C197.466 110.583 193.061 116.981 189.376 116.981C184.556 116.981 182.277 108.737 186.626 107.037ZM143.089 101.602C145.174 99.5174 152.875 101.476 153.187 104.17C153.806 109.534 145.807 113.524 143.411 109.047C142.221 106.823 142.041 102.651 143.089 101.602ZM311.489 95.5642C314.286 92.0082 316.785 92.5543 317.195 96.8103C317.572 100.732 315.11 104.981 312.46 104.981C308.888 104.981 308.331 99.5791 311.489 95.5642ZM108.031 95.8103C111.186 92.3234 116.376 94.073 116.376 98.6238C116.376 101.384 112.875 103.981 109.153 103.981C105.832 103.981 105.147 98.9973 108.031 95.8103ZM175.774 83.3865C176.469 81.5745 182.402 81.5484 184.862 83.3474C188.912 86.3095 183.355 92.8823 177.705 91.8113C175.831 91.4563 174.652 86.3105 175.774 83.3865ZM38.5047 74.3435C41.9087 70.7215 43.895 71.6512 43.786 76.8172C43.676 81.981 41.2662 85.0278 38.6073 83.3631C35.9104 81.6751 35.8591 77.1605 38.5047 74.3435ZM257.376 69.9812C259.645 67.7122 260.694 67.5464 263.442 69.0164C268.436 71.6895 262.915 80.2395 257.338 78.4695C254.707 77.6344 254.729 72.6282 257.376 69.9812ZM112.217 45.325C116.782 43.296 117.771 44.0962 117.562 49.6482C117.204 59.1642 105.376 64.0357 105.376 54.6668C105.376 49.9811 107.13 47.5859 112.217 45.325ZM215.774 47.3865C216.895 44.4646 226.393 46.547 226.354 49.7058C226.271 56.3407 216.176 58.6121 215.556 52.1365C215.379 50.2967 215.478 48.1587 215.774 47.3865ZM161.376 36.7224C163.823 35.7714 164.281 35.8862 166.376 37.9812C170.527 42.1322 164.797 48.6148 158.958 46.3738C155.842 45.1776 157.591 38.1946 161.376 36.7224ZM128 2.8445C130.951 -0.416408 135.797 0.664004 136.185 4.66872C136.542 8.36057 133.116 11.3661 129.184 10.8084C126.174 10.3814 125.468 5.64253 128 2.8445ZM209.576 1.18141C212.244 -1.48652 219.392 0.727986 219.344 4.20582C219.236 11.9387 208.439 12.6541 208.391 4.93141C208.383 3.52851 208.916 1.84151 209.576 1.18141Z" fill="#4242A5"/>
</g>
<path id="stroke0_983_158_ref" d="M5.04932 5.40985H420.049V70.4099H5.04932V5.40985Z"/>
</defs>
</svg>
