<svg width="130" height="130" viewBox="0 0 130 130" fill="none" xmlns="http://www.w3.org/2000/svg">
<g clip-path="url(#clip0_1046_3750)">
<path d="M60.7152 0H69.377L69.4995 0.0273708C70.2268 0.18587 71.0808 0.26388 71.8274 0.329933C75.0303 0.613327 78.1344 1.25169 81.2445 2.05992C96.8723 6.10496 110.441 15.8097 119.319 29.2919C123.562 35.7739 126.626 42.9547 128.37 50.5034C128.79 52.3275 129.129 54.1696 129.386 56.024C129.485 56.788 129.778 60.6159 130 60.9308V69.1533C129.69 69.9627 129.383 74.0111 129.207 75.1673C128.767 77.893 128.163 80.5893 127.395 83.2413C120.82 106.305 101.377 123.779 78.173 128.772C77.2985 128.96 69.608 129.999 69.607 130H60.6173C60.311 129.93 59.9363 129.926 59.62 129.882C57.0922 129.524 54.4983 129.226 51.9964 128.728C42.4797 126.754 33.5178 122.698 25.754 116.851C14.6325 108.425 6.62153 96.7533 2.61217 83.3567C1.13454 78.4193 0.689317 74.3982 0 69.3756V60.0916C0.14681 59.614 0.324912 58.1417 0.399714 57.5798C0.623612 55.898 0.866407 54.3358 1.17467 52.674C2.46723 45.706 4.87297 39.4839 8.26 33.2715C16.6655 18.1285 30.8024 6.9974 47.4948 2.37901C50.4114 1.58063 53.3741 0.960796 56.3663 0.522958C57.5514 0.349379 59.7257 0.323281 60.7152 0Z" fill="black"/>
<path d="M30.466 60.8507C29.9409 60.8555 29.3695 60.8847 28.8706 60.693C28.4641 60.5369 28.0855 60.1962 27.9102 59.7949C27.1997 58.1683 24.8453 40.4062 25.5151 38.9822C25.6569 38.6807 26.0325 38.5254 26.3296 38.4034C26.8681 38.1882 27.4257 38.0245 27.995 37.9142C30.2052 37.4962 45.6778 35.3563 47.0013 35.9484C47.6637 36.2447 47.8611 36.6403 48.1122 37.2978C48.2826 37.9576 48.7486 42.091 48.754 42.8682C49.1417 45.7877 49.5572 48.238 49.8473 51.2215C50.0038 54.5495 52.2868 57.1026 48.2761 58.5985C43.0707 59.2336 37.8727 59.8485 32.6759 60.5626C31.9614 60.6609 31.1797 60.7905 30.466 60.8507Z" fill="#D8D5CF"/>
<path d="M47.7386 50.0708C47.9282 50.8222 47.9374 51.4524 48.1093 52.1318C48.5219 53.3327 48.6915 54.1997 48.9197 55.4446C49.0106 55.9402 49.4715 55.5717 49.4283 56.1567C48.7213 57.1799 48.3041 57.4041 48.2759 58.5985C43.0705 59.2336 37.8725 59.8485 32.6757 60.5626C31.9612 60.6609 31.1796 60.7905 30.4658 60.8506C30.6825 59.6132 31.9899 58.3834 32.8628 57.4859C36.4734 56.8186 41.2697 56.732 44.6988 55.5421C45.3013 55.333 45.9528 54.6563 46.4155 54.189C46.7718 52.5504 47.7802 53.6548 47.7386 50.0708Z" fill="#A09891"/>
<path d="M47.7391 50.0708C47.9288 50.8222 47.9379 51.4524 48.1098 52.1318C48.1058 53.17 48.0502 53.6283 47.8831 54.6572C47.4382 55.0113 47.3889 55.1727 46.9083 55.2327C46.5461 54.9539 46.601 54.588 46.416 54.189C46.7724 52.5504 47.7808 53.6548 47.7391 50.0708Z" fill="#A9A299"/>
<path d="M48.1123 37.2979C48.2827 37.9576 48.7487 42.0911 48.754 42.8683C49.1417 45.7877 49.5573 48.238 49.8473 51.2216C50.0039 54.5495 52.2869 57.1027 48.2762 58.5986C48.3044 57.4042 48.7215 57.18 49.4285 56.1567C49.4717 55.5717 49.0109 55.9403 48.92 55.4447C48.6917 54.1998 48.5221 53.3328 48.1095 52.1318C47.9376 51.4525 47.9285 50.8223 47.7388 50.0709C47.3765 46.7446 47.5371 44.3163 47.8353 41.0393C47.972 39.5367 48.2146 38.8361 48.1123 37.2979Z" fill="#7A746F"/>
<path d="M48.7541 42.8683C49.1418 45.7877 49.5573 48.238 49.8474 51.2215C48.4826 49.8517 48.6193 44.7659 48.7541 42.8683Z" fill="#595A53"/>
<path d="M35.6967 44.2179C37.4376 44.1489 36.5846 44.279 37.3946 45.349C37.5438 45.546 38.1703 45.3806 38.5443 45.6015C38.6529 45.9467 38.6194 46.0597 38.569 46.4116C38.2625 46.7559 38.2262 46.662 37.6615 46.7691C37.3657 47.1426 37.8339 49.7749 37.8662 50.7179C38.8078 50.8048 39.1693 50.6291 39.578 51.5541C35.4929 53.8772 36.5942 48.3361 35.7083 47.1789C35.3904 47.146 35.2348 47.1619 34.9792 46.9701C34.9029 46.5912 34.9177 46.5411 35.0285 46.1687C35.9259 45.5285 35.703 45.2401 35.6967 44.2179Z" fill="black"/>
<path d="M73.7697 32.6279C74.1742 32.3393 74.5661 32.0694 75.0514 31.941C77.3913 31.3216 92.9243 29.399 94.8607 29.7322C95.1251 29.7778 95.275 29.8594 95.4233 30.0799C95.8508 30.7156 96.0802 31.5301 96.2406 32.2754C96.6629 34.2368 98.7776 49.1407 98.4866 50.6343C98.4528 50.8078 98.4011 50.9749 98.3365 51.1394C97.809 51.914 96.88 52.3372 95.9828 52.5151C91.4207 52.9781 86.905 53.4383 82.3724 54.1428C81.3041 54.4198 77.6524 54.9301 76.6677 54.4322C76.1942 54.1928 76.09 53.8209 75.9235 53.3592C75.6609 52.5211 75.4903 51.1744 75.3584 50.2717C74.9863 48.4332 74.7481 45.6902 74.5333 43.7604C74.4037 42.7058 74.3029 41.7652 74.2313 40.7059C74.0703 40.321 73.4598 35.8623 73.334 35.1237C72.984 34.3736 73.4267 33.2908 73.7697 32.6279Z" fill="#C7C1B9"/>
<path d="M79.9388 50.4874C82.262 51.2755 90.3578 50.1344 92.6741 49.2723C92.3383 51.7842 93.4148 50.647 93.7332 51.6027L93.6993 51.7318C95.1992 51.8444 95.1113 52.3347 95.9828 52.5151C91.4208 52.9781 86.9051 53.4383 82.3725 54.1428C81.3041 54.4198 77.6525 54.9301 76.6677 54.4322C76.1943 54.1928 76.09 53.8209 75.9235 53.3592C76.0377 52.1951 75.7012 51.3222 75.9886 50.2788L76.1195 50.3356L76.317 51.2719C76.3683 51.0902 76.4786 50.8641 76.5585 50.6858L76.7601 50.6498C77.0388 50.8733 77.0501 51.157 77.1332 51.5236C77.372 51.0215 77.4665 50.8132 77.613 50.2809L77.6649 50.3391C78.1873 50.9338 78.0253 51.0815 78.752 51.4302C79.3252 51.4437 79.7605 51.0151 79.9388 50.4874Z" fill="#908881"/>
<path d="M82.4677 53.214C85.4993 52.4631 90.5475 51.9678 93.6989 51.7317C95.1988 51.8443 95.1109 52.3346 95.9825 52.515C91.4204 52.978 86.9047 53.4382 82.3721 54.1427C82.6806 54.0057 82.9011 53.9294 83.1646 53.7141C82.9242 53.5071 82.7296 53.3849 82.4677 53.214Z" fill="#7E766E"/>
<path d="M75.9235 53.3592C76.0377 52.195 75.7012 51.3222 75.9886 50.2788L76.1195 50.3356L76.317 51.2718C76.3683 51.0902 76.4786 50.8641 76.5585 50.6858L76.7601 50.6498C77.0388 50.8733 77.0501 51.1569 77.1332 51.5236C77.0713 52.3672 76.7337 53.1293 76.6596 54.0017C77.5916 54.9448 81.3229 53.2682 82.468 53.2141C82.7299 53.385 82.9246 53.5072 83.165 53.7142C82.9015 53.9295 82.6809 54.0058 82.3725 54.1428C81.3041 54.4198 77.6525 54.9301 76.6677 54.4322C76.1943 54.1928 76.09 53.8209 75.9235 53.3592Z" fill="#7A746F"/>
<path d="M73.334 35.1237C73.897 35.8293 74.3096 36.4369 74.8125 37.1882C75.0381 37.3177 75.4221 37.5562 75.6529 37.6333C75.9661 40.9318 76.6028 45.2873 77.1864 48.5128C77.2373 48.9999 77.352 49.8596 77.6129 50.2808C77.4664 50.8132 77.372 51.0215 77.1332 51.5236C77.05 51.1569 77.0387 50.8733 76.7601 50.6498L76.5585 50.6858C76.4786 50.8641 76.3683 51.0902 76.317 51.2718L76.1195 50.3356L75.9886 50.2788C75.7011 51.3222 76.0377 52.195 75.9234 53.3592C75.6609 52.5211 75.4903 51.1743 75.3584 50.2717C74.9863 48.4332 74.7481 45.6902 74.5333 43.7604C74.4037 42.7058 74.3029 41.7652 74.2313 40.7059C74.0703 40.321 73.4598 35.8623 73.334 35.1237Z" fill="#7C736C"/>
<path d="M74.2314 40.7058C75.3485 43.1406 75.7933 43.9877 75.8019 46.7744C75.804 47.4907 75.8846 48.2703 75.7834 49.0068C75.7814 49.6101 75.8241 49.8355 75.3585 50.2716C74.9864 48.4331 74.7483 45.6901 74.5335 43.7603C74.4038 42.7057 74.303 41.7651 74.2314 40.7058Z" fill="#7A746F"/>
<path d="M74.5332 43.7604C75.2829 44.8693 75.6584 47.6774 75.7832 49.0068C75.7812 49.6101 75.8238 49.8356 75.3583 50.2717C74.9862 48.4331 74.748 45.6902 74.5332 43.7604Z" fill="#595A53"/>
<path d="M92.6735 49.2722C93.2716 49.0253 94.1641 48.5883 94.7804 48.6107L94.8523 48.6128C96.0797 48.6607 96.4961 49.989 97.4617 50.5594C97.7733 50.7436 98.0416 50.9292 98.336 51.1393C97.8085 51.9139 96.8795 52.3371 95.9823 52.515C95.1108 52.3346 95.1986 51.8443 93.6988 51.7317L93.7327 51.6026C93.4143 50.6469 92.3377 51.7841 92.6735 49.2722Z" fill="#A9A299"/>
<path d="M73.334 35.1236C72.984 34.3735 73.4267 33.2908 73.7697 32.6278C74.5275 33.3685 75.0991 34.2778 75.4381 35.2816C75.6288 35.8286 75.6993 37.0511 75.6529 37.6332C75.4221 37.5561 75.0381 37.3176 74.8125 37.1881C74.3096 36.4368 73.897 35.8292 73.334 35.1236Z" fill="#A9A299"/>
<path d="M77.1865 48.5127L77.3365 47.9611C78.0083 47.8891 78.8016 49.8847 79.9389 50.4874C79.7606 51.0151 79.3253 51.4437 78.7521 51.4301C78.0254 51.0815 78.1874 50.9337 77.665 50.3391L77.6131 50.2808C77.3522 49.8596 77.2374 48.9999 77.1865 48.5127Z" fill="#A9A299"/>
<path d="M49.7554 35.7124C50.6649 34.7177 56.506 34.2691 58.0429 34.0474C61.8764 33.4944 65.7867 32.9894 69.6467 32.6507C70.6467 32.5629 70.9322 32.7159 71.6508 33.3673C72.0512 34.1144 72.2047 34.6187 72.2383 35.4742C72.7466 37.8618 72.8284 40.6455 73.199 43.1011C73.6277 46.2595 74.101 49.5316 74.4623 52.6888C74.6454 54.2883 74.0239 55.3999 72.3862 55.4662C69.8095 55.5704 54.0297 58.1263 53.1062 57.6679L52.3207 57.2893C51.3194 55.902 50.9843 49.6817 50.7115 47.6407L49.7274 40.6714C49.45 38.7137 48.9493 37.5532 49.7554 35.7124Z" fill="#CCC6BE"/>
<path d="M72.2376 35.4742C72.7459 37.8619 72.8276 40.6456 73.1982 43.1011C73.6269 46.2595 74.1002 49.5316 74.4615 52.6888C74.6446 54.2883 74.0232 55.3999 72.3855 55.4662C69.8087 55.5704 54.0289 58.1264 53.1055 57.6679L53.2497 57.6437C54.3821 56.4291 55.6163 55.8798 57.1562 54.1362C59.2217 54.0562 67.3312 53.2415 68.9313 52.4787L69.1294 52.9837C69.4255 53.0536 69.3061 53.0513 69.6118 52.9394C70.4267 52.8285 70.4667 53.3928 70.9659 53.1713L71.0154 52.7394C71.3358 52.5902 71.7115 52.5185 71.885 52.1775C72.4421 51.0831 72.1417 49.2952 72.0338 48.1048L72.1319 47.7332C71.519 42.944 71.9654 40.1803 72.2376 35.4742Z" fill="#7A746F"/>
<path d="M68.9316 52.4788L69.1297 52.9838C69.4259 53.0536 69.3064 53.0513 69.6121 52.9395C71.0652 53.7927 70.8832 54.3925 72.7275 54.404C70.9727 55.1664 69.7294 54.7105 67.8356 54.9234C65.511 55.1848 63.135 55.3908 60.8264 55.7573C59.14 56.0251 54.7842 57.6907 53.25 57.6437C54.3824 56.4292 55.6167 55.8798 57.1565 54.1363C59.222 54.0563 67.3315 53.2415 68.9316 52.4788Z" fill="#77757C"/>
<path d="M72.1319 47.7333C72.3899 48.5783 72.6841 49.4324 72.926 50.2816C73.7312 53.1085 74.1562 53.7643 70.9658 53.1713L71.0153 52.7394C71.3358 52.5903 71.7114 52.5185 71.885 52.1775C72.442 51.0832 72.1417 49.2953 72.0338 48.1049L72.1319 47.7333Z" fill="#958E86"/>
<path d="M49.7549 35.7124C50.6644 34.7177 56.5055 34.2691 58.0424 34.0474C61.8759 33.4944 65.7861 32.9894 69.6462 32.6507C70.6462 32.5629 70.9317 32.7159 71.6502 33.3673C71.5206 34.3558 70.764 39.0212 70.1945 39.5017C69.8182 38.1986 69.3092 36.7664 68.0368 36.0799C65.9296 34.9433 57.4951 36.355 55.2322 37.0713C52.3657 37.9786 53.0837 40.3919 51.2957 40.3619C51.089 38.6746 50.9458 36.9899 49.7549 35.7124Z" fill="#D8D5CF"/>
<path d="M52.3207 57.2894C51.3194 55.902 50.9843 49.6817 50.7115 47.6407L49.7274 40.6714C49.45 38.7137 48.9493 37.5532 49.7554 35.7124C50.9464 36.9899 51.0896 38.6746 51.2963 40.3619C51.351 45.4627 53.4043 50.5546 52.5841 55.6574C52.488 56.2553 52.5756 56.7165 52.3207 57.2894Z" fill="#898077"/>
<path d="M68.9316 52.4788C69.6113 51.8853 70.0273 51.9366 70.6298 51.0655L70.8076 51.0429C70.9352 51.5335 70.9168 51.6895 71.3785 51.817C72.2549 51.1775 71.7037 49.0971 72.0341 48.1049C72.142 49.2953 72.4424 51.0832 71.8853 52.1775C71.7118 52.5185 71.3361 52.5902 71.0157 52.7394L70.9662 53.1713C70.467 53.3928 70.427 52.8285 69.6121 52.9395C69.3064 53.0513 69.4259 53.0536 69.1297 52.9838L68.9316 52.4788Z" fill="#938E8C"/>
<path d="M61.4926 42.4439C63.949 42.4341 64.5517 43.3699 64.7832 45.6649C63.3939 45.962 61.6979 46.1214 60.2679 46.2925C61.903 49.2762 62.2294 47.5764 64.2477 46.8521L64.3521 46.8157C64.6737 46.7687 64.5231 46.7471 64.8192 46.8846C64.9268 47.6161 63.7696 48.6085 63.2229 48.9715C62.0831 49.0329 61.2364 49.1873 60.2067 48.4993C58.6548 47.4624 58.3548 45.0873 59.4035 43.5946C59.9657 42.7943 60.5565 42.609 61.4926 42.4439Z" fill="black"/>
<path d="M61.3944 43.4163C62.2235 43.4339 63.3215 43.7957 63.1547 44.8066C62.7427 45.1605 62.5935 45.079 61.9829 45.1671C61.2801 45.2792 60.702 45.536 60.3447 44.8685C60.4071 44.2597 60.9475 43.7932 61.3944 43.4163Z" fill="#CCC6BE"/>
<path d="M95.3701 53.6779C97.8213 53.1316 98.8615 53.2429 99.3074 55.9845C99.899 59.6233 100.389 63.2792 100.823 66.9408C101.001 68.5073 101.412 70.5581 101.446 72.0496C101.605 73.0038 101.664 73.9236 101.471 74.882C101.09 75.1944 100.571 75.6477 100.172 75.9067C99.7798 75.9739 99.4987 76.02 99.1143 76.1316C93.4766 76.9334 87.7006 77.4004 82.0486 78.1848C80.0829 78.4575 79.5664 78.5941 78.8749 76.5973C78.2315 73.6066 77.4979 67.5557 77.1345 64.3688C76.9374 62.7036 75.9726 57.9326 76.5777 56.6246L77.3972 56.1355C78.6912 55.3853 86.0922 54.9742 88.1655 54.5682C89.9993 54.209 93.5518 53.6587 95.3701 53.6779Z" fill="#C1B9B2"/>
<path d="M95.3695 53.6779C97.8207 53.1316 98.861 53.2429 99.3068 55.9845C99.8984 59.6233 100.389 63.2792 100.822 66.9408C101.001 68.5073 101.411 70.5581 101.446 72.0496C101.405 72.5285 101.49 73.6138 101.243 73.9329C100.676 73.6717 98.6322 71.7085 98.5352 71.1279C97.9812 67.6345 97.8744 64.1027 97.196 60.6142C96.4376 56.7137 94.7201 55.9583 90.9265 56.6098C88.6911 56.9938 86.2889 57.2026 84.0365 57.5129C82.9909 57.657 81.6818 58.4542 80.6085 58.4518L80.4901 58.2131C81.2161 57.0662 81.2316 57.6872 82.0994 57.1564C81.5079 56.9963 81.3072 57.3072 80.9391 57.2878C78.3501 57.1517 78.7799 59.4701 78.801 61.4131L78.7602 61.2679C78.4272 60.128 78.0201 59.7024 77.2645 58.8172C77.2246 58.4885 76.7449 57.7213 76.5771 56.6246L77.3966 56.1355C78.6907 55.3853 86.0917 54.9742 88.1649 54.5682C89.9988 54.209 93.5513 53.6587 95.3695 53.6779Z" fill="#D8D5CF"/>
<path d="M77.3966 56.1355C78.6907 55.3852 86.0917 54.9742 88.1649 54.5682C89.9988 54.209 93.5513 53.6587 95.3695 53.6779C93.719 54.4527 92.6278 54.9297 90.8483 55.4915C88.1699 56.2535 84.9549 56.536 82.0994 57.1564C81.5079 56.9963 81.3072 57.3072 80.9391 57.2878C78.3501 57.1517 78.7799 59.4701 78.801 61.4131L78.7602 61.2679C78.4272 60.128 78.0201 59.7024 77.2645 58.8172C77.2246 58.4885 76.7449 57.7213 76.5771 56.6246L77.3966 56.1355Z" fill="#7A746F"/>
<path d="M77.3966 56.1355C78.6537 56.1816 79.9304 56.2881 81.1935 56.3563C84.4432 56.5316 87.7112 55.6901 90.8483 55.4915C88.1699 56.2534 84.9549 56.5359 82.0994 57.1563C81.5079 56.9962 81.3072 57.3071 80.9391 57.2877C78.3501 57.1516 78.7799 59.47 78.801 61.4131L78.7602 61.2678C78.4272 60.1279 78.0201 59.7024 77.2645 58.8171C77.2246 58.4884 76.7449 57.7213 76.5771 56.6245L77.3966 56.1355Z" fill="#958E86"/>
<path d="M80.2639 72.553L80.3072 72.7419L80.3907 73.2665C81.6857 77.8727 83.1802 74.8357 86.2669 74.9289C86.4996 74.9193 86.9162 74.8294 87.1615 74.7851C88.3353 74.6944 89.6877 74.4834 90.8679 74.3274C91.909 74.6846 93.0027 74.0517 94.2177 74.3781C96.2876 74.9342 98.1516 75.0358 100.172 75.9067C99.7799 75.9739 99.4988 76.0199 99.1144 76.1315C93.4766 76.9334 87.7007 77.4004 82.0487 78.1847C80.083 78.4574 79.5665 78.594 78.875 76.5973C78.917 76.5133 80.2593 72.581 80.2639 72.553Z" fill="#6B7570"/>
<path d="M80.2639 72.553L80.3072 72.7419L80.3907 73.2665C80.3333 73.8817 80.2837 74.6429 80.1712 75.2387C80.0155 75.9586 79.7615 76.9962 80.322 77.5741C81.1501 77.6884 83.8575 76.7269 84.6515 76.6666C85.5489 76.5986 88.9395 75.8704 89.4931 75.8522C91.402 75.7898 97.6929 75.3155 99.1144 76.1315C93.4766 76.9334 87.7007 77.4004 82.0487 78.1847C80.083 78.4574 79.5665 78.594 78.875 76.5973C78.917 76.5133 80.2593 72.581 80.2639 72.553Z" fill="#595A53"/>
<path d="M80.3904 73.2665C81.6854 77.8727 83.1799 74.8357 86.2666 74.9289C85.8818 75.0519 85.5392 75.1543 85.1698 75.321L85.137 75.3894C84.2131 75.8827 81.2991 77.4439 80.4158 77.2974C80.1635 76.965 80.382 75.9923 80.1709 75.2387C80.2834 74.6429 80.333 73.8817 80.3904 73.2665Z" fill="#7A746F"/>
<path d="M77.1345 64.3688C76.9374 62.7035 75.9726 57.9325 76.5777 56.6245C76.7454 57.7213 77.2252 58.4884 77.265 58.8171C78.0206 59.7024 78.4278 60.1279 78.7608 61.2678L78.8015 61.4131C79.0273 63.587 79.2988 65.7559 79.6157 67.9184C79.8075 69.2111 80.2082 71.3041 80.2638 72.5529C80.2592 72.581 78.9169 76.5132 78.8749 76.5973C78.2315 73.6065 77.4979 67.5557 77.1345 64.3688Z" fill="#44424B"/>
<path d="M77.1345 64.3688C76.9374 62.7035 75.9726 57.9325 76.5777 56.6245C76.7454 57.7213 77.2252 58.4884 77.265 58.8171C77.1933 60.4854 77.5105 63.0858 77.6843 64.8197C77.3771 64.6963 77.4156 64.5563 77.1345 64.3688Z" fill="#44424B"/>
<path d="M90.8672 74.3274C92.8411 74.0172 95.2704 73.7857 96.982 72.7506C97.413 72.4898 97.591 71.8285 98.0485 72.5414C98.6393 73.4617 100.555 74.3463 101.47 74.8819C101.09 75.1943 100.571 75.6477 100.172 75.9067C98.1509 75.0358 96.2869 74.9342 94.217 74.378C93.002 74.0516 91.9083 74.6846 90.8672 74.3274Z" fill="#90938C"/>
<path d="M80.3066 72.7418C80.9057 73.338 81.0672 75.0136 81.5635 75.0469C81.7874 74.709 82.0086 74.3691 82.2271 74.0275C82.6435 73.9836 83.4282 74.6423 84.2741 74.7464C85.3163 74.8746 86.1318 74.8151 87.161 74.785C86.9157 74.8293 86.499 74.9192 86.2663 74.9288C83.1797 74.8357 81.6852 77.8726 80.3902 73.2664L80.3066 72.7418Z" fill="#958E86"/>
<path d="M42.0145 60.4336C44.1239 60.0425 49.4421 58.8671 50.9169 60.4659C51.2948 61.3323 51.3207 62.4373 51.4009 63.3817C51.8584 68.7649 52.7657 74.0795 53.525 79.4221C53.5864 79.8552 53.5943 80.6096 53.5114 81.023C52.2856 82.1219 51.8831 82.1705 50.2308 82.3023C44.6877 83.1106 38.663 83.5703 33.2249 84.4813C32.4199 84.5515 32.204 84.4573 31.4807 84.0899C31.3283 83.9343 31.1765 83.7739 31.0538 83.5932C30.3171 82.5086 28.0723 64.7188 28.4299 63.279C28.5725 62.7052 29.2613 62.3201 29.7166 62.0213C30.2522 61.9016 30.4985 61.8678 31.0464 61.8255C31.5721 61.677 33.9336 61.3851 34.5483 61.3139C36.9853 61.0316 39.5819 60.6318 42.0145 60.4336Z" fill="#D8D5CF"/>
<path d="M51.1634 76.7678L51.2125 77.1563C51.7412 77.5034 52.0547 78.4734 52.2495 79.0733C52.5334 79.5651 52.7781 80.1408 53.3339 80.2929L53.5114 81.023C52.2855 82.1219 51.8831 82.1706 50.2308 82.3023C44.6877 83.1107 38.663 83.5704 33.2249 84.4814C33.1891 84.5003 36.1925 81.3044 36.3974 81.0756C36.5072 81.0931 36.618 81.1044 36.7292 81.1092C38.9796 81.1911 45.8413 80.3342 47.9684 79.3273C48.5516 79.0513 49.0093 78.6311 49.4815 78.1921C49.9086 78.7093 49.5656 78.6372 50.2015 79.0074C51.1294 78.9405 51.074 77.5388 51.1634 76.7678Z" fill="#989087"/>
<path d="M52.2492 79.0732C52.533 79.5651 52.7778 80.1408 53.3336 80.2929L53.5111 81.023C52.2852 82.1219 51.8828 82.1705 50.2305 82.3023C50.4633 81.9194 50.5591 81.8559 50.8971 81.5713C51.6017 81.4516 51.9527 81.0833 52.5036 80.6447C52.4137 80.1217 52.3289 79.5978 52.2492 79.0732Z" fill="#75716C"/>
<path d="M51.2126 77.1562C51.7412 77.5033 52.0548 78.4734 52.2495 79.0732C52.3292 79.5978 52.414 80.1217 52.5039 80.6447C51.9531 81.0833 51.6021 81.4516 50.8975 81.5713C51.1535 81.2554 51.687 80.733 51.9853 80.4217C52.0879 78.5012 51.3634 78.5766 51.2126 77.1562Z" fill="#7A746F"/>
<path d="M50.916 60.4658C51.294 61.3323 51.3199 62.4373 51.4001 63.3817C51.8575 68.7649 52.7648 74.0795 53.5242 79.4221C53.5856 79.8551 53.5935 80.6096 53.5106 81.023L53.3331 80.2929C52.7773 80.1408 52.5325 79.565 52.2487 79.0732C52.0539 78.4734 51.7403 77.5033 51.2117 77.1562L51.1626 76.7677C51.054 75.7431 50.9572 74.6042 50.7845 73.5987L50.6111 71.0494C50.2682 69.1965 50.1707 67.3909 49.7383 65.532C50.1181 63.5649 49.9153 62.2437 50.916 60.4658Z" fill="#44424B"/>
<path d="M50.6113 71.0494C50.8256 71.2991 51.105 71.7279 51.3418 71.8095C51.1513 71.499 51.1477 68.0731 51.142 68.0829C51.475 71.0856 51.6489 74.6086 52.2315 77.5421C52.428 78.5315 53.2269 79.2761 53.3333 80.2929C52.7775 80.1408 52.5328 79.5651 52.2489 79.0732C52.0542 78.4734 51.7406 77.5033 51.2119 77.1563L51.1628 76.7678C51.0543 75.7431 50.9574 74.6042 50.7847 73.5988L50.6113 71.0494Z" fill="#5C5863"/>
<path d="M42.014 60.4336C44.1233 60.0425 49.4415 58.8671 50.9163 60.4659C49.9156 62.2437 50.1184 63.5649 49.7386 65.532L49.5256 64.6441C49.4079 64.3576 49.2689 64.0447 49.1759 63.7504C48.0971 60.3338 43.4816 61.6818 40.8287 61.9843C39.3136 61.6478 35.2332 62.4825 33.4378 62.0641C32.7496 61.9036 31.7562 61.822 31.0459 61.8255C31.5716 61.677 33.9331 61.3851 34.5478 61.3139C36.9848 61.0316 39.5813 60.6318 42.014 60.4336Z" fill="#A9A299"/>
<path d="M42.0137 60.4336C44.123 60.0425 49.4412 58.8671 50.916 60.4659C49.9152 62.2437 50.1181 63.5649 49.7383 65.532L49.5252 64.6441C49.6462 63.0016 49.8524 63.3232 49.4034 61.595C49.1351 61.3413 48.8884 61.01 48.655 60.719C46.2264 60.1329 44.3628 60.5722 42.0137 60.4336Z" fill="#958E86"/>
<path d="M29.7158 62.0213C30.2514 61.9016 30.4977 61.8678 31.0457 61.8256C31.756 61.822 32.7494 61.9036 33.4376 62.0641C35.2329 62.4825 39.3134 61.6478 40.8284 61.9844C40.5351 62.1173 40.2253 62.1644 39.9095 62.2168C37.6185 62.5973 31.4067 63.8001 29.7158 62.0213Z" fill="#C1B9B2"/>
<path d="M31.4805 84.09C32.4875 83.2079 34.8333 82.1457 35.7197 81.3107L35.6717 81.116L35.0593 80.9319L35.1512 80.873C35.6342 80.8547 35.9314 80.9559 36.3971 81.0756C36.1922 81.3044 33.1889 84.5003 33.2247 84.4814C32.4197 84.5516 32.2037 84.4574 31.4805 84.09Z" fill="#CCC6BE"/>
<path d="M50.7853 73.5988C50.9579 74.6042 51.0548 75.7431 51.1633 76.7678C51.0739 77.5387 51.1293 78.9404 50.2014 79.0073C49.5655 78.6371 49.9085 78.7093 49.4814 78.192C49.9535 77.509 50.1495 77.0844 50.7162 76.3854C50.8158 75.6572 50.7703 74.3979 50.7853 73.5988Z" fill="#A9A299"/>
<path d="M40.4111 68.4328C40.7479 68.3904 41.1883 68.3815 41.5246 68.4131C42.3767 68.4933 43.8018 69.5258 43.6468 70.4551C43.1792 70.6952 38.3068 67.767 39.7509 72.9976C40.1145 74.3147 42.2058 74.4535 42.5411 72.9872C42.5744 72.8414 42.6813 72.8071 42.8124 72.7093C43.373 72.6024 43.6999 72.4153 44.0197 72.9132C43.9891 73.4328 43.5052 74.1171 43.223 74.5915C41.8646 75.3073 40.715 75.2445 39.3184 74.7902C37.2027 72.5856 37.3953 69.6517 40.4111 68.4328Z" fill="black"/>
<path d="M34.0886 85.3941C38.1915 84.7929 42.4961 84.573 46.618 83.8566C48.6344 83.5062 51.0662 83.217 53.0779 83.4651C53.5668 83.5254 53.8556 84.1161 54.0621 84.5066C54.804 86.4085 55.4609 94.8861 55.7336 97.3473C56.0924 99.2889 56.8202 103.063 56.1788 104.813C55.1505 106.041 48.0744 106.696 46.2866 106.829C42.9203 107.081 38.535 108.182 35.3026 108.018C34.8777 107.878 34.6502 107.692 34.2855 107.438C33.0306 105.613 32.5187 95.8317 31.9355 93.2101C31.6545 91.9473 31.3142 88.3039 31.3608 87.0391C31.8966 86.3062 32.2139 86.0623 33.0197 85.6554L34.0886 85.3941Z" fill="#CCC6BE"/>
<path d="M34.0889 85.3941C38.1917 84.7929 42.4963 84.573 46.6183 83.8566C48.6346 83.5062 51.0664 83.217 53.0781 83.4651C53.567 83.5254 53.8558 84.1161 54.0624 84.5066C54.8043 86.4085 55.4612 94.8861 55.7339 97.3473C56.0926 99.2889 56.8205 103.063 56.1791 104.813C55.1508 106.041 48.0747 106.696 46.2869 106.829C42.9206 107.081 38.5353 108.182 35.3029 108.018C35.3826 107.974 35.3376 108.003 35.4409 107.909L35.5295 107.827L35.5818 107.848C35.3677 107.781 35.3056 107.781 35.1692 107.6C35.3625 107.328 36.0064 107.455 36.4195 106.958C36.9512 106.319 38.462 105.529 38.8123 104.83C41.1923 105.054 47.3842 104.131 49.8693 103.561C50.7466 103.359 51.7064 102.841 52.4877 102.398C53.1061 101.59 53.9781 101.274 54.2156 100.737C54.1726 98.6097 53.8749 95.4259 53.5013 93.3287C52.4897 87.6514 53.1289 84.3451 46.2442 85.4117C45.3264 85.3003 45.0417 85.5304 44.26 85.5446C42.4764 85.5772 40.6982 85.7694 38.9345 85.8549C37.4642 85.9261 35.5359 85.4698 34.0889 85.3941Z" fill="#958E86"/>
<path d="M54.0621 84.5066C54.804 86.4085 55.4609 94.886 55.7336 97.3473C55.6892 97.9358 55.7707 98.1216 55.4694 98.5528L55.0431 98.6621C54.0383 95.0884 53.91 88.2247 54.0621 84.5066Z" fill="#595A53"/>
<path d="M55.7335 97.3473C56.0922 99.2889 56.8201 103.063 56.1787 104.813C55.0393 103.167 55.4904 99.8084 55.043 98.6621L55.4693 98.5528C55.7705 98.1216 55.689 97.9358 55.7335 97.3473Z" fill="#6D6559"/>
<path d="M54.2153 100.737C54.2919 101.576 54.2678 101.823 54.1713 102.649C53.8025 102.586 52.811 102.391 52.4873 102.398C53.1057 101.59 53.9777 101.274 54.2153 100.737Z" fill="#C1B9B2"/>
<path d="M34.0885 85.3942C35.5355 85.4698 37.4638 85.9261 38.9342 85.8549C40.6978 85.7694 42.476 85.5772 44.2596 85.5446C45.0414 85.5304 45.326 85.3003 46.2439 85.4117C42.8933 86.3323 38.3993 87.2074 35.0721 86.3269C34.2624 86.1126 33.5502 85.7834 33.0195 85.6554L34.0885 85.3942Z" fill="#C1B9B2"/>
<path d="M37.3253 104.438L38.8117 104.829C38.4614 105.529 36.9505 106.319 36.4189 106.958C36.0058 107.455 35.3618 107.328 35.1686 107.6C35.305 107.781 35.3671 107.781 35.5812 107.848L35.5289 107.827L35.4403 107.909C35.337 108.003 35.382 107.974 35.3023 108.018C34.8774 107.878 34.6499 107.692 34.2852 107.438C35.1293 107.016 36.6997 105.204 37.3253 104.438Z" fill="#A9A299"/>
<path d="M98.1463 77.5815C99.0266 77.0594 100.002 76.7529 100.956 77.1822C102.055 77.9339 102.051 78.1956 102.297 79.5078C102.888 82.6671 103.239 85.8709 103.627 89.0604C103.916 91.4431 104.7 95.6011 104.488 97.9876C103.909 99.9286 99.7819 99.9746 98.0198 100.121C96.8359 100.426 93.9036 100.78 92.6818 100.871C89.9029 101.079 84.9307 102.328 82.4433 101.461C82.1716 100.952 81.7386 100.163 81.6721 99.614C81.1357 95.1224 80.8635 90.6341 79.9623 86.1856C79.6237 84.5142 79.2824 82.5901 79.3905 80.8958C79.5836 80.6024 79.7882 80.3397 80.0502 80.1036C80.4135 79.776 80.7575 79.6544 81.2329 79.5509C83.6745 79.0201 86.2425 78.9673 88.7228 78.6653C91.8263 78.2874 95.044 77.4315 98.1463 77.5815Z" fill="#438D89"/>
<path d="M82.4433 101.461C82.1716 100.952 81.7386 100.163 81.6721 99.614C81.1357 95.1224 80.8635 90.6341 79.9623 86.1856C79.6237 84.5142 79.2824 82.5901 79.3905 80.8958C79.9009 82.4589 80.0946 83.5263 81.2257 84.7268C81.6692 85.1974 81.624 86.8601 82.1303 87.9018C82.2864 89.1848 83.1803 96.0597 83.4777 96.9622C83.6148 97.7692 83.966 98.9985 84.6842 99.4814C85.8836 100.288 87.317 99.2537 88.4608 98.8291C88.8317 98.6915 89.1574 98.6988 89.5411 98.5162C92.6595 98.1948 95.0593 97.9831 98.1102 97.2931C99.3965 96.9481 101.016 95.9198 101.907 95.934C102.441 96.4178 103.899 97.8613 104.488 97.9876C103.909 99.9286 99.7819 99.9746 98.0198 100.121C96.8359 100.426 93.9036 100.78 92.6818 100.871C89.9029 101.079 84.9307 102.328 82.4433 101.461Z" fill="#275353"/>
<path d="M98.1099 97.2931C99.3962 96.9481 101.016 95.9198 101.907 95.934C102.44 96.4178 103.899 97.8613 104.488 97.9876C103.909 99.9286 99.7816 99.9747 98.0195 100.121L98.0618 99.9286C98.9053 99.5384 99.0649 100.215 99.6886 99.28C99.7667 98.013 98.5013 98.1996 98.1099 97.2931Z" fill="#2B5654"/>
<path d="M100.956 77.1823C102.054 77.9339 102.051 78.1956 102.296 79.5078C102.888 82.6671 103.239 85.8709 103.627 89.0604C103.916 91.4431 104.7 95.6011 104.488 97.9876C103.899 97.8613 102.441 96.4178 101.907 95.934C101.309 94.2303 101.39 91.6095 101.082 89.7185C100.65 87.0732 100.694 83.8709 99.2042 81.5139C98.4625 80.3407 96.7077 80.2794 95.499 80.1481C95.799 79.9576 97.3004 80.3601 97.6796 80.0841L97.5431 79.8905C97.034 79.6959 96.7227 79.7195 96.1751 79.7077C98.1715 79.4863 98.3034 79.0838 99.8774 77.871C99.9503 77.8149 100.716 77.3576 100.956 77.1823Z" fill="#72AFAD"/>
<path d="M79.3906 80.8958C79.5837 80.6024 79.7884 80.3397 80.0504 80.1036C80.4136 79.7761 80.7577 79.6544 81.2331 79.551C83.6747 79.0202 86.2427 78.9674 88.723 78.6653C91.8264 78.2874 95.0442 77.4315 98.1464 77.5815C96.1623 78.2298 94.6658 79.2682 92.4627 79.7691C91.4093 80.0086 86.152 80.5875 85.6126 80.8508C83.6966 80.6819 80.3569 80.3273 81.2613 83.3662C81.7556 85.0268 81.9927 86.1929 82.1304 87.9018C81.6241 86.8602 81.6693 85.1975 81.2259 84.7269C80.0947 83.5264 79.9011 82.459 79.3906 80.8958Z" fill="#2B5654"/>
<path d="M98.1457 77.5815C99.026 77.0594 100.002 76.7529 100.956 77.1822C100.716 77.3576 99.9498 77.8148 99.8769 77.871C98.303 79.0837 98.1711 79.4863 96.1746 79.7077C95.2287 79.8597 94.3222 79.7534 93.4399 79.8843C90.796 80.2767 88.1478 80.7024 85.5087 81.1182C84.9301 81.2092 84.2787 81.6426 83.7438 81.8518L83.7031 81.6898C84.2469 81.2129 84.9804 81.1205 85.6119 80.8508C86.1513 80.5875 91.4085 80.0086 92.462 79.769C94.665 79.2682 96.1615 78.2297 98.1457 77.5815Z" fill="#4B9A98"/>
<path d="M83.4775 96.9623C84.2786 97.8718 84.2098 99.845 86.0407 98.3108C85.5294 98.0164 85.2887 98.2497 84.8296 98.5448C84.7866 98.2749 84.8766 98.1828 85.0157 97.9267L85.2822 97.7969C86.9779 98.6222 87.6819 98.5724 89.541 98.5163C89.1572 98.6989 88.8315 98.6916 88.4606 98.8293C87.3169 99.2538 85.8834 100.288 84.684 99.4815C83.9658 98.9986 83.6146 97.7693 83.4775 96.9623Z" fill="#2B5654"/>
<path d="M55.2667 80.5611C54.337 77.659 54.1864 72.5531 53.7271 69.416C53.3063 66.5415 52.7933 63.5596 52.6134 60.6756C52.5951 60.3811 52.5509 59.7305 52.7623 59.5736C53.254 59.2084 54.5287 58.8209 55.1329 58.7334C58.2473 58.2822 61.3241 58.0302 64.4572 57.6481C67.4991 57.2771 70.6633 56.5382 73.7379 56.6013C74.098 56.6087 74.1987 56.6644 74.4046 56.9266C74.6781 57.2749 74.91 58.0862 74.96 58.5165C75.3743 62.0886 75.7535 65.7275 76.1217 69.3006C76.3433 71.4513 77.4801 75.8005 77.2508 77.7144C77.0185 78.197 76.5953 78.4667 76.171 78.7936C75.2681 79.6319 59.3773 81.0554 56.9333 81.4341C56.3118 81.5304 55.6062 81.1564 55.2667 80.5611Z" fill="#3C3D8C"/>
<path d="M55.2667 80.5611C54.337 77.659 54.1864 72.5531 53.7271 69.416C53.3063 66.5415 52.7933 63.5596 52.6134 60.6756C52.5951 60.3811 52.5509 59.7305 52.7623 59.5736C53.254 59.2084 54.5287 58.8209 55.1329 58.7334C58.2473 58.2822 61.3241 58.0302 64.4572 57.6481C67.4991 57.2771 70.6633 56.5382 73.7379 56.6013C74.098 56.6087 74.1987 56.6644 74.4046 56.9266C74.6781 57.2749 74.91 58.0862 74.96 58.5165C75.3743 62.0886 75.7535 65.7275 76.1217 69.3006C76.3433 71.4513 77.4801 75.8005 77.2508 77.7144C77.0185 78.197 76.5953 78.4667 76.171 78.7936L75.9716 78.4907L76.0674 78.0967C75.787 78.1425 75.7931 78.1471 75.5151 78.1041C75.4884 77.7738 76.0352 76.8625 76.1587 76.4583L76.1778 76.3945C76.1194 75.5358 75.4253 72.9398 75.1307 72.0951C74.8774 69.9239 74.5921 67.6967 74.4049 65.5237C73.929 63.9211 73.8766 61.7483 73.5338 60.0647C72.8129 56.5243 67.6209 58.4967 65.2277 59.1712L64.1144 59.3059C62.4374 59.5944 60.2488 59.8357 58.6862 60.1672C57.6365 60.3916 56.6314 60.2894 55.5766 60.4205C54.6911 61.7993 54.1339 61.8219 54.3098 63.9592C54.7125 65.3718 54.9895 68.0045 55.1688 69.5095C55.3327 70.8852 55.6332 72.843 55.7235 74.1963C55.8648 74.7488 56.2183 76.6441 56.3134 76.9058L56.5899 78.1497C56.7442 78.9523 57.1069 79.5201 57.4893 80.2384C57.9807 79.9884 58.685 79.6565 59.1285 79.3596L59.299 79.6697C59.0207 80.3682 56.9166 81.0582 56.1875 80.7818L55.6435 80.0742L55.2667 80.5611Z" fill="#131447"/>
<path d="M64.114 59.3059C63.0889 59.2706 62.189 59.4322 61.4213 59.4707C60.4023 59.5219 55.7886 59.4044 55.0303 59.0984C55.324 58.9606 60.7025 58.5187 61.2206 58.5346C63.1078 58.5924 73.0264 56.3497 74.0762 57.7482C74.5548 59.2499 74.3255 63.7938 74.4045 65.5237C73.9286 63.9211 73.8762 61.7482 73.5334 60.0647C72.8125 56.5243 67.6205 58.4967 65.2273 59.1712L64.114 59.3059Z" fill="#1C1C5E"/>
<path d="M54.3095 63.9591C53.5114 61.0963 50.5224 58.4846 56.7882 59.9178C57.3645 60.0496 58.0908 60.1193 58.6859 60.1672C57.6362 60.3916 56.6311 60.2894 55.5763 60.4204C54.6908 61.7993 54.1336 61.8219 54.3095 63.9591Z" fill="#33327C"/>
<path d="M55.7237 74.1963C55.865 74.7488 56.2185 76.6441 56.3136 76.9059L56.5901 78.1497C56.7444 78.9523 57.1071 79.5201 57.4894 80.2384C57.9809 79.9884 58.6852 79.6565 59.1287 79.3596L59.2992 79.6697C59.0209 80.3682 56.9168 81.0582 56.1877 80.7819L55.6437 80.0742C55.1516 78.3821 55.9367 76.1345 55.7237 74.1963Z" fill="#1C1C5E"/>
<path d="M72.3385 76.1286L72.6286 76.2829C73.0629 75.9212 73.2854 75.5968 73.7577 75.5695C74.4923 76.0733 75.3348 76.9953 76.1777 76.3944L76.1586 76.4583C76.0351 76.8625 75.4883 77.7737 75.515 78.1041C75.793 78.147 75.7869 78.1424 76.0674 78.0966L75.9715 78.4907L76.171 78.7936C75.2681 79.6318 59.3772 81.0554 56.9332 81.4341C56.3117 81.5303 55.6061 81.1563 55.2666 80.561L55.6434 80.0741L56.1874 80.7818C56.9165 81.0582 59.0206 80.3682 59.2989 79.6697L59.1284 79.3595C59.8727 78.625 60.4246 78.6528 61.2262 77.9064C62.8722 78.1607 70.6281 76.8253 72.3385 76.1286Z" fill="#1E1F58"/>
<path d="M65.2276 59.1712C66.9867 59.2626 70.7069 58.2982 72.4224 59.6766C72.6637 59.8706 73.2085 61.365 73.3688 61.7852L73.3082 61.8374C73.03 61.5422 72.7667 61.2488 72.456 60.9878L72.1426 61.0368L71.9889 60.7736C71.426 60.3247 70.6142 59.8528 69.9556 59.5684C66.5845 59.6995 62.9852 60.3963 59.6332 60.7828C58.2397 60.9433 57.4083 61.3639 56.3208 62.199C54.5256 65.5948 57.8082 76.1442 57.0179 77.5964L56.8215 77.5833L56.3133 76.9058C56.2182 76.644 55.8647 74.7487 55.7234 74.1962C55.6331 72.8429 55.3326 70.8852 55.1687 69.5095C54.9895 68.0045 54.7124 65.3717 54.3098 63.9591C54.1338 61.8219 54.691 61.7993 55.5765 60.4204C56.6313 60.2894 57.6364 60.3916 58.6861 60.1672C60.2487 59.8357 62.4373 59.5943 64.1143 59.3059L65.2276 59.1712Z" fill="#4C4CA0"/>
<path d="M69.9551 59.5684C70.9881 58.9203 72.5453 59.9622 71.9884 60.7736C71.4254 60.3247 70.6137 59.8528 69.9551 59.5684Z" fill="#716FB9"/>
<path d="M56.5898 78.1497C57.8886 77.9439 57.3625 76.1105 59.216 77.6549C59.884 77.7541 60.5543 77.8381 61.2262 77.9065C60.4246 78.6528 59.8727 78.625 59.1284 79.3596C58.685 79.6565 57.9806 79.9884 57.4892 80.2384C57.1068 79.5201 56.7441 78.9523 56.5898 78.1497Z" fill="#33327C"/>
<path d="M75.1309 72.095C75.4256 72.9397 76.1197 75.5357 76.1781 76.3944C75.3352 76.9952 74.4926 76.0733 73.7581 75.5694C73.2858 75.5967 73.0633 75.9212 72.629 76.2829L72.3389 76.1285C73.7934 75.0433 73.5396 75.6737 74.7929 75.007C75.3088 74.4464 75.1412 72.9325 75.1309 72.095Z" fill="#1C1C5E"/>
<path d="M62.0925 64.1059C62.4181 64.0788 62.5612 64.0423 62.8743 64.1461C63.8535 65.0955 62.7919 66.5926 63.7228 67.2268C64.312 65.6953 66.0803 66.0881 67.2123 66.6737C68.1272 68.1543 68.2639 70.5865 68.3512 72.2928L66.9478 72.5771C66.7027 71.3386 66.5055 70.091 66.3567 68.8371C66.2949 68.3694 66.2694 68.2488 66.1111 67.8052C65.7392 67.4955 65.5072 67.4551 65.0103 67.4768C62.8358 67.5716 64.0064 71.5703 64.2485 73.0323C63.7586 73.0752 63.2393 73.0957 62.746 73.1237C62.5908 70.3473 61.6489 67.2619 61.7142 64.5025C61.7193 64.2839 61.874 64.251 62.0925 64.1059Z" fill="#CCC6BE"/>
<path d="M55.4424 84.9508C55.4423 84.0716 55.6821 82.8609 56.7372 82.6458C58.7308 82.2396 60.8461 82.1689 62.886 81.9286C66.9377 81.4511 70.9423 80.6955 75.0102 80.3749C76.5428 80.2608 77.8182 80.0884 78.1962 81.9891C77.996 84.7352 78.3192 87.5894 77.9904 90.3335C77.931 90.8285 77.8662 91.1193 77.9024 91.6311C78.0261 93.2439 78.2102 94.8516 78.4543 96.4506L78.5636 97.1129C78.8897 97.7054 79.1023 98.0227 79.2131 98.7007C79.287 99.4692 79.7827 100.832 80.3501 101.358C80.0286 101.927 79.7614 102.307 79.0748 102.443C73.4263 103.567 67.6405 104.024 61.9337 104.791C61.0329 104.912 59.6984 105.137 58.8902 104.674C58.7116 104.571 58.5404 104.456 58.3779 104.329C57.3721 102.777 57.0337 97.3864 56.8479 95.2948C56.6415 94.8484 55.4788 85.9323 55.4424 84.9508Z" fill="#C1B9B2"/>
<path d="M55.4424 84.9508C55.9474 85.8589 57.1749 87.8665 57.3143 88.7777C58.3306 91.6382 58.1726 98.8288 59.716 101.621L59.8201 101.61C60.878 101.495 60.855 100.998 61.6944 101.535C64.502 101.982 72.2602 101.139 74.9503 100.235C77.2118 98.4899 78.3402 99.9379 78.4543 96.4506L78.5636 97.1129C78.8897 97.7054 79.1023 98.0227 79.2131 98.7007C79.287 99.4692 79.7827 100.832 80.3501 101.358C80.0286 101.927 79.7614 102.307 79.0748 102.443C73.4263 103.567 67.6405 104.024 61.9337 104.791C61.0329 104.912 59.6984 105.137 58.8902 104.674C58.7116 104.571 58.5404 104.456 58.3779 104.329C57.3721 102.777 57.0337 97.3864 56.8479 95.2948C56.6415 94.8485 55.4788 85.9323 55.4424 84.9508Z" fill="#88817B"/>
<path d="M56.8477 95.2948C57.9141 96.9598 57.2837 98.8674 57.7377 100.281L57.8097 100.273L57.8075 99.6685C57.994 99.7302 58.0251 99.8213 58.1333 99.988L58.2016 99.8509C58.6367 100.376 58.6967 103.682 58.3777 104.329C57.3718 102.777 57.0335 97.3864 56.8477 95.2948Z" fill="#7A746F"/>
<path d="M78.4542 96.4506L78.5635 97.1129C78.5836 97.9047 78.6175 98.6882 78.5663 99.4789C76.8597 100.636 75.9973 99.9771 75.0887 100.28L74.9502 100.235C77.2117 98.4898 78.3401 99.9378 78.4542 96.4506Z" fill="#958E86"/>
<path d="M59.7158 101.621L59.8199 101.61C60.8778 101.496 60.8548 100.998 61.6943 101.535C61.883 101.868 61.9803 101.93 62.2774 102.151L62.3676 102.217L62.2861 102.543C61.7155 103.092 61.0233 102.961 60.3515 102.676C59.9701 102.514 59.8439 101.992 59.7158 101.621Z" fill="#A9A299"/>
<path d="M55.4424 84.9508C55.4423 84.0716 55.6821 82.8609 56.7372 82.6458C58.7308 82.2396 60.8461 82.1689 62.886 81.9286C66.9377 81.4511 70.9423 80.6955 75.0102 80.3749C76.5428 80.2608 77.8182 80.0884 78.1962 81.9891C77.996 84.7352 78.3192 87.5894 77.9904 90.3335C77.931 90.8285 77.8662 91.1193 77.9024 91.6311C77.6606 91.2795 77.2202 86.1186 76.9075 85.2862C76.6702 84.6547 76.6272 82.8667 75.6826 82.4582C72.9589 81.3052 69.8547 82.6057 67.0879 83.0346C64.7567 83.396 62.4375 83.3516 60.2302 84.2781C59.5012 84.5839 57.7223 83.5713 57.0414 85.2866C56.8561 85.7533 57.2017 86.2438 57.3095 86.6979C57.3807 87.2443 57.3293 88.2262 57.3143 88.7777C57.1749 87.8665 55.9474 85.8589 55.4424 84.9508Z" fill="#7A746F"/>
<path d="M78.1958 81.9891C78.5984 84.3059 78.9507 88.5958 79.2057 91.1036C79.3147 91.5834 79.5467 92.7954 79.5721 93.2762C79.671 95.1408 81.0031 99.8285 80.3497 101.358C79.7823 100.832 79.2866 99.4692 79.2127 98.7007C79.1019 98.0227 78.8894 97.7054 78.5632 97.1129L78.4539 96.4506C78.2098 94.8516 78.0257 93.2439 77.902 91.6311C77.8659 91.1193 77.9306 90.8285 77.99 90.3335C78.3188 87.5894 77.9956 84.7353 78.1958 81.9891Z" fill="#595A53"/>
<path d="M79.2062 91.1036C79.3152 91.5834 79.5472 92.7954 79.5726 93.2762C79.6715 95.1409 81.0036 99.8285 80.3502 101.358C79.7829 100.832 79.2871 99.4692 79.2132 98.7008C79.3073 96.2296 79.1518 93.6125 79.2062 91.1036Z" fill="#4B524C"/>
</g>
<defs>
<clipPath id="clip0_1046_3750">
<rect width="130" height="130" fill="white"/>
</clipPath>
</defs>
</svg>
