<svg width="94" height="77" viewBox="0 0 94 77" fill="none" xmlns="http://www.w3.org/2000/svg">
<path d="M53.5103 13.9922C55.0245 7.77118 60.47 3.30114 66.8669 3.0282C73.2637 2.75524 79.07 6.74516 81.1085 12.8145C83.1477 18.884 80.9267 25.5701 75.6627 29.2141C76.0202 29.9807 76.4653 30.7163 76.8251 31.5193C78.1283 34.4367 78.8793 37.5703 79.0401 40.7614C79.8959 56.1267 67.6742 68.1255 53.1536 70.5753C50.4199 71.0365 47.7717 71.0735 45.0175 71.0711L39.2502 71.0702L23.7006 71.0698C21.1777 71.0697 17.8268 70.9741 15.3762 71.1088C15.4067 68.6798 15.3487 66.4451 15.3424 64.0455L15.2959 42.188C15.408 34.9558 18.3587 28.0575 23.5115 22.9816C29.5892 17.0271 37.72 13.6316 46.2273 13.4953C48.423 13.4677 50.6834 13.4406 52.8399 13.9117C53.0806 13.9643 53.2611 13.9981 53.5103 13.9922Z" fill="#4142A6"/>
<path d="M53.5102 13.9922C55.0244 7.77118 60.4699 3.30114 66.8668 3.0282C73.2636 2.75524 79.07 6.74516 81.1084 12.8145C83.1476 18.884 80.9266 25.5701 75.6626 29.2141C70.7542 32.6115 64.2572 32.6226 59.3373 29.242C54.4175 25.8613 52.0984 19.7923 53.5102 13.9922Z" fill="#F2F2F2"/>
<path d="M66.0682 4.83921C73.0247 4.05941 79.2898 9.08206 80.0423 16.0416C80.7949 23.0011 75.747 29.2466 68.7846 29.9712C61.8611 30.6917 55.6582 25.6787 54.9102 18.758C54.1621 11.8374 59.1507 5.61466 66.0682 4.83921Z" fill="#4142A6"/>
<path d="M67.099 16.6936C67.4525 16.6751 67.9076 16.6267 68.2159 16.8546C68.8441 17.3432 69.4349 17.9434 69.989 18.5171C71.2159 19.7876 72.586 21.0101 73.7515 22.3311C73.7586 22.4567 73.7642 22.5826 73.7682 22.7083C73.7851 23.2625 73.7388 23.4799 73.3513 23.8807C72.537 24.7228 71.8205 24.3581 71.1151 23.6644C69.9465 22.5154 68.8114 21.3649 67.6675 20.2049L67.609 20.1201C67.3161 20.037 63.7727 24.1888 63.1315 24.2915C61.3802 24.5722 60.5533 22.7368 62.0492 21.5536C63.0936 20.7275 66.1292 17.0345 67.099 16.6936Z" fill="#F2F2F2"/>
<path d="M67.1584 10.2621C67.9186 10.2401 68.1327 10.2509 68.727 10.8638C70.2755 12.4606 72.0789 14.0381 73.5025 15.7317C73.6283 15.8813 73.6956 16.2249 73.6999 16.4094C73.7121 16.8216 73.5599 17.2216 73.2769 17.5214C72.2177 18.6222 70.6863 16.8649 69.9955 16.1618C69.1975 15.3495 68.3921 14.5306 67.5695 13.744C67.5338 13.7161 67.4289 13.6948 67.4219 13.7017C66.0516 15.0582 64.834 16.6052 63.2673 17.7331C62.1218 18.5576 60.8935 16.6624 61.3124 16.092C62.781 14.0921 64.8733 12.328 66.6309 10.555C66.7403 10.4447 67.0099 10.322 67.1584 10.2621Z" fill="#42A4A6"/>
<path d="M25.5574 35.1023C27.36 35.0363 29.3137 34.9992 31.093 35.4208C35.5714 36.4821 35.6234 41.9256 34.7877 45.5306C34.4346 47.0535 33.503 48.2253 32.1455 49.0009C32.6201 49.8732 33.0387 51.0799 33.4287 52.0146C34.2795 54.0541 35.0498 56.1739 35.9247 58.201C34.6988 58.2565 33.4707 58.2165 32.2416 58.2594C31.9263 57.4744 31.6337 56.6138 31.3458 55.8136C30.6036 53.8442 29.829 51.6137 29.1589 49.6143C28.761 49.5931 28.2432 49.6056 27.8361 49.6054L27.8302 58.2438L24.3905 58.2241L24.3921 43.2973C24.3919 40.9914 24.3119 38.1967 24.3921 35.9235C24.7789 35.5201 25.0494 35.3265 25.5574 35.1023Z" fill="#F2F2F2"/>
<path d="M27.753 37.7016C29.4342 37.6643 31.3175 37.81 31.559 40.0025C31.7029 41.3091 31.5593 42.7284 31.5827 44.0451C31.5976 44.8808 31.2873 45.6071 30.7937 46.2692C29.8263 47.0997 29.0456 47.0007 27.8389 47.018C27.8421 43.8934 27.7495 40.8209 27.753 37.7016Z" fill="#4142A6"/>
<path d="M49.691 34.883C49.8195 34.874 49.9484 34.8681 50.0773 34.8654C51.652 34.8296 53.1646 35.0695 54.3993 36.2201C55.7209 37.4516 56.3582 40.6041 55.1019 42.0631C54.6416 42.5976 53.3555 42.4964 52.6569 42.4924C52.6669 40.8545 52.7559 37.383 50.2258 37.6152C49.6923 37.6648 49.2005 37.9248 48.8591 38.3378C47.2714 40.2791 50.0646 43.2215 51.343 44.686C54.146 47.8969 57.9705 52.2531 54.7822 56.5782C53.9833 57.6619 52.5109 58.1924 51.1842 58.3034C50.7218 58.4014 49.5606 58.3613 49.0633 58.2807C45.3069 57.6722 44.7901 54.7616 45.233 51.6138C45.3336 51.5025 45.4375 51.3944 45.5448 51.2896C46.2937 50.5689 47.1447 50.6976 48.1173 50.7168C48.1501 52.5026 47.9957 54.1026 49.2337 55.452C50.1328 55.7914 51.444 55.8748 52.0739 54.9724C52.7354 54.0248 52.3966 52.0093 51.8034 51.0533C50.3364 48.7226 48.2751 46.8563 46.6658 44.6133C44.0119 40.9147 44.5434 35.7592 49.691 34.883Z" fill="#F2F2F2"/>
<path d="M58.7969 35.0871L67.427 35.0942C66.9574 38.1217 64.7767 37.8833 62.3723 37.8536C62.3283 40.0727 62.3913 42.4703 62.3908 44.71C63.3388 44.6261 65.2818 44.696 66.2754 44.72L66.267 47.497L62.3931 47.4897L62.3917 54.4767L62.3923 55.3615C64.776 55.3436 67.1934 54.9658 67.5628 58.0873C64.8048 58.1536 61.5778 58.1433 58.8177 58.088C58.9329 54.854 58.8344 50.8599 58.8068 47.5798L58.7969 35.0871Z" fill="#F2F2F2"/>
<path d="M38.9972 35.1147C39.6446 35.0741 41.4141 34.9213 41.8626 35.3646C42.0395 36.0533 41.985 38.0323 41.9851 38.8506L41.9841 44.3391C41.9824 48.5105 41.959 52.6895 42.0606 56.8613C42.0685 57.1841 42.0515 57.6182 41.9474 57.921C41.8838 58.1058 41.7232 58.1175 41.5478 58.1827C40.9457 58.1923 39.0963 58.3011 38.6957 57.9966C38.6169 57.5825 38.5846 57.1573 38.573 56.7363C38.521 54.8483 38.4085 35.7577 38.6307 35.3195C38.6957 35.1912 38.8693 35.1618 38.9972 35.1147Z" fill="#F2F2F2"/>
</svg>
